<svg width="150" height="40" viewBox="0 0 150 40" fill="none" xmlns="http://www.w3.org/2000/svg">
<path d="M39.5 20C39.5 30.7696 30.7696 39.5 20 39.5C9.23045 39.5 0.5 30.7696 0.5 20C0.5 9.23045 9.23045 0.5 20 0.5C30.7696 0.5 39.5 9.23045 39.5 20Z" stroke="white"/>
<path fill-rule="evenodd" clip-rule="evenodd" d="M24.6234 11.0037L22.2249 11C19.5302 11 17.7888 12.7387 17.7888 15.4298V17.4723H15.3771C15.1688 17.4723 15 17.6367 15 17.8395V20.7988C15 21.0016 15.1689 21.1658 15.3771 21.1658H17.7888V28.633C17.7888 28.8358 17.9575 29 18.1659 29H21.3124C21.5208 29 21.6896 28.8356 21.6896 28.633V21.1658H24.5093C24.7177 21.1658 24.8865 21.0016 24.8865 20.7988L24.8876 17.8395C24.8876 17.7421 24.8478 17.6489 24.7772 17.5799C24.7066 17.511 24.6103 17.4723 24.5103 17.4723H21.6896V15.7409C21.6896 14.9087 21.8933 14.4862 23.0073 14.4862L24.623 14.4857C24.8312 14.4857 25 14.3212 25 14.1186V11.3708C25 11.1683 24.8314 11.0041 24.6234 11.0037Z" fill="white"/>
<path d="M94.5 20C94.5 30.7696 85.7696 39.5 75 39.5C64.2304 39.5 55.5 30.7696 55.5 20C55.5 9.23045 64.2304 0.5 75 0.5C85.7696 0.5 94.5 9.23045 94.5 20Z" stroke="white"/>
<path fill-rule="evenodd" clip-rule="evenodd" d="M83.979 14.3625C83.9532 14.3318 83.9106 14.3213 83.8743 14.3381C83.3361 14.5791 82.77 14.7523 82.1869 14.8547C82.8059 14.3846 83.2672 13.7337 83.5037 12.9872C83.5151 12.9515 83.5033 12.9124 83.4744 12.8892C83.4453 12.8659 83.4049 12.8629 83.373 12.8821C82.6758 13.2995 81.9206 13.5937 81.1276 13.7569C80.4248 13.0207 79.4435 12.5996 78.4278 12.5996C76.3623 12.5996 74.6821 14.2957 74.6821 16.3805C74.6821 16.6326 74.7063 16.8824 74.7542 17.1248C71.8934 16.9466 69.2184 15.5602 67.3995 13.3083C67.3809 13.2852 67.3527 13.2723 67.3232 13.2753C67.2939 13.2775 67.2677 13.2943 67.2529 13.3198C66.9211 13.8944 66.7458 14.5519 66.7458 15.2207C66.7458 16.3799 67.2675 17.4637 68.1559 18.1789C67.6985 18.1234 67.2518 17.9781 66.849 17.7523C66.8219 17.7369 66.7882 17.7371 66.7611 17.7529C66.734 17.7685 66.7168 17.7976 66.7161 17.8292L66.7157 17.8776C66.7157 19.5424 67.8025 21.0041 69.3487 21.4895C68.9415 21.5557 68.5189 21.5513 68.1036 21.4712C68.073 21.4655 68.0409 21.4761 68.0199 21.4999C67.999 21.5237 67.992 21.557 68.0016 21.5872C68.4653 23.048 69.7535 24.0724 71.2531 24.2001C70.0022 25.1252 68.5237 25.6126 66.9615 25.6126C66.6737 25.6126 66.3839 25.5952 66.1 25.5616C66.0594 25.5569 66.0192 25.5813 66.0052 25.6206C65.9912 25.6602 66.0061 25.7045 66.0412 25.727C67.7317 26.8214 69.6864 27.3996 71.6943 27.3996C78.2619 27.3996 82.1865 22.0144 82.1865 16.8083C82.1865 16.6633 82.1837 16.5191 82.178 16.3753C82.8865 15.8521 83.4947 15.2118 83.9851 14.4706C84.007 14.4375 84.0046 14.3934 83.979 14.3625Z" fill="white"/>
<path d="M149.5 20C149.5 30.7696 140.77 39.5 130 39.5C119.23 39.5 110.5 30.7696 110.5 20C110.5 9.23045 119.23 0.5 130 0.5C140.77 0.5 149.5 9.23045 149.5 20Z" stroke="white"/>
<path fill-rule="evenodd" clip-rule="evenodd" d="M130 11.5C132.308 11.5 132.598 11.5098 133.505 11.5512C134.409 11.5924 135.027 11.7361 135.568 11.9463C136.127 12.1634 136.601 12.4541 137.073 12.9266C137.546 13.3992 137.837 13.8732 138.054 14.4322C138.264 14.9728 138.408 15.5907 138.449 16.4955C138.49 17.4021 138.5 17.6915 138.5 20C138.5 22.3085 138.49 22.5979 138.449 23.5045C138.408 24.4093 138.264 25.0272 138.054 25.5678C137.837 26.1268 137.546 26.6008 137.073 27.0734C136.601 27.5459 136.127 27.8366 135.568 28.0538C135.027 28.2639 134.409 28.4076 133.505 28.4488C132.598 28.4902 132.308 28.5 130 28.5C127.692 28.5 127.402 28.4902 126.495 28.4488C125.591 28.4076 124.973 28.2639 124.432 28.0538C123.873 27.8366 123.399 27.5459 122.927 27.0734C122.454 26.6008 122.163 26.1268 121.946 25.5678C121.736 25.0272 121.592 24.4093 121.551 23.5045C121.51 22.5979 121.5 22.3085 121.5 20C121.5 17.6915 121.51 17.4021 121.551 16.4955C121.592 15.5907 121.736 14.9728 121.946 14.4322C122.163 13.8732 122.454 13.3992 122.927 12.9266C123.399 12.4541 123.873 12.1634 124.432 11.9463C124.973 11.7361 125.591 11.5924 126.495 11.5512C127.402 11.5098 127.692 11.5 130 11.5ZM129.997 22.8298C131.562 22.8298 132.83 21.5616 132.83 19.9973C132.83 18.433 131.562 17.1649 129.997 17.1649C128.433 17.1649 127.165 18.433 127.165 19.9973C127.165 21.5616 128.433 22.8298 129.997 22.8298ZM129.997 15.6338C132.407 15.6338 134.361 17.5874 134.361 19.9973C134.361 22.4072 132.407 24.3608 129.997 24.3608C127.587 24.3608 125.634 22.4072 125.634 19.9973C125.634 17.5874 127.587 15.6338 129.997 15.6338ZM135.856 15.3722C135.856 15.946 135.39 16.4111 134.817 16.4111C134.243 16.4111 133.778 15.946 133.778 15.3722C133.778 14.7985 134.243 14.3333 134.817 14.3333C135.39 14.3333 135.856 14.7985 135.856 15.3722Z" fill="white"/>
</svg>
