<svg width="20" height="20" viewBox="0 0 20 20" fill="none" xmlns="http://www.w3.org/2000/svg">
<g clip-path="url(#clip0_181_10480)">
<path d="M13.3334 9.99999C13.3334 6.43868 10 1.66666 10 1.66666C10 1.66666 6.66669 6.43868 6.66669 9.99999C6.66669 13.5613 10 18.3333 10 18.3333C10 18.3333 13.3334 13.5613 13.3334 9.99999Z" stroke="white" stroke-width="0.833333"/>
<path d="M3.33331 5.83331C3.33331 5.83331 7.34135 7.49998 9.99998 7.49998C12.6586 7.49998 16.6666 5.83331 16.6666 5.83331" stroke="white" stroke-width="0.833333"/>
<path d="M16.6667 13.3333C16.6667 13.3333 12.4082 12.5 9.58335 12.5C6.75855 12.5 2.50002 13.3333 2.50002 13.3333" stroke="white" stroke-width="0.833333"/>
</g>
<rect x="2.08335" y="2.08332" width="15.8333" height="15.8333" rx="7.91667" stroke="white" stroke-width="0.833333"/>
<defs>
<clipPath id="clip0_181_10480">
<rect x="1.66669" y="1.66666" width="16.6667" height="16.6667" rx="8.33333" fill="white"/>
</clipPath>
</defs>
</svg>
