<svg width="185" height="50" viewBox="0 0 185 50" fill="none" xmlns="http://www.w3.org/2000/svg">
<path d="M66.1378 32V18.9091H74.9588V21.1911H68.9055V24.3104H74.505V26.5923H68.9055V29.718H74.9844V32H66.1378ZM83.2253 24.3743V26.5348H77.2551V24.3743H83.2253ZM85.5968 32V18.9091H90.7615C91.7544 18.9091 92.6003 19.0987 93.2992 19.478C93.998 19.853 94.5307 20.375 94.8972 21.044C95.2679 21.7088 95.4533 22.4759 95.4533 23.3452C95.4533 24.2145 95.2658 24.9815 94.8908 25.6463C94.5158 26.3111 93.9725 26.8288 93.2608 27.1996C92.5534 27.5703 91.6969 27.7557 90.6912 27.7557H87.3993V25.5376H90.2438C90.7765 25.5376 91.2154 25.446 91.5605 25.2628C91.91 25.0753 92.1699 24.8175 92.3404 24.4893C92.5151 24.157 92.6025 23.7756 92.6025 23.3452C92.6025 22.9105 92.5151 22.5312 92.3404 22.2074C92.1699 21.8793 91.91 21.6257 91.5605 21.4467C91.2111 21.2635 90.7679 21.1719 90.231 21.1719H88.3645V32H85.5968ZM97.2511 32V18.9091H102.416C103.404 18.9091 104.248 19.0859 104.947 19.4396C105.65 19.7891 106.185 20.2855 106.551 20.929C106.922 21.5682 107.108 22.3203 107.108 23.1854C107.108 24.0547 106.92 24.8026 106.545 25.429C106.17 26.0511 105.627 26.5284 104.915 26.8608C104.208 27.1932 103.351 27.3594 102.346 27.3594H98.8874V25.1349H101.898C102.426 25.1349 102.865 25.0625 103.215 24.9176C103.564 24.7727 103.824 24.5554 103.995 24.2656C104.169 23.9759 104.257 23.6158 104.257 23.1854C104.257 22.7507 104.169 22.3842 103.995 22.0859C103.824 21.7876 103.562 21.5618 103.208 21.4084C102.859 21.2507 102.418 21.1719 101.885 21.1719H100.019V32H97.2511ZM104.321 26.0426L107.574 32H104.519L101.336 26.0426H104.321ZM121.093 25.4545C121.093 26.8821 120.823 28.0966 120.282 29.098C119.745 30.0994 119.012 30.8643 118.083 31.3928C117.158 31.9169 116.118 32.179 114.963 32.179C113.8 32.179 112.756 31.9148 111.831 31.3864C110.907 30.858 110.176 30.093 109.639 29.0916C109.102 28.0902 108.833 26.8778 108.833 25.4545C108.833 24.027 109.102 22.8125 109.639 21.8111C110.176 20.8097 110.907 20.0469 111.831 19.5227C112.756 18.9943 113.8 18.7301 114.963 18.7301C116.118 18.7301 117.158 18.9943 118.083 19.5227C119.012 20.0469 119.745 20.8097 120.282 21.8111C120.823 22.8125 121.093 24.027 121.093 25.4545ZM118.287 25.4545C118.287 24.5298 118.149 23.75 117.872 23.1151C117.599 22.4801 117.213 21.9986 116.715 21.6705C116.216 21.3423 115.632 21.1783 114.963 21.1783C114.294 21.1783 113.711 21.3423 113.212 21.6705C112.713 21.9986 112.326 22.4801 112.049 23.1151C111.776 23.75 111.64 24.5298 111.64 25.4545C111.64 26.3793 111.776 27.1591 112.049 27.794C112.326 28.429 112.713 28.9105 113.212 29.2386C113.711 29.5668 114.294 29.7308 114.963 29.7308C115.632 29.7308 116.216 29.5668 116.715 29.2386C117.213 28.9105 117.599 28.429 117.872 27.794C118.149 27.1591 118.287 26.3793 118.287 25.4545ZM122.047 21.1911V18.9091H132.799V21.1911H128.791V32H126.055V21.1911H122.047ZM146.002 25.4545C146.002 26.8821 145.731 28.0966 145.19 29.098C144.653 30.0994 143.92 30.8643 142.991 31.3928C142.066 31.9169 141.026 32.179 139.872 32.179C138.708 32.179 137.664 31.9148 136.74 31.3864C135.815 30.858 135.084 30.093 134.547 29.0916C134.01 28.0902 133.742 26.8778 133.742 25.4545C133.742 24.027 134.01 22.8125 134.547 21.8111C135.084 20.8097 135.815 20.0469 136.74 19.5227C137.664 18.9943 138.708 18.7301 139.872 18.7301C141.026 18.7301 142.066 18.9943 142.991 19.5227C143.92 20.0469 144.653 20.8097 145.19 21.8111C145.731 22.8125 146.002 24.027 146.002 25.4545ZM143.195 25.4545C143.195 24.5298 143.057 23.75 142.78 23.1151C142.507 22.4801 142.122 21.9986 141.623 21.6705C141.124 21.3423 140.541 21.1783 139.872 21.1783C139.203 21.1783 138.619 21.3423 138.12 21.6705C137.622 21.9986 137.234 22.4801 136.957 23.1151C136.684 23.75 136.548 24.5298 136.548 25.4545C136.548 26.3793 136.684 27.1591 136.957 27.794C137.234 28.429 137.622 28.9105 138.12 29.2386C138.619 29.5668 139.203 29.7308 139.872 29.7308C140.541 29.7308 141.124 29.5668 141.623 29.2386C142.122 28.9105 142.507 28.429 142.78 27.794C143.057 27.1591 143.195 26.3793 143.195 25.4545ZM159.602 23.4922H156.803C156.751 23.13 156.647 22.8082 156.489 22.527C156.332 22.2415 156.129 21.9986 155.882 21.7983C155.635 21.598 155.349 21.4446 155.026 21.3381C154.706 21.2315 154.359 21.1783 153.984 21.1783C153.306 21.1783 152.716 21.3466 152.213 21.6832C151.71 22.0156 151.32 22.5014 151.043 23.1406C150.766 23.7756 150.628 24.5469 150.628 25.4545C150.628 26.3878 150.766 27.1719 151.043 27.8068C151.325 28.4418 151.717 28.9212 152.219 29.245C152.722 29.5689 153.304 29.7308 153.964 29.7308C154.335 29.7308 154.678 29.6818 154.994 29.5838C155.313 29.4858 155.597 29.343 155.844 29.1555C156.091 28.9638 156.295 28.7315 156.457 28.4588C156.624 28.1861 156.739 27.875 156.803 27.5256L159.602 27.5384C159.53 28.1392 159.349 28.7188 159.059 29.277C158.773 29.831 158.388 30.3274 157.902 30.7663C157.42 31.201 156.845 31.5462 156.176 31.8018C155.511 32.0533 154.759 32.179 153.92 32.179C152.752 32.179 151.708 31.9148 150.788 31.3864C149.871 30.858 149.147 30.093 148.614 29.0916C148.086 28.0902 147.822 26.8778 147.822 25.4545C147.822 24.027 148.09 22.8125 148.627 21.8111C149.164 20.8097 149.893 20.0469 150.813 19.5227C151.734 18.9943 152.769 18.7301 153.92 18.7301C154.678 18.7301 155.381 18.8366 156.029 19.0497C156.681 19.2628 157.259 19.5739 157.761 19.983C158.264 20.3878 158.673 20.8842 158.989 21.4723C159.308 22.0604 159.513 22.7337 159.602 23.4922ZM173.617 25.4545C173.617 26.8821 173.346 28.0966 172.805 29.098C172.268 30.0994 171.535 30.8643 170.606 31.3928C169.681 31.9169 168.642 32.179 167.487 32.179C166.324 32.179 165.279 31.9148 164.355 31.3864C163.43 30.858 162.699 30.093 162.162 29.0916C161.625 28.0902 161.357 26.8778 161.357 25.4545C161.357 24.027 161.625 22.8125 162.162 21.8111C162.699 20.8097 163.43 20.0469 164.355 19.5227C165.279 18.9943 166.324 18.7301 167.487 18.7301C168.642 18.7301 169.681 18.9943 170.606 19.5227C171.535 20.0469 172.268 20.8097 172.805 21.8111C173.346 22.8125 173.617 24.027 173.617 25.4545ZM170.811 25.4545C170.811 24.5298 170.672 23.75 170.395 23.1151C170.123 22.4801 169.737 21.9986 169.238 21.6705C168.74 21.3423 168.156 21.1783 167.487 21.1783C166.818 21.1783 166.234 21.3423 165.735 21.6705C165.237 21.9986 164.849 22.4801 164.572 23.1151C164.299 23.75 164.163 24.5298 164.163 25.4545C164.163 26.3793 164.299 27.1591 164.572 27.794C164.849 28.429 165.237 28.9105 165.735 29.2386C166.234 29.5668 166.818 29.7308 167.487 29.7308C168.156 29.7308 168.74 29.5668 169.238 29.2386C169.737 28.9105 170.123 28.429 170.395 27.794C170.672 27.1591 170.811 26.3793 170.811 25.4545ZM175.667 32V18.9091H178.435V29.718H184.047V32H175.667Z" fill="#208667"/>
<rect x="52" width="3" height="50" rx="1.5" fill="#208667"/>
<path d="M0 12.3064C0 6.4559 4.78069 1.71317 10.678 1.71317H20.8576H31.322C37.2193 1.71317 42 6.45591 42 12.3064V30.8094C42 34.4931 40.0056 37.8929 36.7772 39.7127L24.2771 46.7588C22.5705 47.7208 20.4848 47.7431 18.7577 46.8178L5.41742 39.671C2.0801 37.8831 0 34.4235 0 30.6607V12.3064Z" fill="#208667"/>
<path d="M0 12.3064C0 6.4559 4.78069 1.71317 10.678 1.71317H20.8576H31.322C37.2193 1.71317 42 6.45591 42 12.3064V30.8094C42 34.4931 40.0056 37.8929 36.7772 39.7127L24.2771 46.7588C22.5705 47.7208 20.4848 47.7431 18.7577 46.8178L5.41742 39.671C2.0801 37.8831 0 34.4235 0 30.6607V12.3064Z" fill="url(#paint0_linear_181_10459)"/>
<path d="M14.2551 17.0304C14.2551 16.1194 14.5221 15.399 15.056 14.8694C15.5899 14.3397 16.316 14.0749 17.2343 14.0749H27.8055C27.955 14.3079 28.0831 14.6151 28.1899 14.9965C28.318 15.3778 28.3821 15.7804 28.3821 16.2041C28.3821 17.0092 28.2005 17.5812 27.8375 17.9202C27.4958 18.2592 27.0367 18.4287 26.46 18.4287H19.7009V21.3842H26.9085C27.058 21.6172 27.1861 21.9244 27.2929 22.3058C27.4211 22.666 27.4851 23.0579 27.4851 23.4816C27.4851 24.2867 27.3143 24.8588 26.9726 25.1977C26.6309 25.5367 26.1717 25.7062 25.5951 25.7062H19.7009V29.0431H27.9336C28.0831 29.2761 28.2112 29.5833 28.318 29.9647C28.4461 30.346 28.5102 30.7486 28.5102 31.1723C28.5102 31.9774 28.3287 32.56 27.9656 32.9202C27.6239 33.2592 27.1648 33.4287 26.5882 33.4287H17.2343C16.316 33.4287 15.5899 33.1638 15.056 32.6342C14.5221 32.1045 14.2551 31.3842 14.2551 30.4732V17.0304Z" fill="white"/>
<path d="M14.2551 17.0304C14.2551 16.1194 14.5221 15.399 15.056 14.8694C15.5899 14.3397 16.316 14.0749 17.2343 14.0749H27.8055C27.955 14.3079 28.0831 14.6151 28.1899 14.9965C28.318 15.3778 28.3821 15.7804 28.3821 16.2041C28.3821 17.0092 28.2005 17.5812 27.8375 17.9202C27.4958 18.2592 27.0367 18.4287 26.46 18.4287H19.7009V21.3842H26.9085C27.058 21.6172 27.1861 21.9244 27.2929 22.3058C27.4211 22.666 27.4851 23.0579 27.4851 23.4816C27.4851 24.2867 27.3143 24.8588 26.9726 25.1977C26.6309 25.5367 26.1717 25.7062 25.5951 25.7062H19.7009V29.0431H27.9336C28.0831 29.2761 28.2112 29.5833 28.318 29.9647C28.4461 30.346 28.5102 30.7486 28.5102 31.1723C28.5102 31.9774 28.3287 32.56 27.9656 32.9202C27.6239 33.2592 27.1648 33.4287 26.5882 33.4287H17.2343C16.316 33.4287 15.5899 33.1638 15.056 32.6342C14.5221 32.1045 14.2551 31.3842 14.2551 30.4732V17.0304Z" fill="url(#paint1_linear_181_10459)"/>
<path d="M37.9424 15.813V28.6348C37.9424 32.0715 36.078 35.2422 33.0626 36.9338L23.797 42.1316C22.3083 42.9668 20.4918 42.9862 18.9853 42.1829L9.04717 36.8843C5.93061 35.2226 3.98645 31.9965 3.98645 28.4864V15.813C3.98645 10.3525 8.44842 5.92599 13.9526 5.92599H20.8576H27.9763C33.4804 5.92599 37.9424 10.3525 37.9424 15.813Z" stroke="white" stroke-width="1.5"/>
<path d="M3.20728 13.8404C4.84205 6.83631 11.3542 4.21971 16.3017 4.99994C15.1096 5.45887 15.6347 6.55081 16.3017 6.77439C10.1084 6.59477 5.82638 11.1817 5.5 13.5L4.73956 19.774C4.31244 18.9972 3.51947 19.1974 3.20728 19.774V13.8404Z" fill="#208667"/>
<g clip-path="url(#clip0_181_10459)">
<mask id="mask0_181_10459" style="mask-type:luminance" maskUnits="userSpaceOnUse" x="2" y="5" width="12" height="12">
<path d="M13.5254 5.72035V16.3136H2.84742V5.72035H13.5254Z" fill="white"/>
</mask>
<g mask="url(#mask0_181_10459)">
<path d="M2.85724 13.3918C2.90824 13.5963 2.96206 13.6931 3.08578 13.8023C3.25955 13.9546 3.53624 14.049 3.89889 14.0796C4.04337 14.092 4.43906 14.0845 4.61188 14.0663C5.09729 14.0159 5.61291 13.9107 6.20125 13.7419C6.32025 13.708 6.42224 13.6823 6.4279 13.684C6.43452 13.6865 6.4534 13.7502 6.47135 13.8271C6.67155 14.697 6.98414 15.4262 7.3402 15.8475C7.41758 15.9386 7.56871 16.0768 7.65556 16.1348C7.72738 16.1827 7.83409 16.2357 7.91247 16.2622C7.97291 16.2828 8.13628 16.3135 8.18632 16.3135C8.22975 16.3135 8.37426 16.287 8.44316 16.2672C8.68499 16.196 8.9409 15.9874 9.15901 15.6845C9.23931 15.5728 9.40076 15.2855 9.47537 15.1225C9.63119 14.7814 9.76816 14.3709 9.88526 13.8942C9.91267 13.7816 9.93715 13.6873 9.94 13.6848C9.94285 13.6831 10.0345 13.7071 10.144 13.7386C11.0204 13.9935 11.7542 14.1094 12.3444 14.0854C12.8931 14.0639 13.2623 13.9107 13.4219 13.6401C13.4682 13.5623 13.4833 13.5226 13.5079 13.4166C13.5324 13.3082 13.5314 13.2817 13.5031 13.1418C13.3841 12.5666 12.8345 11.9036 11.8061 11.0958C11.7551 11.0561 11.7135 11.0197 11.7135 11.0147C11.7135 11.0098 11.7315 10.9924 11.7532 10.9758C11.8751 10.8856 12.1291 10.6778 12.2944 10.5322C13.0659 9.85517 13.4833 9.25425 13.5239 8.76428C13.5287 8.70799 13.5031 8.57141 13.4738 8.49358C13.3974 8.29415 13.2132 8.13603 12.9554 8.04916C12.7278 7.97219 12.5229 7.94486 12.181 7.94486C11.6172 7.9457 10.9731 8.05495 10.1487 8.29168C10.0052 8.33306 9.9457 8.34627 9.93908 8.3397C9.93438 8.33469 9.92399 8.29909 9.91452 8.26018C9.76723 7.60799 9.55097 7.01125 9.31014 6.59244C9.15994 6.3309 9.03907 6.17364 8.87285 6.02383C8.68684 5.85581 8.5367 5.77884 8.30912 5.73579C8.20334 5.7151 8.16931 5.7151 8.06075 5.73579C7.9455 5.75815 7.8983 5.77221 7.80861 5.81277C7.59512 5.90961 7.37231 6.11653 7.18715 6.38801C6.90198 6.80681 6.64794 7.44994 6.47607 8.18158C6.45718 8.2635 6.43829 8.33469 6.43357 8.3397C6.42696 8.34627 6.36747 8.33306 6.22392 8.29168C5.40043 8.0558 4.75448 7.9457 4.19164 7.94486C3.91021 7.94486 3.778 7.95728 3.5778 8.00361C3.2586 8.07727 3.05461 8.20806 2.93751 8.41413C2.86668 8.53666 2.8308 8.72204 2.85535 8.82882C2.86008 8.85036 2.8733 8.90743 2.88368 8.95382C3.00173 9.46696 3.57024 10.149 4.47778 10.8658C4.57694 10.9452 4.6591 11.0122 4.6591 11.0164C4.6591 11.0205 4.57694 11.0876 4.47683 11.167C4.27096 11.3292 3.9546 11.6032 3.80822 11.7447C3.28693 12.2513 2.96868 12.7106 2.88368 13.079C2.8733 13.1253 2.86008 13.1824 2.85535 13.2039C2.84402 13.2528 2.84496 13.3413 2.85724 13.3918ZM3.17172 13.1286C3.2671 12.7321 3.68923 12.1966 4.35501 11.628C4.576 11.4393 4.88386 11.1985 4.90369 11.1985C4.91219 11.1985 4.98869 11.2473 5.07462 11.3077C5.3721 11.5146 5.78763 11.7803 6.08038 11.9508C6.13704 11.9848 6.18898 12.017 6.19465 12.0228C6.20031 12.0295 6.20787 12.0783 6.21165 12.1312C6.22959 12.3886 6.28342 12.8223 6.33725 13.1476C6.35708 13.261 6.37219 13.3711 6.37313 13.3918V13.429L6.1512 13.4936C5.54964 13.6699 5.00662 13.7783 4.508 13.823C4.33518 13.8388 3.99049 13.8362 3.85544 13.8197C3.43614 13.7659 3.20666 13.6235 3.15755 13.3877C3.14622 13.3331 3.15283 13.2039 3.17172 13.1286ZM3.17644 8.58214C3.25199 8.38186 3.48052 8.25856 3.85639 8.21385C3.99804 8.19733 4.33423 8.19733 4.51839 8.21385C4.91597 8.24945 5.36738 8.33221 5.81595 8.45058C6.04827 8.5118 6.35235 8.60036 6.36747 8.61032C6.38163 8.62106 6.38257 8.61774 6.34102 8.86025C6.28814 9.16731 6.22865 9.64577 6.21165 9.90566C6.20787 9.95693 6.20031 10.0033 6.19465 10.0099C6.18898 10.0157 6.10305 10.0687 6.00483 10.1266C5.69413 10.3104 5.32299 10.5504 5.03212 10.7548C4.9698 10.7987 4.91219 10.8343 4.90369 10.8343C4.88386 10.8343 4.63643 10.6415 4.40034 10.4428C3.66751 9.82536 3.23405 9.26752 3.15755 8.84373C3.14433 8.76837 3.15378 8.64344 3.17644 8.58214ZM5.29277 10.9079C5.55814 10.7225 6.15687 10.3402 6.1682 10.3492C6.1701 10.3518 6.17293 10.6514 6.17387 11.0164C6.17482 11.5511 6.17293 11.6785 6.16254 11.6785C6.12098 11.6785 5.15017 11.0429 5.15017 11.0164C5.15017 11.0114 5.21439 10.9634 5.29277 10.9079ZM6.47985 10.2392L6.48646 10.1605L6.52895 10.134C6.59317 10.0935 6.91331 9.91887 7.13711 9.8022C7.49218 9.61675 8.15137 9.30305 8.18632 9.30305C8.20519 9.30305 8.53293 9.45291 8.83319 9.59937C9.18642 9.77155 9.84938 10.1249 9.87956 10.1572C9.91829 10.1994 9.91736 11.8333 9.87864 11.8755C9.86447 11.8913 9.47067 12.1081 9.23454 12.2306C8.786 12.4631 8.22597 12.7297 8.18632 12.7297C8.16839 12.7297 7.82747 12.5741 7.54323 12.435C7.20039 12.2687 6.52329 11.9069 6.49307 11.8747C6.47324 11.854 6.46474 11.4799 6.46946 10.8922C6.47135 10.5761 6.47702 10.2822 6.47985 10.2392ZM6.51857 12.2132C6.52234 12.2107 6.54879 12.2206 6.57712 12.2364C6.60544 12.2513 6.71499 12.31 6.82171 12.3672C7.06346 12.4954 7.36946 12.6494 7.63385 12.7735C7.74532 12.8265 7.83787 12.8728 7.83972 12.8778C7.84541 12.8927 7.38263 13.0797 6.98414 13.223C6.73104 13.3148 6.67344 13.3314 6.66211 13.3215C6.64322 13.3049 6.56579 12.7777 6.52517 12.3903C6.50912 12.2389 6.50817 12.2182 6.51857 12.2132ZM6.52895 9.61018C6.56579 9.25093 6.64322 8.72784 6.66117 8.71209C6.68572 8.69062 7.83217 9.1243 7.83217 9.15573C7.83217 9.16152 7.7481 9.20545 7.64516 9.2534C7.39402 9.37099 7.02569 9.55637 6.75182 9.70284C6.62717 9.76908 6.52234 9.82204 6.51762 9.81957C6.50817 9.81378 6.50724 9.82699 6.52895 9.61018ZM6.85476 13.5383C7.23342 13.4092 7.61591 13.2635 7.98237 13.1104L8.1844 13.026L8.36479 13.103C8.72364 13.2552 9.10705 13.4017 9.45181 13.5201C9.55567 13.5557 9.64536 13.5896 9.65106 13.5963C9.65953 13.6045 9.65106 13.6533 9.61703 13.7999C9.29975 15.1415 8.76991 15.9973 8.22505 16.0454C8.04844 16.061 7.82747 15.9584 7.65178 15.7797C7.27314 15.3931 6.96148 14.6913 6.73294 13.7105C6.72066 13.6558 6.71122 13.6054 6.71122 13.5987C6.71216 13.5921 6.76788 13.5681 6.85476 13.5383ZM6.84532 7.88193C7.09369 7.01456 7.43652 6.38304 7.79821 6.12812C8.01348 5.97665 8.20519 5.94851 8.41206 6.03707C8.84359 6.22247 9.23739 6.87303 9.52356 7.87204C9.60002 8.13935 9.6643 8.42324 9.65106 8.43652C9.64536 8.44316 9.56606 8.47289 9.47537 8.50439C9.11844 8.62607 8.63864 8.8106 8.30627 8.9546C8.19387 9.00262 8.18825 9.00432 8.15991 8.99351C8.1429 8.98688 8.02765 8.93892 7.903 8.88673C7.59234 8.75679 7.33073 8.65665 7.00208 8.54076C6.84909 8.48702 6.72161 8.43899 6.71783 8.43405C6.70933 8.42162 6.78582 8.09055 6.84532 7.88193ZM8.69915 12.7926C9.00604 12.6494 9.34887 12.4756 9.76723 12.2513C9.81066 12.2281 9.85031 12.2107 9.85501 12.2132C9.86447 12.2182 9.86355 12.224 9.83329 12.5062C9.80311 12.7984 9.73036 13.2975 9.71527 13.3182C9.71242 13.3223 9.7058 13.3256 9.7011 13.3256C9.67184 13.3256 9.13068 13.1269 8.8181 13.0028C8.59052 12.911 8.54048 12.8886 8.54048 12.8761C8.54048 12.8712 8.61223 12.8331 8.69915 12.7926ZM8.66982 9.09034C9.08441 8.91823 9.69355 8.69641 9.71149 8.71209C9.72851 8.72699 9.79834 9.19302 9.83329 9.52656C9.86355 9.80877 9.86447 9.81456 9.85501 9.81957C9.85031 9.82204 9.76624 9.78066 9.66807 9.72769C9.32146 9.54231 8.9777 9.36929 8.66512 9.22445C8.59714 9.19217 8.54048 9.16152 8.54048 9.15573C8.54048 9.14994 8.59899 9.12014 8.66982 9.09034ZM10.0184 13.2519C10.0741 12.9366 10.1327 12.4822 10.1553 12.1875C10.161 12.1147 10.1676 12.0477 10.1695 12.0386C10.1724 12.0278 10.229 11.9889 10.3272 11.9309C10.6474 11.7414 11.0383 11.4898 11.3405 11.2779C11.4029 11.2341 11.4605 11.1985 11.468 11.1985C11.485 11.1985 11.6276 11.3069 11.858 11.4948C12.8713 12.32 13.3794 13.0881 13.1792 13.4911C13.115 13.6194 12.9601 13.722 12.7457 13.7775C12.4964 13.8413 12.096 13.8495 11.6805 13.8006C11.2442 13.7494 10.79 13.6526 10.2215 13.4895C10.0203 13.4315 9.99482 13.4216 9.99482 13.4009C9.99482 13.3926 10.0052 13.3256 10.0184 13.2519ZM10.0061 8.60947C10.0128 8.60538 10.1034 8.5772 10.2073 8.5474C11.1025 8.28998 11.7797 8.18073 12.3491 8.20312C12.9431 8.22713 13.2538 8.43405 13.2208 8.78412C13.1839 9.17233 12.8298 9.67473 12.1735 10.2682C11.9402 10.4792 11.4982 10.8343 11.468 10.8343C11.4605 10.8343 11.4029 10.7987 11.3405 10.7548C11.0383 10.5429 10.6474 10.2913 10.3272 10.1018C10.229 10.0439 10.1724 10.005 10.1695 9.99422C10.1676 9.98511 10.1591 9.89733 10.1506 9.79966C10.1242 9.48349 10.0656 9.0349 10.0146 8.76096C9.99289 8.64754 9.99197 8.62028 10.0061 8.60947ZM10.2045 10.3492C10.2215 10.3352 11.2225 10.9907 11.2225 11.0164C11.2225 11.042 10.2252 11.6951 10.2035 11.6835C10.1969 11.6793 10.1978 10.355 10.2045 10.3492Z" fill="white"/>
<path d="M7.34413 11.1555C7.40108 11.4685 7.62154 11.7283 7.91632 11.8285C8.01171 11.8619 8.03278 11.8644 8.19872 11.8644C8.36964 11.8631 8.38323 11.8606 8.48112 11.8248C8.74123 11.7258 8.92575 11.5328 9.01373 11.2669C9.04093 11.1851 9.04463 11.1493 9.04463 11.0169C9.04463 10.8846 9.04093 10.8487 9.01373 10.767C8.92575 10.501 8.74123 10.308 8.48112 10.2091C8.38323 10.1732 8.36964 10.1707 8.19872 10.1695C8.03278 10.1695 8.01171 10.1719 7.91632 10.2053C7.65621 10.2944 7.4519 10.5072 7.3689 10.7757C7.33914 10.8734 7.32676 11.0627 7.34413 11.1555Z" fill="white"/>
<path d="M6.26923 14.8576C6.30484 15.0532 6.44264 15.2156 6.62687 15.2782C6.68648 15.2991 6.69963 15.3006 6.80337 15.3006C6.91019 15.2998 6.91871 15.2983 6.97986 15.2759C7.14239 15.214 7.25779 15.0934 7.31274 14.9272C7.32976 14.8761 7.33211 14.8537 7.33211 14.771C7.33211 14.6883 7.32976 14.6658 7.31274 14.6148C7.25779 14.4486 7.14239 14.328 6.97986 14.2661C6.91871 14.2436 6.91019 14.2421 6.80337 14.2413C6.69963 14.2413 6.68648 14.2429 6.62687 14.2638C6.46431 14.3194 6.33658 14.4524 6.28472 14.6202C6.26614 14.6813 6.2584 14.7996 6.26923 14.8576Z" fill="white"/>
<path d="M4.73164 8.31101C4.76724 8.50663 4.90504 8.66899 5.08928 8.73163C5.14888 8.75253 5.16204 8.75409 5.26577 8.75409C5.3726 8.75331 5.38111 8.75175 5.44226 8.7293C5.60482 8.66743 5.72017 8.54681 5.77513 8.38057C5.79216 8.32958 5.79448 8.30712 5.79448 8.22442C5.79448 8.14166 5.79216 8.1192 5.77513 8.06821C5.72017 7.90197 5.60482 7.78134 5.44226 7.71948C5.38111 7.69702 5.3726 7.69547 5.26577 7.69476C5.16204 7.69476 5.14888 7.69625 5.08928 7.71715C4.92672 7.7728 4.79899 7.90585 4.74712 8.07358C4.72854 8.13466 4.7208 8.25303 4.73164 8.31101Z" fill="white"/>
<path d="M12.1849 10.0059C12.2205 10.2015 12.3583 10.3639 12.5425 10.4265C12.6022 10.4474 12.6153 10.449 12.7191 10.449C12.8258 10.4482 12.8344 10.4467 12.8955 10.4242C13.0581 10.3623 13.1734 10.2417 13.2284 10.0755C13.2454 10.0245 13.2478 10.002 13.2478 9.91934C13.2478 9.83657 13.2454 9.81411 13.2284 9.76313C13.1734 9.59688 13.0581 9.47626 12.8955 9.4144C12.8344 9.39194 12.8258 9.39039 12.7191 9.38968C12.6153 9.38968 12.6022 9.39116 12.5425 9.41207C12.38 9.46772 12.2523 9.60077 12.2004 9.76849C12.1818 9.82958 12.174 9.94794 12.1849 10.0059Z" fill="white"/>
</g>
</g>
<defs>
<linearGradient id="paint0_linear_181_10459" x1="42" y1="25" x2="21" y2="25" gradientUnits="userSpaceOnUse">
<stop stop-opacity="0.5"/>
<stop offset="1" stop-color="#FFF7F7" stop-opacity="0"/>
</linearGradient>
<linearGradient id="paint1_linear_181_10459" x1="29.756" y1="23.2345" x2="12.1729" y2="23.378" gradientUnits="userSpaceOnUse">
<stop offset="0.099389" stop-color="white"/>
<stop offset="1" stop-color="#208667" stop-opacity="0.8"/>
</linearGradient>
<clipPath id="clip0_181_10459">
<rect width="10.678" height="10.5932" fill="white" transform="translate(2.84741 5.72034)"/>
</clipPath>
</defs>
</svg>
