<svg width="20" height="20" viewBox="0 0 20 20" fill="none" xmlns="http://www.w3.org/2000/svg">
<path fill-rule="evenodd" clip-rule="evenodd" d="M16.7832 6.46262L12.4744 2.90002C11.023 1.7 8.97701 1.69999 7.52562 2.90002L3.21677 6.46261C2.44047 7.10447 2 8.07764 2 9.09304V14.6487C2 16.4528 3.38732 18 5.2 18H6.8C7.68366 18 8.4 17.2837 8.4 16.4V13.7983C8.4 12.7843 9.16172 12.047 10 12.047C10.8383 12.047 11.6 12.7843 11.6 13.7983V16.4C11.6 17.2837 12.3163 18 13.2 18H14.8C16.6127 18 18 16.4528 18 14.6487V9.09304C18 8.07764 17.5595 7.10447 16.7832 6.46262Z" fill="#208667"/>
</svg>
