<svg width="24" height="24" viewBox="0 0 24 24" fill="none" xmlns="http://www.w3.org/2000/svg">
<path fill-rule="evenodd" clip-rule="evenodd" d="M12 4C10.4207 4 9.16036 4.5897 8.30417 5.60939C7.46087 6.61374 7.07407 7.95734 7.07407 9.3625V10.7708C7.07407 10.9691 6.98891 11.2076 6.76685 11.5154C6.55398 11.8105 6.27765 12.0872 5.97239 12.3928L5.92067 12.4447C5.38886 12.9776 5 13.7497 5 14.6708C5 15.9194 5.93196 17 7.16049 17H16.8395C18.068 17 19 15.9194 19 14.6708C19 13.7497 18.6111 12.9776 18.0793 12.4447L18.0276 12.3928L18.0276 12.3928C17.7223 12.0871 17.446 11.8104 17.2332 11.5154C17.0111 11.2076 16.9259 10.9691 16.9259 10.7708V9.3625C16.9259 7.95734 16.5391 6.61374 15.6958 5.60939C14.8396 4.5897 13.5793 4 12 4Z" fill="#208667"/>
<path fill-rule="evenodd" clip-rule="evenodd" d="M10.3693 18.1132C10.7515 17.9079 11.2691 17.9896 11.5255 18.2958C11.6083 18.3947 11.737 18.488 11.91 18.557C12.0832 18.6261 12.287 18.6651 12.5 18.6651C12.713 18.6651 12.9168 18.6261 13.09 18.557C13.263 18.488 13.3917 18.3947 13.4745 18.2958C13.7309 17.9896 14.2485 17.9079 14.6307 18.1132C15.013 18.3185 15.115 18.7331 14.8587 19.0392C14.6028 19.3449 14.2452 19.5874 13.8333 19.7518C13.4215 19.9161 12.9621 20 12.5 20C12.0379 20 11.5785 19.9161 11.1667 19.7518C10.7548 19.5874 10.3972 19.3449 10.1413 19.0392C9.88497 18.7331 9.98704 18.3185 10.3693 18.1132Z" fill="#208667"/>
</svg>
