<svg width="202" height="184" viewBox="0 0 202 184" fill="none" xmlns="http://www.w3.org/2000/svg">
<path d="M202 140.723H0V140.816H202V140.723Z" fill="#EBEBEB"/>
<path d="M181.759 146.644H168.379V146.737H181.759V146.644Z" fill="#EBEBEB"/>
<path d="M133.813 147.645H130.302V147.738H133.813V147.645Z" fill="#EBEBEB"/>
<path d="M167.975 143.229H160.222V143.322H167.975V143.229Z" fill="#EBEBEB"/>
<path d="M38.6426 143.848H21.1938V143.94H38.6426V143.848Z" fill="#EBEBEB"/>
<path d="M44.7995 143.848H42.2422V143.94H44.7995V143.848Z" fill="#EBEBEB"/>
<path d="M90.9605 145.401H53.1138V145.493H90.9605V145.401Z" fill="#EBEBEB"/>
<path d="M95.7482 124.31H17.7398C17.1287 124.309 16.543 124.088 16.1112 123.694C15.6795 123.3 15.437 122.766 15.437 122.209V22.3229C15.4423 21.7694 15.6872 21.2402 16.1183 20.8502C16.5495 20.4602 17.1322 20.2409 17.7398 20.24H95.7482C96.36 20.24 96.9467 20.4614 97.3794 20.8554C97.812 21.2495 98.055 21.784 98.055 22.3413V122.209C98.055 122.766 97.812 123.301 97.3794 123.695C96.9467 124.089 96.36 124.31 95.7482 124.31ZM17.7398 20.3136C17.1555 20.3146 16.5955 20.5267 16.1827 20.9034C15.7699 21.2801 15.538 21.7906 15.538 22.3229V122.209C15.538 122.741 15.7699 123.252 16.1827 123.629C16.5955 124.005 17.1555 124.217 17.7398 124.218H95.7482C96.3329 124.217 96.8933 124.005 97.3068 123.629C97.7202 123.252 97.9529 122.742 97.954 122.209V22.3229C97.9529 21.7903 97.7202 21.2798 97.3068 20.9032C96.8933 20.5266 96.3329 20.3146 95.7482 20.3136H17.7398Z" fill="#EBEBEB"/>
<path d="M183.137 124.31H105.125C104.513 124.309 103.927 124.088 103.495 123.694C103.062 123.3 102.819 122.766 102.818 122.209V22.3229C102.824 21.7691 103.07 21.2399 103.502 20.85C103.934 20.4601 104.517 20.2409 105.125 20.24H183.137C183.744 20.2419 184.326 20.4616 184.756 20.8515C185.186 21.2414 185.431 21.77 185.436 22.3229V122.209C185.436 122.765 185.194 123.298 184.763 123.692C184.332 124.086 183.748 124.308 183.137 124.31ZM105.125 20.3136C104.54 20.3146 103.98 20.5266 103.566 20.9032C103.153 21.2798 102.92 21.7903 102.919 22.3229V122.209C102.92 122.742 103.153 123.252 103.566 123.629C103.98 124.005 104.54 124.217 105.125 124.218H183.137C183.722 124.217 184.282 124.005 184.696 123.629C185.109 123.252 185.342 122.742 185.343 122.209V22.3229C185.342 21.7903 185.109 21.2798 184.696 20.9032C184.282 20.5266 183.722 20.3146 183.137 20.3136H105.125Z" fill="#EBEBEB"/>
<path d="M125.034 138.578H116.505L120.99 105.322C121.097 104.627 121.472 103.99 122.047 103.523C122.621 103.056 123.359 102.79 124.129 102.771H161.337L155.883 138.578H125.034Z" fill="#F5F5F5"/>
<path d="M152.078 138.578H160.606L165.09 105.322C165.146 105.002 165.123 104.675 165.024 104.364C164.925 104.053 164.752 103.766 164.518 103.522C164.284 103.279 163.993 103.086 163.668 102.956C163.342 102.826 162.989 102.763 162.634 102.771H159.705C158.935 102.789 158.196 103.055 157.62 103.522C157.045 103.989 156.67 104.626 156.562 105.322L152.078 138.578Z" fill="#F0F0F0"/>
<path d="M148.939 138.541L150.482 122.452C150.517 122.105 150.682 121.779 150.947 121.528C151.213 121.277 151.565 121.116 151.944 121.072L152.583 120.998C153.091 120.94 153.561 120.726 153.918 120.391C154.275 120.057 154.496 119.622 154.546 119.158L154.825 116.214C154.852 115.93 154.815 115.644 154.714 115.374C154.614 115.104 154.453 114.856 154.242 114.646C154.031 114.435 153.774 114.267 153.487 114.152C153.201 114.037 152.892 113.977 152.579 113.977H166.828C167.141 113.977 167.451 114.036 167.738 114.151C168.025 114.266 168.282 114.434 168.494 114.644C168.705 114.855 168.867 115.103 168.967 115.373C169.068 115.644 169.106 115.93 169.078 116.214L168.795 119.158C168.746 119.623 168.525 120.058 168.168 120.392C167.811 120.727 167.34 120.94 166.832 120.998L166.198 121.072C165.817 121.117 165.464 121.279 165.198 121.531C164.932 121.783 164.769 122.111 164.735 122.459L163.188 138.548C163.133 139.113 162.848 139.64 162.389 140.023C161.93 140.407 161.33 140.62 160.707 140.62H146.454C147.079 140.619 147.68 140.406 148.14 140.021C148.6 139.636 148.885 139.108 148.939 138.541Z" fill="#E6E6E6"/>
<path d="M109.718 118.426C109.601 117.208 108.987 116.073 107.996 115.247C107.006 114.421 105.712 113.962 104.369 113.962H116.776C118.119 113.962 119.413 114.421 120.403 115.247C121.393 116.073 122.008 117.208 122.125 118.426L123.337 131.177H110.942L109.718 118.426Z" fill="#E6E6E6"/>
<path d="M98.8586 113.962H104.369C105.712 113.962 107.006 114.42 107.996 115.247C108.987 116.073 109.601 117.207 109.718 118.426L110.93 131.177H140.479L141.691 118.426C141.809 117.205 142.426 116.069 143.419 115.243C144.413 114.416 145.71 113.959 147.056 113.962H152.57C152.883 113.963 153.193 114.022 153.479 114.137C153.765 114.253 154.022 114.421 154.234 114.631C154.445 114.841 154.606 115.09 154.706 115.36C154.806 115.63 154.844 115.916 154.817 116.2L154.538 119.144C154.488 119.608 154.266 120.042 153.91 120.377C153.553 120.711 153.082 120.925 152.574 120.984L151.936 121.057C151.555 121.102 151.203 121.264 150.937 121.516C150.671 121.769 150.507 122.096 150.474 122.445L148.93 138.534C148.875 139.099 148.589 139.625 148.129 140.009C147.67 140.392 147.069 140.605 146.446 140.605H104.979C104.356 140.605 103.756 140.392 103.297 140.008C102.838 139.625 102.553 139.099 102.499 138.534L100.951 122.445C100.918 122.096 100.754 121.769 100.488 121.516C100.222 121.264 99.8697 121.102 99.4888 121.057L98.8545 120.984C98.3465 120.926 97.8753 120.712 97.5185 120.377C97.1616 120.043 96.9403 119.608 96.8911 119.144L96.6083 116.2C96.5808 115.915 96.6186 115.629 96.7192 115.359C96.8199 115.088 96.9811 114.84 97.1928 114.63C97.4044 114.419 97.6618 114.251 97.9486 114.136C98.2354 114.021 98.5453 113.962 98.8586 113.962Z" fill="#F0F0F0"/>
<path d="M37.3742 48.3368C37.3742 48.3368 36.9015 45.4921 39.176 43.6705C41.4505 41.8489 41.2526 40.7633 40.6021 40.6198C39.9517 40.4763 39.3538 42.3016 38.3518 42.8021C38.3518 42.8021 38.3195 40.204 39.3376 39.2472C40.3557 38.2904 40.889 35.8248 39.9194 35.7843C38.9498 35.7438 38.8528 37.2563 38.6508 38.3161C38.4488 39.376 37.3742 40.8921 37.3742 40.8921C37.3742 40.8921 37.1641 38.5701 36.5056 37.6096C35.847 36.6491 37.6004 34.4669 36.9096 33.5101C36.2187 32.5533 35.0512 34.3712 35.1481 36.432C35.2451 38.4928 36.7641 40.6713 36.4005 42.8131C36.4005 42.8131 35.738 41.3117 35.1441 41.1755C34.5502 41.0393 33.9321 40.0421 33.5483 39.6741C33.1645 39.3061 32.6474 40.583 33.5483 41.768C34.4492 42.9529 36.7641 46.1104 36.4005 48.6717L37.3742 48.3368Z" fill="#E6E6E6"/>
<path d="M38.7357 47.0414L39.4831 51.3028C39.5368 51.6125 39.5162 51.9291 39.4228 52.2308C39.3293 52.5326 39.1653 52.8123 38.9418 53.0508C38.7184 53.2893 38.4409 53.4808 38.1285 53.6124C37.8161 53.7439 37.4761 53.8122 37.1319 53.8126H36.3239C35.9798 53.8123 35.6399 53.744 35.3276 53.6124C35.0153 53.4809 34.7381 53.2892 34.515 53.0507C34.2918 52.8121 34.1282 52.5323 34.0352 52.2306C33.9423 51.9288 33.9223 51.6123 33.9766 51.3028L34.7442 47.0414H38.7357Z" fill="#E6E6E6"/>
<path d="M27.46 54.7069L80.1577 54.7069V52.2413L27.46 52.2413V54.7069Z" fill="#E0E0E0"/>
<path d="M75.4065 52.2375H77.7295V43.148H75.4065V52.2375Z" fill="#EBEBEB"/>
<path d="M64.1833 52.2375H66.5063V43.148H64.1833V52.2375Z" fill="#EBEBEB"/>
<path d="M49.7435 51.8796L52.0327 52.239L53.7278 43.2815L51.4385 42.9221L49.7435 51.8796Z" fill="#EBEBEB"/>
<path d="M72.53 52.2412H74.853V44.3476H72.53V52.2412Z" fill="#EBEBEB"/>
<path d="M67.1931 52.2412H69.5161V44.3476H67.1931V52.2412Z" fill="#EBEBEB"/>
<path d="M53.7278 52.2412H56.0508V44.3476H53.7278V52.2412Z" fill="#EBEBEB"/>
<path d="M59.2582 51.7752L61.5259 52.2343L63.4059 44.5287L61.1383 44.0696L59.2582 51.7752Z" fill="#EBEBEB"/>
<path d="M70.5261 52.2412H71.6855V42.699H70.5261V52.2412Z" fill="#EBEBEB"/>
<path d="M56.7175 52.2412H57.877V42.699H56.7175V52.2412Z" fill="#EBEBEB"/>
<path d="M80.1577 70.6487H27.46V73.1143H80.1577V70.6487Z" fill="#E0E0E0"/>
<path d="M32.2068 61.5591H29.8838V70.6487H32.2068V61.5591Z" fill="#EBEBEB"/>
<path d="M43.4338 61.5591H41.1108V70.6487H43.4338V61.5591Z" fill="#EBEBEB"/>
<path d="M56.1764 61.3309L53.8872 61.6903L55.5823 70.6478L57.8715 70.2884L56.1764 61.3309Z" fill="#EBEBEB"/>
<path d="M35.0833 62.7587H32.7603V70.6523H35.0833V62.7587Z" fill="#EBEBEB"/>
<path d="M40.4202 62.7587H38.0972V70.6523H40.4202V62.7587Z" fill="#EBEBEB"/>
<path d="M53.8894 62.7587H51.5664V70.6523H53.8894V62.7587Z" fill="#EBEBEB"/>
<path d="M46.4845 62.485L44.2168 62.9441L46.0968 70.6497L48.3645 70.1906L46.4845 62.485Z" fill="#EBEBEB"/>
<path d="M37.0911 61.1064H35.9316V70.6487H37.0911V61.1064Z" fill="#EBEBEB"/>
<path d="M50.9002 61.1064H49.7407V70.6487H50.9002V61.1064Z" fill="#EBEBEB"/>
<path d="M75.0996 63.4542H63.7876V70.5677H75.0996V63.4542Z" fill="#EBEBEB"/>
<path d="M165.773 45.7092H120.449V91.3707H165.773V45.7092Z" fill="#E0E0E0"/>
<path d="M167.219 45.7092H120.21V91.3707H167.219V45.7092Z" fill="#F0F0F0"/>
<path d="M165.232 47.1665H122.125V89.2731H165.232V47.1665Z" fill="white"/>
<path d="M165.232 47.1665H163.983V89.2731H165.232V47.1665Z" fill="#E0E0E0"/>
<path d="M122.012 77.442V78.5791H164.117V77.442H122.012Z" fill="#E0E0E0"/>
<path d="M165.232 75.5393H121.455V77.4455H165.232V75.5393Z" fill="#F0F0F0"/>
<path d="M101 157.342C144.261 157.342 179.332 155.477 179.332 153.176C179.332 150.876 144.261 149.01 101 149.01C57.7387 149.01 22.6685 150.876 22.6685 153.176C22.6685 155.477 57.7387 157.342 101 157.342Z" fill="#F5F5F5"/>
<path d="M132.177 147.108C132.234 146.995 132.261 146.872 132.256 146.748C132.25 146.624 132.212 146.503 132.145 146.395C132.078 146.287 131.983 146.195 131.869 146.127C131.755 146.059 131.625 146.017 131.49 146.004C131.612 145.68 131.622 145.33 131.518 145C131.414 144.671 131.201 144.379 130.908 144.164C130.839 144.106 130.751 144.07 130.658 144.061C130.557 144.07 130.462 144.109 130.387 144.171L128.771 145.216C128.643 145.289 128.535 145.387 128.456 145.503C128.129 146.081 129.304 146.821 128.82 147.296C128.682 147.432 128.46 147.461 128.286 147.561C127.902 147.778 127.858 148.252 127.68 148.628C127.502 149.003 126.872 149.298 126.646 148.948C126.82 148.58 126.295 148.278 125.862 148.234C125.43 148.19 124.986 148.164 124.747 147.8C124.137 148.282 122.772 146.928 122.804 146.383C122.563 146.423 122.342 146.53 122.171 146.689C122 146.849 121.888 147.053 121.851 147.274C121.78 147.724 121.763 148.181 121.798 148.635C121.798 149.518 121.471 150.383 121.487 151.266C121.487 151.955 121.794 152.72 122.485 152.996C122.829 153.107 123.195 153.152 123.559 153.128L131.433 153.081C131.622 153.093 131.812 153.066 131.987 153C132.342 152.83 132.415 152.403 132.447 152.039L132.872 147.366L132.177 147.108Z" fill="#208667"/>
<path opacity="0.3" d="M132.177 147.108C132.234 146.995 132.261 146.872 132.256 146.748C132.25 146.624 132.212 146.503 132.145 146.395C132.078 146.287 131.983 146.195 131.869 146.127C131.755 146.059 131.625 146.017 131.49 146.004C131.612 145.68 131.622 145.33 131.518 145C131.414 144.671 131.201 144.379 130.908 144.164C130.839 144.106 130.751 144.07 130.658 144.061C130.557 144.07 130.462 144.109 130.387 144.171L128.771 145.216C128.643 145.289 128.535 145.387 128.456 145.503C128.129 146.081 129.304 146.821 128.82 147.296C128.682 147.432 128.46 147.461 128.286 147.561C127.902 147.778 127.858 148.252 127.68 148.628C127.502 149.003 126.872 149.298 126.646 148.948C126.82 148.58 126.295 148.278 125.862 148.234C125.43 148.19 124.986 148.164 124.747 147.8C124.137 148.282 122.772 146.928 122.804 146.383C122.563 146.423 122.342 146.53 122.171 146.689C122 146.849 121.888 147.053 121.851 147.274C121.78 147.724 121.763 148.181 121.798 148.635C121.798 149.518 121.471 150.383 121.487 151.266C121.487 151.955 121.794 152.72 122.485 152.996C122.829 153.107 123.195 153.152 123.559 153.128L131.433 153.081C131.622 153.093 131.812 153.066 131.987 153C132.342 152.83 132.415 152.403 132.447 152.039L132.872 147.366L132.177 147.108Z" fill="white"/>
<path d="M132.633 139.527H120.416L120.517 140.653L120.59 141.455L120.776 143.542L120.881 144.745L121.022 146.342L121.083 147.027L121.103 147.229L121.176 148.035L121.272 149.139L121.333 149.824L121.394 150.519L121.466 151.325L121.523 151.936L121.584 152.621L121.608 152.919H132.819L132.847 152.621L132.908 151.936L132.96 151.322L133.033 150.516L133.098 149.824L133.158 149.139L133.255 148.035L133.328 147.233V147.031L133.388 146.346L133.53 144.749L133.639 143.549L133.821 141.459L133.893 140.657L133.994 139.531L132.633 139.527ZM133.368 140.263L133.134 140.05H133.388L133.368 140.263ZM133.32 140.944L133.3 141.216L132.205 142.21L130.948 141.069L132.071 140.046H132.338L133.32 140.944ZM133.005 144.506L132.197 145.242L130.94 144.098L132.197 142.961L133.061 143.748L133.005 144.506ZM121.378 143.741L122.246 142.953L123.499 144.09L122.246 145.235L121.438 144.499L121.378 143.741ZM131.801 142.582L130.544 143.722L129.292 142.582L130.544 141.437L131.801 142.582ZM129.829 140.046H131.263L130.544 140.701L129.829 140.046ZM130.136 144.094L128.884 145.238L127.631 144.094L128.884 142.957L130.136 144.094ZM125.971 145.606L127.227 144.466L128.48 145.606L127.227 146.751L125.971 145.606ZM126.819 147.119L125.563 148.26L124.315 147.119L125.567 145.978L126.819 147.119ZM128.884 145.978L130.136 147.119L128.884 148.26L127.631 147.119L128.884 145.978ZM127.227 143.726L125.971 142.585L127.227 141.441L128.48 142.585L127.227 143.726ZM126.823 144.094L125.571 145.238L124.319 144.094L125.571 142.957L126.823 144.094ZM123.911 143.726L122.658 142.585L123.911 141.441L125.163 142.585L123.911 143.726ZM123.911 144.462L125.163 145.603L123.911 146.747L122.658 145.603L123.911 144.462ZM125.163 148.628L123.911 149.769L122.658 148.628L123.911 147.487L125.163 148.628ZM125.567 148.996L126.823 150.14L125.571 151.281L124.319 150.14L125.567 148.996ZM125.971 148.628L127.227 147.487L128.48 148.628L127.227 149.769L125.971 148.628ZM128.884 148.996L130.136 150.14L128.884 151.281L127.631 150.14L128.884 148.996ZM130.532 150.512L131.789 151.656L130.981 152.392H130.088L129.28 151.656L130.532 150.512ZM129.28 148.631L130.532 147.491L131.789 148.631L130.532 149.776L129.28 148.631ZM129.28 145.606L130.532 144.466L131.789 145.606L130.532 146.751L129.28 145.606ZM130.124 141.073L128.872 142.214L127.619 141.073L128.742 140.05H129.005L130.124 141.073ZM127.215 140.705L126.496 140.05H127.93L127.215 140.705ZM126.811 141.073L125.559 142.214L124.307 141.073L125.426 140.05H125.692L126.811 141.073ZM124.614 140.05L123.898 140.705L123.183 140.05H124.614ZM122.371 140.05L123.49 141.073L122.238 142.214L121.147 141.22L121.123 140.948L122.105 140.05H122.371ZM121.297 140.05L121.062 140.263V140.05H121.297ZM121.22 142.026L121.834 142.585L121.309 143.06L121.22 142.026ZM121.559 145.857L121.511 145.316L121.834 145.61L121.559 145.86V145.857ZM121.62 146.541L122.238 145.978L123.49 147.119L122.238 148.26L121.733 147.8L121.62 146.541ZM121.806 148.657V148.606L121.834 148.631L121.806 148.657ZM122.024 151.09L121.866 149.338L122.238 148.999L123.49 150.144L122.238 151.285L122.024 151.09ZM122.141 152.396L122.117 152.135L122.238 152.024L122.642 152.392L122.141 152.396ZM122.646 151.66L123.898 150.516L125.151 151.66L124.343 152.396H123.458L122.646 151.66ZM125.151 152.396L125.555 152.028L125.959 152.396H125.151ZM126.767 152.396L125.959 151.66L127.215 150.516L128.468 151.66L127.66 152.396H126.767ZM128.464 152.396L128.868 152.028L129.272 152.396H128.464ZM132.286 152.396H131.785L132.189 152.028L132.31 152.138L132.286 152.396ZM132.403 151.09L132.189 151.285L130.936 150.144L132.193 148.999L132.564 149.338L132.403 151.09ZM132.625 148.602V148.657L132.601 148.631L132.633 148.602H132.625ZM132.698 147.8L132.189 148.26L130.932 147.119L132.189 145.978L132.807 146.541L132.698 147.8ZM132.867 145.857L132.593 145.606L132.916 145.316L132.867 145.857ZM133.211 142.022L133.118 143.064L132.593 142.585L133.211 142.022Z" fill="#208667"/>
<g opacity="0.6">
<path d="M132.633 139.527H120.416L120.517 140.653L120.59 141.455L120.776 143.542L120.881 144.745L121.022 146.342L121.083 147.027L121.103 147.229L121.176 148.035L121.272 149.139L121.333 149.824L121.394 150.519L121.466 151.325L121.523 151.936L121.584 152.621L121.608 152.919H132.819L132.847 152.621L132.908 151.936L132.96 151.322L133.033 150.516L133.098 149.824L133.158 149.139L133.255 148.035L133.328 147.233V147.031L133.388 146.346L133.53 144.749L133.639 143.549L133.821 141.459L133.893 140.657L133.994 139.531L132.633 139.527ZM133.368 140.263L133.134 140.05H133.388L133.368 140.263ZM133.32 140.944L133.3 141.216L132.205 142.21L130.948 141.069L132.071 140.046H132.338L133.32 140.944ZM133.005 144.506L132.197 145.242L130.94 144.098L132.197 142.961L133.061 143.748L133.005 144.506ZM121.378 143.741L122.246 142.953L123.499 144.09L122.246 145.235L121.438 144.499L121.378 143.741ZM131.801 142.582L130.544 143.722L129.292 142.582L130.544 141.437L131.801 142.582ZM129.829 140.046H131.263L130.544 140.701L129.829 140.046ZM130.136 144.094L128.884 145.238L127.631 144.094L128.884 142.957L130.136 144.094ZM125.971 145.606L127.227 144.466L128.48 145.606L127.227 146.751L125.971 145.606ZM126.819 147.119L125.563 148.26L124.315 147.119L125.567 145.978L126.819 147.119ZM128.884 145.978L130.136 147.119L128.884 148.26L127.631 147.119L128.884 145.978ZM127.227 143.726L125.971 142.585L127.227 141.441L128.48 142.585L127.227 143.726ZM126.823 144.094L125.571 145.238L124.319 144.094L125.571 142.957L126.823 144.094ZM123.911 143.726L122.658 142.585L123.911 141.441L125.163 142.585L123.911 143.726ZM123.911 144.462L125.163 145.603L123.911 146.747L122.658 145.603L123.911 144.462ZM125.163 148.628L123.911 149.769L122.658 148.628L123.911 147.487L125.163 148.628ZM125.567 148.996L126.823 150.14L125.571 151.281L124.319 150.14L125.567 148.996ZM125.971 148.628L127.227 147.487L128.48 148.628L127.227 149.769L125.971 148.628ZM128.884 148.996L130.136 150.14L128.884 151.281L127.631 150.14L128.884 148.996ZM130.532 150.512L131.789 151.656L130.981 152.392H130.088L129.28 151.656L130.532 150.512ZM129.28 148.631L130.532 147.491L131.789 148.631L130.532 149.776L129.28 148.631ZM129.28 145.606L130.532 144.466L131.789 145.606L130.532 146.751L129.28 145.606ZM130.124 141.073L128.872 142.214L127.619 141.073L128.742 140.05H129.005L130.124 141.073ZM127.215 140.705L126.496 140.05H127.93L127.215 140.705ZM126.811 141.073L125.559 142.214L124.307 141.073L125.426 140.05H125.692L126.811 141.073ZM124.614 140.05L123.898 140.705L123.183 140.05H124.614ZM122.371 140.05L123.49 141.073L122.238 142.214L121.147 141.22L121.123 140.948L122.105 140.05H122.371ZM121.297 140.05L121.062 140.263V140.05H121.297ZM121.22 142.026L121.834 142.585L121.309 143.06L121.22 142.026ZM121.559 145.857L121.511 145.316L121.834 145.61L121.559 145.86V145.857ZM121.62 146.541L122.238 145.978L123.49 147.119L122.238 148.26L121.733 147.8L121.62 146.541ZM121.806 148.657V148.606L121.834 148.631L121.806 148.657ZM122.024 151.09L121.866 149.338L122.238 148.999L123.49 150.144L122.238 151.285L122.024 151.09ZM122.141 152.396L122.117 152.135L122.238 152.024L122.642 152.392L122.141 152.396ZM122.646 151.66L123.898 150.516L125.151 151.66L124.343 152.396H123.458L122.646 151.66ZM125.151 152.396L125.555 152.028L125.959 152.396H125.151ZM126.767 152.396L125.959 151.66L127.215 150.516L128.468 151.66L127.66 152.396H126.767ZM128.464 152.396L128.868 152.028L129.272 152.396H128.464ZM132.286 152.396H131.785L132.189 152.028L132.31 152.138L132.286 152.396ZM132.403 151.09L132.189 151.285L130.936 150.144L132.193 148.999L132.564 149.338L132.403 151.09ZM132.625 148.602V148.657L132.601 148.631L132.633 148.602H132.625ZM132.698 147.8L132.189 148.26L130.932 147.119L132.189 145.978L132.807 146.541L132.698 147.8ZM132.867 145.857L132.593 145.606L132.916 145.316L132.867 145.857ZM133.211 142.022L133.118 143.064L132.593 142.585L133.211 142.022Z" fill="white"/>
</g>
<path d="M120.295 140.517H134.128C134.494 140.517 134.791 140.247 134.791 139.914V139.663C134.791 139.33 134.494 139.06 134.128 139.06H120.295C119.929 139.06 119.632 139.33 119.632 139.663V139.914C119.632 140.247 119.929 140.517 120.295 140.517Z" fill="#208667"/>
<path d="M133.037 152.135H121.39C121.024 152.135 120.727 152.405 120.727 152.738V152.989C120.727 153.322 121.024 153.592 121.39 153.592H133.037C133.403 153.592 133.699 153.322 133.699 152.989V152.738C133.699 152.405 133.403 152.135 133.037 152.135Z" fill="#208667"/>
<path d="M173.486 34.4116H73.2696C72.3481 34.4116 71.6011 35.0921 71.6011 35.9315V101.785C71.6011 102.624 72.3481 103.305 73.2696 103.305H173.486C174.407 103.305 175.154 102.624 175.154 101.785V35.9315C175.154 35.0921 174.407 34.4116 173.486 34.4116Z" fill="#208667"/>
<path opacity="0.4" d="M175.154 38.1357H71.6011V100.32H175.154V38.1357Z" fill="black"/>
<path d="M172.73 37.1127C173.268 37.1127 173.704 36.7157 173.704 36.2259C173.704 35.7361 173.268 35.339 172.73 35.339C172.193 35.339 171.757 35.7361 171.757 36.2259C171.757 36.7157 172.193 37.1127 172.73 37.1127Z" fill="white"/>
<path d="M169.446 37.1127C169.984 37.1127 170.419 36.7157 170.419 36.2259C170.419 35.7361 169.984 35.339 169.446 35.339C168.908 35.339 168.472 35.7361 168.472 36.2259C168.472 36.7157 168.908 37.1127 169.446 37.1127Z" fill="white"/>
<path d="M166.161 37.1127C166.699 37.1127 167.135 36.7157 167.135 36.2259C167.135 35.7361 166.699 35.339 166.161 35.339C165.623 35.339 165.188 35.7361 165.188 36.2259C165.188 36.7157 165.623 37.1127 166.161 37.1127Z" fill="white"/>
<path d="M105.634 70.4535H71.9849V97.3101H105.634V70.4535Z" fill="#263238"/>
<path d="M105.634 43.0044H71.9849V69.861H105.634V43.0044Z" fill="#263238"/>
<path d="M140.055 43.0044H106.406V69.861H140.055V43.0044Z" fill="#208667"/>
<path d="M174.48 43.0044H140.831V69.861H174.48V43.0044Z" fill="white"/>
<path d="M140.055 70.4535H106.406V97.3101H140.055V70.4535Z" fill="#263238"/>
<path d="M174.48 70.4535H140.831V97.3101H174.48V70.4535Z" fill="#208667"/>
<path opacity="0.3" d="M140.055 70.4535H106.406V97.3101H140.055V70.4535Z" fill="white"/>
<path opacity="0.6" d="M174.48 70.4535H140.831V97.3101H174.48V70.4535Z" fill="white"/>
<path opacity="0.5" d="M105.634 70.4535H71.9849V97.3101H105.634V70.4535Z" fill="white"/>
<path d="M89.2722 74.8217L85.8947 77.9018H85.1958V74.8217H89.2722Z" fill="white"/>
<path d="M89.9789 75.7417V77.9019H87.6074L89.9789 75.7417Z" fill="white"/>
<path d="M91.684 77.6038L90.4033 77.2358V75.5356L91.684 75.1676V77.6038Z" fill="white"/>
<path d="M88.4399 80.7244C87.3313 80.7247 86.2568 80.3747 85.3997 79.7341C84.5426 79.0936 83.9559 78.2021 83.7396 77.2117C83.5232 76.2212 83.6907 75.1931 84.2133 74.3024C84.736 73.4118 85.5815 72.7139 86.6058 72.3275C87.6301 71.9412 88.7698 71.8903 89.8307 72.1837C90.8915 72.477 91.8079 73.0964 92.4236 73.9362C93.0393 74.776 93.3162 75.7843 93.2071 76.7893C93.098 77.7943 92.6098 78.7337 91.8255 79.4475C91.3818 79.8535 90.8541 80.1755 90.273 80.3947C89.6919 80.6138 89.0689 80.7259 88.4399 80.7244ZM88.4399 72.3672C87.7181 72.3667 87.0072 72.5284 86.3704 72.8381C85.7336 73.1477 85.1905 73.5958 84.7892 74.1424C84.388 74.689 84.1411 75.3174 84.0703 75.9718C83.9995 76.6262 84.1071 77.2864 84.3835 77.8938C84.6599 78.5013 85.0965 79.0372 85.6548 79.4541C86.213 79.871 86.8755 80.156 87.5837 80.2839C88.2918 80.4117 89.0236 80.3784 89.7142 80.1869C90.4048 79.9955 91.0328 79.6517 91.5427 79.1862C92.155 78.6271 92.5718 77.9153 92.7403 77.1406C92.9089 76.3659 92.8216 75.563 92.4897 74.8335C92.1577 74.1039 91.5959 73.4803 90.8751 73.0413C90.1544 72.6024 89.307 72.3678 88.4399 72.3672Z" fill="white"/>
<path d="M91.5413 73.2797L85.0537 79.1892L85.3394 79.4494L91.827 73.5399L91.5413 73.2797Z" fill="white"/>
<path d="M33.8352 146.39L43.8463 145.496V132.679H47.8136V145.492L57.8691 146.39C58.351 146.434 58.7977 146.64 59.1225 146.967C59.4473 147.294 59.6269 147.719 59.6265 148.16V149.529H32.0737V148.16C32.0743 147.719 32.2549 147.294 32.5803 146.967C32.9058 146.639 33.353 146.434 33.8352 146.39Z" fill="#263238"/>
<path opacity="0.3" d="M33.8352 146.39L43.8463 145.496V132.679H47.8136V145.492L57.8691 146.39C58.351 146.434 58.7977 146.64 59.1225 146.967C59.4473 147.294 59.6269 147.719 59.6265 148.16V149.529H32.0737V148.16C32.0743 147.719 32.2549 147.294 32.5803 146.967C32.9058 146.639 33.353 146.434 33.8352 146.39Z" fill="white"/>
<path d="M55.9741 151.226C55.9741 151.693 56.1262 152.15 56.4112 152.538C56.6962 152.927 57.1013 153.23 57.5752 153.409C58.0492 153.587 58.5707 153.634 59.0738 153.543C59.5769 153.452 60.0391 153.227 60.4018 152.896C60.7645 152.566 61.0116 152.145 61.1116 151.687C61.2117 151.228 61.1604 150.753 60.964 150.322C60.7677 149.89 60.4353 149.521 60.0088 149.261C59.5822 149.002 59.0808 148.863 58.5678 148.863C57.8799 148.863 57.2202 149.112 56.7338 149.555C56.2474 149.998 55.9741 150.599 55.9741 151.226Z" fill="#208667"/>
<path d="M35.7296 151.226C35.7304 151.694 35.5788 152.152 35.2941 152.541C35.0093 152.931 34.6041 153.234 34.1297 153.414C33.6554 153.594 33.1331 153.642 32.6291 153.551C32.125 153.46 31.6618 153.236 31.2979 152.905C30.934 152.575 30.6859 152.154 30.5849 151.695C30.4839 151.236 30.5345 150.76 30.7304 150.327C30.9263 149.895 31.2586 149.525 31.6853 149.264C32.1121 149.004 32.6141 148.864 33.1279 148.863C33.469 148.863 33.8069 148.924 34.1223 149.042C34.4376 149.16 34.7243 149.334 34.9659 149.554C35.2075 149.773 35.3993 150.034 35.5303 150.321C35.6614 150.608 35.7291 150.915 35.7296 151.226Z" fill="#208667"/>
<path d="M46.8194 135.431H44.8236C44.3811 135.431 43.9567 135.271 43.6438 134.986C43.3309 134.701 43.1551 134.315 43.1551 133.912V124.023H48.5V133.912C48.5 134.112 48.4564 134.311 48.3718 134.496C48.2872 134.681 48.1632 134.849 48.007 134.99C47.8508 135.131 47.6654 135.243 47.4616 135.319C47.2578 135.395 47.0395 135.433 46.8194 135.431Z" fill="#263238"/>
<path opacity="0.5" d="M46.8194 135.431H44.8236C44.3811 135.431 43.9567 135.271 43.6438 134.986C43.3309 134.701 43.1551 134.315 43.1551 133.912V124.023H48.5V133.912C48.5 134.112 48.4564 134.311 48.3718 134.496C48.2872 134.681 48.1632 134.849 48.007 134.99C47.8508 135.131 47.6654 135.243 47.4616 135.319C47.2578 135.395 47.0395 135.433 46.8194 135.431Z" fill="white"/>
<path d="M36.3598 103.978C36.3598 103.978 35.5881 121.072 40.8038 124.016H34.8488C34.8488 124.016 30.227 118.194 31.532 103.978H36.3598Z" fill="#263238"/>
<path opacity="0.5" d="M36.3598 103.978C36.3598 103.978 35.5881 121.072 40.8038 124.016H34.8488C34.8488 124.016 30.227 118.194 31.532 103.978H36.3598Z" fill="white"/>
<path d="M34.8369 121.624H57.5296C58.0653 121.624 58.5791 121.818 58.9579 122.163C59.3368 122.508 59.5496 122.976 59.5496 123.464V125.326H32.8169V123.464C32.8169 122.976 33.0297 122.508 33.4085 122.163C33.7874 121.818 34.3012 121.624 34.8369 121.624Z" fill="#208667"/>
<path d="M59.8483 123.475H32.5137C32.0652 123.475 31.7017 123.806 31.7017 124.215V124.586C31.7017 124.995 32.0652 125.326 32.5137 125.326H59.8483C60.2968 125.326 60.6604 124.995 60.6604 124.586V124.215C60.6604 123.806 60.2968 123.475 59.8483 123.475Z" fill="#208667"/>
<path opacity="0.6" d="M59.8483 123.475H32.5137C32.0652 123.475 31.7017 123.806 31.7017 124.215V124.586C31.7017 124.995 32.0652 125.326 32.5137 125.326H59.8483C60.2968 125.326 60.6604 124.995 60.6604 124.586V124.215C60.6604 123.806 60.2968 123.475 59.8483 123.475Z" fill="white"/>
<path d="M30.8898 107.452H38.8001C42.0532 107.452 44.6904 105.05 44.6904 102.087V100.181C44.6904 97.2173 42.0532 94.8152 38.8001 94.8152H30.8898C27.6367 94.8152 24.9995 97.2173 24.9995 100.181V102.087C24.9995 105.05 27.6367 107.452 30.8898 107.452Z" fill="#208667"/>
<path d="M89.0576 153.592H91.1867L95.0126 105.079H92.1886L89.0576 153.592Z" fill="#263238"/>
<path opacity="0.7" d="M89.0576 153.592H91.1867L94.8267 107.489L95.0126 105.16H92.1886L92.0351 107.489L89.0576 153.592Z" fill="white"/>
<path opacity="0.2" d="M92.0352 107.375H94.8268L95.0126 105.16H92.1887L92.0352 107.375Z" fill="black"/>
<path d="M73.4348 153.592H75.5639L75.9114 105.079H73.0874L73.4348 153.592Z" fill="#263238"/>
<path opacity="0.7" d="M73.0835 105.16L73.1401 112.983L73.4309 153.592H75.5641L75.8549 112.983L75.9115 105.16H73.0835Z" fill="white"/>
<path opacity="0.2" d="M73.0835 105.16L73.1401 113.072H75.8549L75.9115 105.16H73.0835Z" fill="black"/>
<path d="M50.8311 153.592H52.9601L56.786 105.079H53.9621L50.8311 153.592Z" fill="#263238"/>
<path opacity="0.7" d="M50.8311 153.592H52.9601L56.6002 107.489L56.786 105.16H53.9621L53.8085 107.489L50.8311 153.592Z" fill="white"/>
<path opacity="0.2" d="M53.8086 107.375H56.6002L56.7861 105.16H53.9621L53.8086 107.375Z" fill="black"/>
<path d="M113.415 153.592H115.544L112.413 105.079H109.589L113.415 153.592Z" fill="#263238"/>
<path opacity="0.7" d="M109.589 105.16L109.775 107.489L113.415 153.592H115.54L112.566 107.489L112.413 105.16H109.589Z" fill="white"/>
<path opacity="0.2" d="M112.413 105.16H109.589L109.775 107.375H112.566L112.413 105.16Z" fill="black"/>
<path d="M113.778 106.297H52.5966C52.3651 106.297 52.1432 106.213 51.9795 106.064C51.8159 105.915 51.7239 105.713 51.7239 105.502V103.868H114.663V105.502C114.663 105.607 114.64 105.712 114.596 105.809C114.551 105.906 114.486 105.994 114.403 106.068C114.321 106.142 114.223 106.2 114.116 106.239C114.009 106.279 113.894 106.298 113.778 106.297Z" fill="#208667"/>
<path opacity="0.6" d="M113.778 106.297H52.5966C52.3651 106.297 52.1432 106.213 51.9795 106.064C51.8159 105.915 51.7239 105.713 51.7239 105.502V103.868H114.663V105.502C114.663 105.607 114.64 105.712 114.596 105.809C114.551 105.906 114.486 105.994 114.403 106.068C114.321 106.142 114.223 106.2 114.116 106.239C114.009 106.279 113.894 106.298 113.778 106.297Z" fill="white"/>
<path opacity="0.2" d="M51.7237 105.082H114.655V103.868H51.7237V105.082Z" fill="black"/>
<path d="M50.4028 104.181H115.972C116.171 104.181 116.362 104.109 116.503 103.98C116.644 103.852 116.723 103.678 116.723 103.496C116.722 103.315 116.643 103.142 116.502 103.013C116.361 102.885 116.171 102.813 115.972 102.812H50.4028C50.2035 102.812 50.0124 102.884 49.8715 103.012C49.7305 103.141 49.6514 103.315 49.6514 103.496C49.6514 103.678 49.7305 103.852 49.8715 103.98C50.0124 104.109 50.2035 104.181 50.4028 104.181Z" fill="#208667"/>
<path opacity="0.6" d="M50.4028 104.181H115.972C116.171 104.181 116.362 104.109 116.503 103.98C116.644 103.852 116.723 103.678 116.723 103.496C116.722 103.315 116.643 103.142 116.502 103.013C116.361 102.885 116.171 102.813 115.972 102.812H50.4028C50.2035 102.812 50.0124 102.884 49.8715 103.012C49.7305 103.141 49.6514 103.315 49.6514 103.496C49.6514 103.678 49.7305 103.852 49.8715 103.98C50.0124 104.109 50.2035 104.181 50.4028 104.181Z" fill="white"/>
<path d="M89.0818 102.812L88.7384 101.634H74.6469L68.1587 102.223L67.9082 102.812H89.0818Z" fill="#263238"/>
<path opacity="0.4" d="M74.647 101.634V102.812H89.0819L88.7385 101.634H74.647Z" fill="black"/>
<path d="M77.4788 95.9818C77.4597 96.125 77.4745 96.2702 77.5223 96.4077C77.5701 96.5452 77.6497 96.6718 77.7558 96.7789C77.8619 96.886 77.9919 96.9711 78.1372 97.0285C78.2825 97.0858 78.4396 97.1142 78.5979 97.1116H100.192C100.529 97.1053 100.853 96.9871 101.102 96.7792C101.351 96.5713 101.509 96.2878 101.545 95.9818L102.826 83.3925C102.843 83.2496 102.828 83.1048 102.779 82.9678C102.731 82.8309 102.651 82.7048 102.546 82.598C102.44 82.4912 102.31 82.406 102.166 82.3482C102.021 82.2905 101.865 82.2613 101.707 82.2627H80.1129C79.7745 82.2674 79.4499 82.3851 79.2004 82.5933C78.9509 82.8015 78.7941 83.0859 78.7595 83.3925L77.4788 95.9818Z" fill="#263238"/>
<path opacity="0.4" d="M78.6709 97.1116H100.192C100.53 97.1053 100.854 96.9872 101.103 96.7792C101.352 96.5713 101.509 96.2878 101.545 95.9818L102.826 83.3925C102.842 83.2693 102.832 83.1446 102.798 83.0245H81.2808C80.943 83.0308 80.6192 83.149 80.3701 83.3569C80.121 83.5648 79.9636 83.8483 79.9274 84.1543L78.6467 96.7436C78.6321 96.8666 78.6403 96.991 78.6709 97.1116Z" fill="black"/>
<path d="M93.5054 89.3909H89.0371L90.2289 101.038L83.167 102.002V102.812H98.0382V102.002L94.9921 101.038L93.5054 89.3909Z" fill="#263238"/>
<path opacity="0.1" d="M89.0371 89.3909L92.3459 102.628L94.9921 102.558L93.5053 89.3909H89.0371Z" fill="white"/>
<path d="M91.4211 81.4053H90.5605V82.7706H91.4211V81.4053Z" fill="#263238"/>
<path d="M90.5604 81.3538H89.5221C89.4164 81.161 89.3651 80.9473 89.3727 80.7319C89.3612 80.5174 89.4128 80.3039 89.5221 80.1136H90.5604V81.3538Z" fill="#263238"/>
<path d="M92.3339 80.6804C92.3339 80.906 92.2605 81.1265 92.1228 81.3142C91.9852 81.5018 91.7896 81.648 91.5608 81.7343C91.3319 81.8207 91.0801 81.8433 90.8372 81.7992C90.5942 81.7552 90.3711 81.6466 90.1959 81.487C90.0208 81.3275 89.9015 81.1242 89.8532 80.9029C89.8048 80.6816 89.8296 80.4522 89.9244 80.2438C90.0192 80.0353 90.1798 79.8572 90.3857 79.7318C90.5917 79.6065 90.8338 79.5396 91.0815 79.5396C91.2461 79.5391 91.4092 79.5682 91.5614 79.6254C91.7136 79.6826 91.8519 79.7666 91.9683 79.8726C92.0847 79.9786 92.1769 80.1046 92.2397 80.2432C92.3024 80.3818 92.3344 80.5304 92.3339 80.6804Z" fill="#263238"/>
<path opacity="0.1" d="M92.3339 80.6804C92.3339 80.906 92.2605 81.1265 92.1228 81.3142C91.9852 81.5018 91.7896 81.648 91.5608 81.7343C91.3319 81.8207 91.0801 81.8433 90.8372 81.7992C90.5942 81.7552 90.3711 81.6466 90.1959 81.487C90.0208 81.3275 89.9015 81.1242 89.8532 80.9029C89.8048 80.6816 89.8296 80.4522 89.9244 80.2438C90.0192 80.0353 90.1798 79.8572 90.3857 79.7318C90.5917 79.6065 90.8338 79.5396 91.0815 79.5396C91.2461 79.5391 91.4092 79.5682 91.5614 79.6254C91.7136 79.6826 91.8519 79.7666 91.9683 79.8726C92.0847 79.9786 92.1769 80.1046 92.2397 80.2432C92.3024 80.3818 92.3344 80.5304 92.3339 80.6804Z" fill="white"/>
<path d="M106.345 94.0203V102.812H101.533C101.566 99.7576 102.038 96.7204 102.935 93.7775C102.993 93.5899 103.117 93.4247 103.288 93.3071C103.458 93.1896 103.666 93.126 103.88 93.1261H105.363C105.492 93.1261 105.62 93.1492 105.739 93.1942C105.858 93.2391 105.966 93.305 106.057 93.388C106.148 93.4711 106.221 93.5696 106.27 93.6781C106.319 93.7866 106.345 93.9029 106.345 94.0203Z" fill="#263238"/>
<path opacity="0.4" d="M106.345 94.0203V102.812H103.921V94.3478C103.921 94.0248 104.062 93.715 104.313 93.4865C104.563 93.2581 104.903 93.1298 105.258 93.1298H105.347C105.477 93.1278 105.606 93.1494 105.727 93.1932C105.847 93.237 105.957 93.3023 106.05 93.3851C106.143 93.468 106.217 93.5668 106.267 93.6758C106.318 93.7848 106.344 93.9019 106.345 94.0203Z" fill="black"/>
<path d="M75.6407 94.0203V102.812H70.8291C70.8622 99.7576 71.3335 96.7204 72.231 93.7775C72.2891 93.5899 72.4129 93.4247 72.5836 93.3071C72.7542 93.1896 72.9624 93.126 73.1763 93.1261H74.659C74.7879 93.1261 74.9156 93.1492 75.0347 93.1942C75.1538 93.2391 75.262 93.305 75.3532 93.388C75.4444 93.4711 75.5167 93.5696 75.566 93.6781C75.6153 93.7866 75.6407 93.9029 75.6407 94.0203Z" fill="#263238"/>
<path opacity="0.4" d="M75.6408 94.0203V102.812H73.2168V94.3478C73.2168 94.0248 73.3577 93.715 73.6085 93.4865C73.8592 93.2581 74.1994 93.1298 74.554 93.1298H74.6429C74.7729 93.1278 74.9019 93.1494 75.0226 93.1932C75.1433 93.237 75.2533 93.3023 75.3461 93.3851C75.439 93.468 75.5128 93.5668 75.5634 93.6758C75.614 93.7848 75.6403 93.9019 75.6408 94.0203Z" fill="black"/>
</svg>
