<svg width="202" height="184" viewBox="0 0 202 184" fill="none" xmlns="http://www.w3.org/2000/svg">
<path d="M31.3746 91.8491C-7.07808 112.089 -7.07403 144.841 31.3746 165.081C69.8233 185.321 132.169 185.303 170.621 165.081C209.074 144.86 209.07 112.089 170.621 91.8491C132.173 71.6091 69.8274 71.6275 31.3746 91.8491Z" fill="#FAFAFA"/>
<path d="M152.554 89.2437L173.421 78.4613C173.522 78.4316 173.61 78.3736 173.672 78.2956C173.734 78.2175 173.768 78.1235 173.768 78.027C173.768 77.9305 173.734 77.8365 173.672 77.7585C173.61 77.6804 173.522 77.6224 173.421 77.5928L156.752 68.6725C156.496 68.5544 156.213 68.4929 155.926 68.4929C155.639 68.4929 155.356 68.5544 155.1 68.6725L134.233 79.4549C134.134 79.4863 134.048 79.545 133.988 79.6228C133.927 79.7006 133.895 79.7937 133.895 79.8891C133.895 79.9845 133.927 80.0776 133.988 80.1554C134.048 80.2332 134.134 80.2919 134.233 80.3233L150.926 89.2437C151.179 89.3581 151.458 89.4177 151.74 89.4177C152.023 89.4177 152.301 89.3581 152.554 89.2437Z" fill="#E0E0E0"/>
<path d="M141.743 166.336L120.796 155.296C119.483 154.604 119.483 153.456 120.82 152.76L133.809 145.941C134.56 145.594 135.39 145.413 136.233 145.413C137.075 145.413 137.905 145.594 138.657 145.941L159.58 156.915C160.917 157.618 160.917 158.755 159.58 159.465L146.619 166.336C145.864 166.687 145.029 166.87 144.181 166.87C143.334 166.87 142.498 166.687 141.743 166.336Z" fill="#E0E0E0"/>
<path d="M172.783 149.927L151.775 138.942C150.458 138.25 150.458 137.102 151.799 136.406L164.832 129.558C165.583 129.21 166.414 129.028 167.256 129.028C168.099 129.028 168.929 129.21 169.68 129.558L190.607 140.517C191.945 141.22 191.945 142.357 190.607 143.067L177.643 149.938C176.889 150.285 176.056 150.465 175.211 150.463C174.367 150.461 173.535 150.277 172.783 149.927Z" fill="#E0E0E0"/>
<path d="M22.0459 129.061L73.6852 156.216C74.392 156.542 75.1733 156.713 75.9658 156.713C76.7583 156.713 77.5396 156.542 78.2464 156.216L161.555 112.424C162.816 111.762 162.816 110.687 161.555 110.025L109.916 82.8662C109.208 82.5397 108.426 82.3695 107.633 82.3695C106.84 82.3695 106.058 82.5397 105.351 82.8662L22.0459 126.658C20.7855 127.328 20.7855 128.395 22.0459 129.061Z" fill="#E0E0E0"/>
<path d="M88.8798 171.889L84.5449 167.399L51.8815 150.162L50.9644 149.677L49.4656 148.889L49.3606 148.834H49.3969L47.9546 148.079L42.0401 144.992C40.9008 144.282 39.2121 145.728 38.5334 147.171C38.434 147.389 38.3569 147.616 38.3031 147.848C38.1738 148.447 38.3031 148.992 38.7758 149.298L43.5834 151.818L44.8883 152.503L45.967 153.07L46.068 153.117L47.3123 153.772C47.3272 153.788 47.345 153.8 47.3648 153.809L48.4112 154.35L81.6321 171.882L87.9587 173.023L89.6798 173.332C89.7183 173.338 89.758 173.336 89.7958 173.327C89.8336 173.317 89.8685 173.3 89.8979 173.276C89.9429 173.234 89.968 173.177 89.968 173.118C89.968 173.059 89.9429 173.002 89.8979 172.96L88.8798 171.889Z" fill="#E0E0E0"/>
<path d="M28.6354 139.174C32.5865 141.275 32.5865 144.694 28.6354 146.784C24.6843 148.874 18.2768 148.885 14.3257 146.784C10.3746 144.683 10.3705 141.264 14.3257 139.174C18.2809 137.084 24.6843 137.073 28.6354 139.174Z" fill="#E0E0E0"/>
<path d="M23.1978 124.645C23.1978 125.819 24.1633 126.574 25.3551 127.199L74.1422 152.856C74.8102 153.165 75.5486 153.325 76.2975 153.325C77.0464 153.325 77.7848 153.165 78.4528 152.856L157.156 111.464C158.348 110.838 159.313 110.032 159.313 108.858C159.313 107.684 158.348 106.956 157.156 106.33L108.369 80.673C107.701 80.3646 106.963 80.2039 106.214 80.2039C105.465 80.2039 104.726 80.3646 104.058 80.673L25.3551 122.066C24.1633 122.691 23.1978 123.471 23.1978 124.645Z" fill="#37474F"/>
<path d="M25.3553 124.333L74.1423 149.99C74.8103 150.298 75.5487 150.459 76.2977 150.459C77.0466 150.459 77.785 150.298 78.453 149.99L157.156 108.597C158.348 107.971 158.348 106.956 157.156 106.33L108.369 80.673C107.701 80.3646 106.963 80.2039 106.214 80.2039C105.465 80.2039 104.727 80.3646 104.059 80.673L25.3553 122.066C24.1635 122.691 24.1635 123.707 25.3553 124.333Z" fill="#455A64"/>
<path d="M76.2995 150.464V153.324C75.5484 153.338 74.8057 153.177 74.1422 152.856L25.3551 127.199C24.1633 126.574 23.1978 125.819 23.1978 124.645C23.1978 123.541 24.0664 122.776 25.1854 122.154C24.2603 122.746 24.2441 123.747 25.3551 124.332L74.1422 149.989C74.805 150.313 75.5477 150.476 76.2995 150.464Z" fill="#263238"/>
<path d="M32.009 122.397L104.325 84.3604C104.638 84.217 104.984 84.1423 105.335 84.1423C105.686 84.1423 106.032 84.217 106.345 84.3604L108.979 85.7073C109.541 86.0017 109.541 86.4801 108.979 86.7782L36.6631 124.807C36.3497 124.951 36.0038 125.025 35.6531 125.025C35.3024 125.025 34.9565 124.951 34.6431 124.807L32.0171 123.468C31.4475 123.173 31.4475 122.695 32.009 122.397Z" fill="#263238"/>
<path d="M39.1153 126.224L111.431 88.1875C111.712 88.0421 112.026 87.9581 112.349 87.9421C112.671 87.9262 112.993 87.9787 113.29 88.0955L132.108 97.9874C132.573 98.2302 132.512 98.6682 131.934 98.9626L59.7031 136.948C59.4227 137.094 59.1088 137.178 58.7863 137.195C58.4638 137.211 58.1415 137.16 57.8447 137.043L38.9416 127.188C38.4729 126.96 38.5537 126.511 39.1153 126.224Z" fill="#263238"/>
<path d="M101.784 104.144L104.05 102.952C104.147 102.9 104.155 102.823 104.07 102.779L101.901 101.638C101.85 101.614 101.794 101.602 101.737 101.602C101.68 101.602 101.624 101.614 101.574 101.638L99.3073 102.83C99.2144 102.878 99.2023 102.955 99.3073 103.003L101.473 104.14C101.521 104.162 101.574 104.174 101.628 104.174C101.682 104.175 101.735 104.165 101.784 104.144ZM98.4791 100.022L96.2127 101.211C96.1197 101.263 96.1076 101.34 96.2127 101.384L98.3781 102.525C98.4287 102.548 98.4848 102.561 98.5417 102.561C98.5986 102.561 98.6547 102.548 98.7053 102.525L100.972 101.336C101.069 101.285 101.077 101.207 100.992 101.163L98.8225 100.022C98.7688 99.998 98.7092 99.9862 98.6493 99.9881C98.5893 99.99 98.5308 100.006 98.4791 100.033V100.022ZM91.1627 103.868L87.3287 105.885C87.2358 105.936 87.2237 106.013 87.3287 106.058L89.4941 107.198C89.5448 107.222 89.6009 107.234 89.6578 107.234C89.7146 107.234 89.7707 107.222 89.8214 107.198L93.6553 105.182C93.7523 105.13 93.7604 105.053 93.6755 105.009L91.5061 103.872C91.4527 103.847 91.3933 103.834 91.3333 103.836C91.2733 103.837 91.2147 103.852 91.1627 103.879V103.868ZM95.1703 101.763L92.9201 102.963C92.8231 103.014 92.815 103.091 92.8999 103.136L95.0693 104.276C95.12 104.3 95.1761 104.312 95.233 104.312C95.2898 104.312 95.3459 104.3 95.3966 104.276L97.659 103.088C97.7559 103.036 97.764 102.959 97.6792 102.915L95.5137 101.774C95.461 101.748 95.402 101.734 95.342 101.734C95.2821 101.734 95.223 101.748 95.1703 101.774V101.763ZM86.2823 106.433L84.0321 107.636C83.9351 107.688 83.927 107.765 84.0119 107.809L86.1813 108.95C86.232 108.974 86.2881 108.986 86.345 108.986C86.4018 108.986 86.4579 108.974 86.5086 108.95L88.775 107.758C88.8679 107.706 88.876 107.629 88.775 107.585L86.6096 106.448C86.5598 106.424 86.5046 106.412 86.4485 106.411C86.3923 106.41 86.3368 106.422 86.2864 106.444L86.2823 106.433ZM82.9695 108.174L80.7071 109.366C80.6102 109.417 80.6021 109.495 80.6869 109.539L82.8524 110.68C82.9037 110.703 82.9605 110.716 83.018 110.716C83.0756 110.716 83.1323 110.703 83.1837 110.68L85.4461 109.487C85.543 109.436 85.5511 109.359 85.4663 109.314L83.3049 108.192C83.2535 108.168 83.1968 108.156 83.1392 108.156C83.0817 108.156 83.0249 108.168 82.9736 108.192L82.9695 108.174ZM91.4535 112.825L93.72 111.633C93.8169 111.581 93.825 111.504 93.7402 111.46L91.5707 110.319C91.5197 110.297 91.4637 110.285 91.4071 110.285C91.3504 110.285 91.2945 110.297 91.2435 110.319L88.977 111.511C88.8841 111.563 88.872 111.64 88.977 111.684L91.1425 112.821C91.1913 112.847 91.246 112.861 91.3021 112.864C91.3583 112.866 91.4143 112.857 91.4657 112.836L91.4535 112.825ZM88.1448 114.566L90.4112 113.373C90.5041 113.322 90.5163 113.245 90.4112 113.2L88.2458 112.06C88.1951 112.036 88.139 112.024 88.0821 112.024C88.0253 112.024 87.9692 112.036 87.9185 112.06L85.6521 113.252C85.5551 113.303 85.5471 113.381 85.6319 113.425L87.8014 114.562C87.8541 114.592 87.9147 114.61 87.977 114.612C88.0393 114.615 88.1013 114.603 88.1569 114.577L88.1448 114.566ZM84.8401 116.317L87.1025 115.125C87.1994 115.074 87.2075 114.996 87.1025 114.952L84.937 113.811C84.8857 113.788 84.8289 113.775 84.7714 113.775C84.7138 113.775 84.6571 113.788 84.6057 113.811L82.3433 115.004C82.2464 115.055 82.2383 115.132 82.3433 115.177L84.5088 116.314C84.5598 116.338 84.6164 116.351 84.6739 116.351C84.7315 116.352 84.7884 116.34 84.8401 116.317ZM81.5313 118.058L83.7937 116.866C83.8907 116.814 83.8987 116.737 83.7937 116.693L81.6283 115.552C81.5769 115.528 81.5202 115.516 81.4626 115.516C81.4051 115.516 81.3483 115.528 81.297 115.552L79.0346 116.744C78.9376 116.796 78.9295 116.873 79.0346 116.917L81.2 118.054C81.2521 118.08 81.3101 118.093 81.3692 118.094C81.4283 118.095 81.4866 118.082 81.5394 118.058H81.5313ZM98.467 105.896L100.733 104.703C100.826 104.652 100.838 104.575 100.733 104.53L98.5761 103.408C98.5254 103.384 98.4693 103.372 98.4124 103.372C98.3555 103.372 98.2995 103.384 98.2488 103.408L95.9824 104.6C95.8854 104.648 95.8773 104.729 95.9622 104.773L98.1317 105.91C98.1857 105.934 98.2454 105.945 98.3054 105.943C98.3654 105.94 98.4237 105.924 98.4751 105.896H98.467ZM94.7704 111.096L99.8204 108.439C99.9173 108.387 99.9254 108.31 99.8406 108.266L94.5886 105.498C94.5379 105.475 94.4818 105.462 94.425 105.462C94.3681 105.462 94.312 105.475 94.2613 105.498L91.6475 106.871C91.5505 106.922 91.5424 107 91.6273 107.044L94.4149 108.516C94.4997 108.56 94.4916 108.637 94.3947 108.689L92.306 109.793C92.209 109.844 92.2009 109.922 92.2858 109.966L94.4512 111.103C94.5027 111.125 94.559 111.135 94.6158 111.134C94.6726 111.133 94.7282 111.12 94.7785 111.096H94.7704ZM79.6567 109.925L77.3943 111.118C77.2974 111.169 77.2893 111.246 77.3741 111.291L79.5396 112.431C79.5902 112.455 79.6463 112.467 79.7032 112.467C79.7601 112.467 79.8162 112.455 79.8668 112.431L82.1333 111.239C82.2302 111.187 82.2383 111.11 82.1535 111.066L79.9921 109.918C79.9406 109.896 79.8843 109.885 79.8275 109.887C79.7707 109.888 79.715 109.901 79.6648 109.925H79.6567ZM76.3561 111.666L74.0896 112.858C73.9967 112.91 73.9846 112.987 74.0896 113.031L76.2551 114.172C76.3057 114.196 76.3618 114.208 76.4187 114.208C76.4756 114.208 76.5316 114.196 76.5823 114.172L78.8487 112.98C78.9457 112.928 78.9538 112.851 78.8689 112.807L76.6995 111.67C76.6471 111.643 76.5882 111.629 76.5283 111.628C76.4683 111.627 76.4091 111.64 76.3561 111.666ZM58.0427 130.25C58.0934 130.273 58.1495 130.286 58.2064 130.286C58.2632 130.286 58.3193 130.273 58.37 130.25L60.6324 129.058C60.7293 129.006 60.7374 128.929 60.6324 128.885L58.4669 127.744C58.4163 127.72 58.3602 127.708 58.3033 127.708C58.2464 127.708 58.1904 127.72 58.1397 127.744L55.8733 128.936C55.7763 128.984 55.7682 129.065 55.8733 129.109L58.0427 130.25ZM49.8779 125.591L47.6115 126.783C47.5185 126.835 47.5064 126.912 47.6115 126.956L49.7769 128.093C49.8276 128.117 49.8836 128.129 49.9405 128.129C49.9974 128.129 50.0535 128.117 50.1041 128.093L52.3706 126.901C52.4675 126.85 52.4756 126.772 52.3706 126.728L50.2011 125.591C50.1513 125.567 50.0958 125.555 50.0395 125.555C49.9832 125.555 49.9277 125.567 49.8779 125.591ZM54.0755 129.083C54.1261 129.107 54.1822 129.119 54.2391 129.119C54.296 129.119 54.352 129.107 54.4027 129.083L56.6691 127.891C56.7661 127.839 56.7742 127.762 56.6691 127.718L54.5401 126.57C54.4894 126.546 54.4333 126.534 54.3764 126.534C54.3195 126.534 54.2635 126.546 54.2128 126.57L51.9464 127.762C51.8535 127.814 51.8413 127.891 51.9464 127.935L54.0755 129.083ZM63.2059 130.953L65.4723 129.76C65.5693 129.713 65.5773 129.635 65.4925 129.588L63.323 128.45C63.2727 128.426 63.2165 128.413 63.1594 128.413C63.1023 128.413 63.0461 128.426 62.9958 128.45L60.7293 129.639C60.6364 129.691 60.6243 129.768 60.7293 129.812L62.8948 130.953C62.9433 130.974 62.9965 130.985 63.0503 130.985C63.1042 130.985 63.1573 130.974 63.2059 130.953ZM59.5699 132.704C59.6205 132.728 59.6766 132.74 59.7335 132.74C59.7904 132.74 59.8464 132.728 59.8971 132.704L62.1595 131.512C62.2565 131.464 62.2645 131.387 62.1595 131.339L59.9941 130.202C59.9434 130.178 59.8873 130.166 59.8304 130.166C59.7735 130.166 59.7175 130.178 59.6668 130.202L57.4206 131.376C57.3236 131.427 57.3155 131.505 57.4206 131.549L59.5699 132.704ZM53.1867 123.85L50.9243 125.043C50.8273 125.094 50.8192 125.171 50.9243 125.216L53.0897 126.353C53.1411 126.376 53.1978 126.389 53.2553 126.389C53.3129 126.389 53.3696 126.376 53.421 126.353L55.6834 125.16C55.7803 125.109 55.7884 125.032 55.7036 124.987L53.5381 123.847C53.483 123.823 53.4228 123.811 53.3619 123.812C53.3011 123.813 53.2411 123.826 53.1867 123.85ZM69.7507 115.147L67.4883 116.34C67.3913 116.391 67.3832 116.468 67.4883 116.512L69.6537 117.653C69.7051 117.677 69.7618 117.689 69.8193 117.689C69.8769 117.689 69.9336 117.677 69.985 117.653L72.2474 116.461C72.3443 116.409 72.3524 116.332 72.2474 116.288L70.0819 115.151C70.0288 115.124 69.9693 115.11 69.9087 115.109C69.8481 115.109 69.7883 115.122 69.7345 115.147H69.7507ZM56.5116 122.11L54.2492 123.302C54.1522 123.354 54.1441 123.431 54.229 123.475L56.3944 124.612C56.4455 124.637 56.5023 124.649 56.5601 124.649C56.6178 124.649 56.6746 124.637 56.7257 124.612L58.9881 123.42C59.0851 123.368 59.0931 123.291 59.0083 123.247L56.8429 122.106C56.7883 122.083 56.7288 122.072 56.6687 122.072C56.6086 122.073 56.5494 122.086 56.4954 122.11H56.5116ZM73.0756 113.407L70.8091 114.599C70.7122 114.65 70.7041 114.728 70.8091 114.772L72.9786 115.913C73.0293 115.936 73.0853 115.948 73.1422 115.948C73.1991 115.948 73.2552 115.936 73.3059 115.913L75.5723 114.72C75.6652 114.669 75.6733 114.591 75.5723 114.547L73.4069 113.41C73.3525 113.381 73.2907 113.365 73.2276 113.364C73.1645 113.364 73.1023 113.378 73.0473 113.407H73.0756ZM66.454 116.888L64.1916 118.08C64.0947 118.132 64.0866 118.209 64.1916 118.253L66.3571 119.394C66.4084 119.418 66.4652 119.43 66.5227 119.43C66.5802 119.43 66.637 119.418 66.6883 119.394L68.9507 118.202C69.0477 118.15 69.0558 118.073 68.9507 118.029L66.7853 116.892C66.7307 116.863 66.669 116.848 66.606 116.847C66.5431 116.846 66.481 116.86 66.4257 116.888H66.454ZM63.1453 118.628L60.8788 119.821C60.7859 119.872 60.7738 119.95 60.8788 119.994L63.0443 121.135C63.0953 121.157 63.1512 121.169 63.2079 121.169C63.2645 121.169 63.3205 121.157 63.3715 121.135L65.6379 119.942C65.7349 119.891 65.743 119.813 65.6379 119.769L63.4685 118.628C63.4143 118.602 63.354 118.589 63.2927 118.589C63.2315 118.589 63.1711 118.602 63.117 118.628H63.1453ZM59.7921 120.369L57.5256 121.561C57.4287 121.613 57.4206 121.69 57.5054 121.734L59.6749 122.875C59.7259 122.898 59.7818 122.909 59.8385 122.909C59.8952 122.909 59.9511 122.898 60.0021 122.875L62.2686 121.683C62.3615 121.631 62.3736 121.554 62.2686 121.51L60.1031 120.373C60.0549 120.351 60.0019 120.339 59.9481 120.339C59.8942 120.338 59.8409 120.348 59.7921 120.369ZM74.9017 121.539L77.1681 120.347C77.261 120.295 77.2731 120.218 77.1681 120.174L75.0027 119.033C74.952 119.01 74.8959 118.997 74.839 118.997C74.7821 118.997 74.7261 119.01 74.6754 119.033L72.409 120.226C72.312 120.277 72.3039 120.354 72.3888 120.399L74.5583 121.536C74.6126 121.565 74.6744 121.581 74.7375 121.581C74.8006 121.582 74.8628 121.568 74.9178 121.539H74.9017ZM105.779 96.1841L103.513 97.3764C103.416 97.428 103.408 97.5052 103.493 97.5494L105.662 98.6865C105.713 98.7101 105.769 98.7224 105.826 98.7224C105.883 98.7224 105.939 98.7101 105.989 98.6865L108.256 97.4942C108.353 97.4427 108.361 97.3654 108.276 97.3213L106.107 96.1804C106.057 96.1608 106.004 96.151 105.951 96.1516C105.897 96.1522 105.844 96.1633 105.796 96.1841H105.779ZM101.808 98.2928L99.5457 99.4814C99.4487 99.5329 99.4406 99.6102 99.5457 99.6544L101.711 100.795C101.762 100.819 101.818 100.831 101.875 100.831C101.932 100.831 101.988 100.819 102.038 100.795L104.305 99.6065C104.402 99.555 104.41 99.4777 104.325 99.4336L102.16 98.2928C102.106 98.266 102.045 98.252 101.984 98.252C101.922 98.252 101.862 98.266 101.808 98.2928ZM109.124 94.4435L106.862 95.6358C106.765 95.6873 106.757 95.7646 106.862 95.8088L109.028 96.9459C109.078 96.9695 109.134 96.9818 109.191 96.9818C109.248 96.9818 109.304 96.9695 109.355 96.9459L111.621 95.7536C111.718 95.7021 111.726 95.6248 111.641 95.5806L109.476 94.4398C109.419 94.4103 109.355 94.3951 109.29 94.3957C109.224 94.3964 109.16 94.4129 109.104 94.4435H109.124ZM90.8314 109.925L93.0938 108.733C93.1907 108.685 93.1988 108.604 93.114 108.56L90.9485 107.423C90.8979 107.399 90.8418 107.387 90.7849 107.387C90.728 107.387 90.6719 107.399 90.6213 107.423L88.3549 108.615C88.2579 108.667 88.2498 108.744 88.3347 108.788L90.5001 109.929C90.5491 109.949 90.6023 109.959 90.6561 109.959C90.7098 109.958 90.7628 109.947 90.8112 109.925H90.8314ZM112.765 92.6918C112.712 92.6705 112.656 92.6595 112.599 92.6595C112.542 92.6595 112.485 92.6705 112.433 92.6918L110.171 93.8841C110.074 93.9357 110.066 94.0129 110.171 94.0571L112.336 95.1979C112.388 95.2192 112.445 95.2303 112.502 95.2303C112.559 95.2303 112.615 95.2192 112.668 95.1979L114.93 94.0056C115.027 93.9541 115.035 93.8768 114.95 93.8326L112.765 92.6918ZM78.2468 119.799L80.5132 118.606C80.6102 118.555 80.6183 118.478 80.5132 118.433L78.3437 117.293C78.2931 117.269 78.237 117.257 78.1801 117.257C78.1232 117.257 78.0672 117.269 78.0165 117.293L75.7501 118.496C75.6571 118.547 75.6491 118.625 75.7501 118.669L77.9155 119.806C77.9646 119.826 78.0181 119.836 78.0719 119.835C78.1258 119.833 78.1786 119.821 78.2266 119.799H78.2468ZM118.837 98.4547L121.099 97.2661C121.196 97.2145 121.204 97.1373 121.119 97.0931L118.954 95.9523C118.902 95.9287 118.846 95.9164 118.788 95.9164C118.731 95.9164 118.674 95.9287 118.623 95.9523L116.352 97.152C116.255 97.2035 116.247 97.2808 116.332 97.3286L118.497 98.4657C118.548 98.4853 118.603 98.4942 118.659 98.4916C118.714 98.4891 118.768 98.4752 118.816 98.451L118.837 98.4547ZM112.433 98.5688L114.696 97.3764C114.793 97.3286 114.801 97.2513 114.696 97.2035L112.53 96.048C112.479 96.0244 112.422 96.0121 112.365 96.0121C112.307 96.0121 112.25 96.0244 112.199 96.048L109.937 97.2366C109.84 97.2881 109.831 97.3654 109.916 97.4096L112.082 98.5504C112.132 98.5763 112.188 98.5911 112.245 98.5937C112.303 98.5963 112.36 98.5865 112.413 98.5651L112.433 98.5688ZM115.859 94.3257C115.808 94.3021 115.751 94.2898 115.694 94.2898C115.636 94.2898 115.579 94.3021 115.528 94.3257L113.265 95.5144C113.169 95.5659 113.16 95.6432 113.245 95.6873L115.411 96.8281C115.462 96.8517 115.519 96.864 115.576 96.864C115.634 96.864 115.691 96.8517 115.742 96.8281L118.004 95.6358C118.101 95.588 118.109 95.5107 118.004 95.4629L115.859 94.3257ZM116.554 93.9577L121.806 96.7251C121.857 96.7487 121.913 96.761 121.97 96.761C122.027 96.761 122.083 96.7487 122.133 96.7251L124.4 95.5364C124.493 95.4849 124.505 95.4077 124.4 95.3635L119.148 92.5961C119.097 92.5726 119.041 92.5603 118.984 92.5603C118.927 92.5603 118.871 92.5726 118.82 92.5961L116.554 93.7848C116.457 93.84 116.449 93.9099 116.534 93.9541L116.554 93.9577ZM108.89 97.8144L106.624 98.992C106.531 99.0435 106.519 99.1208 106.624 99.1649L108.789 100.306C108.84 100.329 108.896 100.342 108.953 100.342C109.01 100.342 109.066 100.329 109.116 100.306L111.383 99.1134C111.48 99.0656 111.488 98.9883 111.383 98.9404L109.213 97.8033C109.162 97.782 109.106 97.772 109.05 97.7739C108.994 97.7758 108.939 97.7897 108.89 97.8144ZM83.9795 110.912L81.7171 112.104C81.6202 112.155 81.6121 112.233 81.6969 112.277L83.8624 113.418C83.913 113.441 83.9691 113.453 84.026 113.453C84.0829 113.453 84.139 113.441 84.1896 113.418L86.4561 112.225C86.553 112.174 86.5611 112.096 86.4763 112.052L84.3108 110.915C84.2598 110.891 84.2032 110.878 84.1457 110.877C84.0881 110.877 84.0312 110.888 83.9795 110.912ZM115.176 100.203C115.228 100.226 115.285 100.239 115.342 100.239C115.4 100.239 115.456 100.226 115.508 100.203L117.77 99.0141C117.867 98.9625 117.875 98.8853 117.79 98.8411L115.625 97.7003C115.573 97.6767 115.517 97.6644 115.459 97.6644C115.402 97.6644 115.345 97.6767 115.294 97.7003L113.031 98.8889C112.934 98.9405 112.926 99.0177 113.031 99.0619L115.176 100.203ZM87.3004 109.171L85.038 110.363C84.9411 110.415 84.933 110.492 85.0178 110.536L87.1833 111.677C87.2346 111.701 87.2914 111.713 87.3489 111.713C87.4064 111.713 87.4632 111.701 87.5145 111.677L89.7769 110.485C89.8739 110.437 89.882 110.356 89.7971 110.312L87.6317 109.175C87.5791 109.149 87.5203 109.135 87.4605 109.134C87.4007 109.133 87.3415 109.146 87.2883 109.171H87.3004ZM61.3636 128.509C61.4143 128.533 61.4703 128.545 61.5272 128.545C61.5841 128.545 61.6402 128.533 61.6909 128.509L63.9573 127.317C64.0502 127.265 64.0623 127.188 63.9573 127.144L61.7919 126.003C61.7412 125.98 61.6851 125.967 61.6282 125.967C61.5713 125.967 61.5153 125.98 61.4646 126.003L59.1982 127.195C59.1053 127.243 59.0931 127.324 59.1982 127.368L61.3636 128.509ZM57.5135 124.829L55.2511 126.022C55.1541 126.073 55.1461 126.15 55.2511 126.195L57.3681 127.328C57.4191 127.35 57.475 127.362 57.5317 127.362C57.5883 127.362 57.6443 127.35 57.6953 127.328L59.9617 126.136C60.0587 126.084 60.0668 126.007 59.9617 125.963L57.7963 124.822C57.6995 124.793 57.5941 124.798 57.5014 124.837L57.5135 124.829ZM64.9996 126.754L67.2661 125.562C67.363 125.51 67.3711 125.433 67.2863 125.389L65.1168 124.248C65.0661 124.224 65.01 124.212 64.9532 124.212C64.8963 124.212 64.8402 124.224 64.7895 124.248L62.5271 125.44C62.4302 125.488 62.4221 125.569 62.5069 125.613L64.6724 126.75C64.7205 126.774 64.7739 126.787 64.8285 126.789C64.8831 126.791 64.9375 126.781 64.9875 126.761L64.9996 126.754ZM68.3124 125.013L70.5748 123.821C70.6718 123.769 70.6799 123.692 70.595 123.648L68.4296 122.507C68.3782 122.484 68.3215 122.471 68.2639 122.471C68.2064 122.471 68.1497 122.484 68.0983 122.507L65.8359 123.7C65.7389 123.751 65.7309 123.828 65.8157 123.872L67.9811 125.01C68.03 125.033 68.0841 125.046 68.1393 125.048C68.1946 125.05 68.2496 125.041 68.3003 125.021L68.3124 125.013ZM71.6212 123.273L73.8836 122.08C73.9805 122.029 73.9886 121.951 73.9038 121.907L71.7383 120.767C71.6877 120.743 71.6316 120.731 71.5747 120.731C71.5178 120.731 71.4617 120.743 71.4111 120.767L69.1447 121.959C69.0477 122.007 69.0396 122.088 69.1245 122.132L71.2899 123.269C71.3388 123.293 71.3928 123.306 71.4481 123.308C71.5034 123.31 71.5584 123.3 71.6091 123.28L71.6212 123.273ZM60.8223 123.089L58.5599 124.281C58.4629 124.332 58.4548 124.41 58.5599 124.454L60.7253 125.595C60.7767 125.618 60.8334 125.631 60.8909 125.631C60.9485 125.631 61.0052 125.618 61.0566 125.595L63.319 124.402C63.4159 124.351 63.424 124.274 63.319 124.229L61.1535 123.092C61.1003 123.067 61.0412 123.055 60.9813 123.055C60.9215 123.056 60.8627 123.07 60.8101 123.096L60.8223 123.089ZM64.1351 121.348L61.8565 122.544C61.7595 122.595 61.7515 122.673 61.8363 122.717L64.0058 123.858C64.0564 123.881 64.1125 123.894 64.1694 123.894C64.2263 123.894 64.2824 123.881 64.333 123.858L66.5995 122.665C66.6924 122.614 66.7005 122.537 66.5995 122.492L64.434 121.355C64.3855 121.334 64.3323 121.323 64.2785 121.323C64.2246 121.323 64.1715 121.334 64.1229 121.355L64.1351 121.348ZM77.3741 114.385L75.1077 115.578C75.0107 115.629 75.0027 115.707 75.1077 115.751L77.2731 116.892C77.3245 116.915 77.3812 116.927 77.4388 116.927C77.4963 116.927 77.553 116.915 77.6044 116.892L79.8668 115.699C79.9638 115.648 79.9719 115.57 79.8668 115.526L77.7014 114.389C77.6488 114.364 77.5904 114.352 77.5312 114.352C77.472 114.353 77.4139 114.367 77.362 114.393L77.3741 114.385ZM74.0613 116.126L71.7989 117.318C71.702 117.37 71.6939 117.447 71.7787 117.491L73.9442 118.632C73.9955 118.656 74.0523 118.668 74.1098 118.668C74.1674 118.668 74.2241 118.656 74.2755 118.632L76.5379 117.44C76.6348 117.388 76.6429 117.311 76.5581 117.267L74.3926 116.13C74.3394 116.105 74.2803 116.092 74.2204 116.093C74.1606 116.093 74.1018 116.107 74.0492 116.133L74.0613 116.126ZM80.6829 112.645L78.4165 113.837C78.3195 113.889 78.3114 113.966 78.4165 114.01L80.5859 115.151C80.6366 115.174 80.6927 115.187 80.7496 115.187C80.8064 115.187 80.8625 115.174 80.9132 115.151L83.1796 113.959C83.2766 113.907 83.2847 113.83 83.1796 113.786L81.0142 112.648C80.9611 112.623 80.9019 112.61 80.842 112.611C80.782 112.611 80.7231 112.625 80.6708 112.652L80.6829 112.645ZM67.4317 119.6L65.1653 120.792C65.0723 120.844 65.0602 120.921 65.1653 120.965L67.3307 122.106C67.3814 122.13 67.4374 122.142 67.4943 122.142C67.5512 122.142 67.6073 122.13 67.6579 122.106L69.9244 120.914C70.0213 120.862 70.0294 120.785 69.9446 120.741L67.7589 119.6C67.7083 119.576 67.6522 119.564 67.5953 119.564C67.5384 119.564 67.4824 119.576 67.4317 119.6ZM70.7405 117.859L68.4781 119.052C68.3811 119.103 68.373 119.18 68.4579 119.225L70.6233 120.365C70.674 120.389 70.73 120.401 70.7869 120.401C70.8438 120.401 70.8999 120.389 70.9505 120.365L73.217 119.173C73.3139 119.122 73.322 119.044 73.2372 119L71.0717 117.863C71.0194 117.841 70.9622 117.831 70.9046 117.833C70.8471 117.835 70.7909 117.849 70.7405 117.874V117.859ZM66.5146 129.197L68.7811 128.005C68.878 127.957 68.8861 127.88 68.8013 127.832L66.6358 126.695C66.5844 126.671 66.5277 126.659 66.4702 126.659C66.4126 126.659 66.3559 126.671 66.3045 126.695L64.0421 127.887C63.9452 127.939 63.9371 128.016 64.0219 128.06L66.1874 129.201C66.2371 129.226 66.2926 129.241 66.3495 129.243C66.4064 129.244 66.463 129.234 66.5146 129.212V129.197ZM49.0618 128.461L46.8964 127.321C46.8457 127.297 46.7896 127.285 46.7328 127.285C46.6759 127.285 46.6198 127.297 46.5691 127.321L44.3027 128.513C44.2057 128.564 44.1977 128.642 44.3027 128.686L46.4722 129.823C46.5228 129.847 46.5789 129.859 46.6358 129.859C46.6927 129.859 46.7488 129.847 46.7994 129.823L49.0659 128.631C49.1386 128.583 49.1507 128.506 49.0618 128.461ZM53.3765 129.448L51.2111 128.311C51.1604 128.287 51.1044 128.275 51.0475 128.275C50.9906 128.275 50.9345 128.287 50.8839 128.311L47.3973 130.151C47.3004 130.202 47.2923 130.279 47.3973 130.324L49.5628 131.464C49.6134 131.488 49.6695 131.5 49.7264 131.5C49.7833 131.5 49.8394 131.488 49.89 131.464L53.3765 129.624C53.4533 129.569 53.4614 129.492 53.3765 129.448ZM45.8298 126.224L43.6644 125.083C43.613 125.06 43.5563 125.047 43.4987 125.047C43.4412 125.047 43.3845 125.06 43.3331 125.083L40.5455 126.555C40.4526 126.607 40.4405 126.684 40.5455 126.728L42.7109 127.869C42.7616 127.893 42.8177 127.905 42.8746 127.905C42.9314 127.905 42.9875 127.893 43.0382 127.869L45.8258 126.397C45.9066 126.334 45.9147 126.257 45.8298 126.224ZM47.967 125.098C48.0176 125.121 48.0737 125.134 48.1306 125.134C48.1875 125.134 48.2436 125.121 48.2942 125.098L50.5607 123.909C50.6576 123.858 50.6657 123.78 50.5607 123.736L48.3912 122.596C48.3405 122.572 48.2844 122.56 48.2276 122.56C48.1707 122.56 48.1146 122.572 48.0639 122.596L45.8015 123.788C45.7046 123.836 45.6965 123.913 45.8015 123.961L47.967 125.098ZM57.3438 130.618L55.1784 129.477C55.127 129.453 55.0703 129.441 55.0127 129.441C54.9552 129.441 54.8985 129.453 54.8471 129.477L50.5001 131.777C50.4071 131.829 50.395 131.906 50.5001 131.95L52.6655 133.091C52.7162 133.114 52.7722 133.127 52.8291 133.127C52.886 133.127 52.9421 133.114 52.9927 133.091L57.3479 130.802C57.4206 130.739 57.4287 130.662 57.3438 130.618ZM58.8709 133.069L56.7055 131.932C56.6541 131.908 56.5974 131.896 56.5399 131.896C56.4823 131.896 56.4256 131.908 56.3742 131.932L53.5907 133.404C53.4937 133.451 53.4856 133.532 53.5705 133.577L55.7359 134.714C55.7866 134.737 55.8426 134.75 55.8995 134.75C55.9564 134.75 56.0125 134.737 56.0631 134.714L58.8507 133.242C58.9477 133.194 58.9558 133.113 58.8709 133.069ZM72.5746 112.148C72.6256 112.17 72.6816 112.182 72.7382 112.182C72.7949 112.182 72.8508 112.17 72.9019 112.148L75.1683 110.956C75.2653 110.904 75.2733 110.827 75.1885 110.783L73.0231 109.646C72.9717 109.622 72.915 109.61 72.8574 109.61C72.7999 109.61 72.7431 109.622 72.6918 109.646L70.4294 110.838C70.3324 110.889 70.3243 110.967 70.4092 111.011L72.5746 112.148ZM65.9571 115.626C66.0077 115.649 66.0638 115.661 66.1207 115.661C66.1776 115.661 66.2337 115.649 66.2843 115.626L68.5508 114.433C68.6437 114.382 68.6518 114.304 68.5508 114.26L66.3853 113.119C66.3343 113.097 66.2784 113.085 66.2217 113.085C66.165 113.085 66.1091 113.097 66.0581 113.119L63.7917 114.312C63.6947 114.363 63.6866 114.441 63.7715 114.485L65.9571 115.626ZM51.2757 123.354C51.3271 123.377 51.3838 123.389 51.4414 123.389C51.4989 123.389 51.5556 123.377 51.607 123.354L53.8694 122.165C53.9664 122.113 53.9745 122.036 53.8694 121.992L51.704 120.851C51.6526 120.828 51.5959 120.815 51.5383 120.815C51.4808 120.815 51.4241 120.828 51.3727 120.851L49.1103 122.043C49.0133 122.091 49.0053 122.169 49.1103 122.216L51.2757 123.354ZM69.2659 113.892C69.3162 113.917 69.3724 113.93 69.4295 113.93C69.4865 113.93 69.5427 113.917 69.5931 113.892L71.8595 112.7C71.9565 112.648 71.9646 112.571 71.8595 112.527L69.6901 111.386C69.6394 111.363 69.5833 111.35 69.5264 111.35C69.4695 111.35 69.4135 111.363 69.3628 111.386L67.0964 112.579C67.0035 112.63 66.9913 112.707 67.0964 112.751L69.2659 113.892ZM62.6443 117.377C62.6964 117.399 62.7528 117.41 62.8099 117.41C62.867 117.41 62.9235 117.399 62.9756 117.377L65.238 116.185C65.3349 116.133 65.343 116.056 65.2582 116.012L63.0927 114.871C63.0414 114.848 62.9846 114.835 62.9271 114.835C62.8696 114.835 62.8128 114.848 62.7615 114.871L60.4991 116.063C60.4021 116.115 60.394 116.192 60.4789 116.236L62.6443 117.377ZM60.495 133.201C60.4444 133.178 60.3883 133.165 60.3314 133.165C60.2745 133.165 60.2184 133.178 60.1678 133.201L56.6853 135.041C56.5883 135.093 56.5803 135.17 56.6651 135.214L58.8305 136.355C58.8812 136.379 58.9373 136.391 58.9942 136.391C59.051 136.391 59.1071 136.379 59.1578 136.355L62.6443 134.515C62.7413 134.463 62.7493 134.386 62.6645 134.342L60.495 133.201ZM57.8973 119.876C57.948 119.9 58.004 119.912 58.0609 119.912C58.1178 119.912 58.1739 119.9 58.2245 119.876L60.491 118.687C60.5839 118.636 60.596 118.559 60.491 118.514L58.3255 117.374C58.2749 117.35 58.2188 117.338 58.1619 117.338C58.105 117.338 58.049 117.35 57.9983 117.374L55.7521 118.555C55.6551 118.603 55.647 118.68 55.7319 118.728L57.8973 119.876ZM54.5845 121.617C54.6359 121.64 54.6926 121.653 54.7501 121.653C54.8077 121.653 54.8644 121.64 54.9158 121.617L57.1782 120.428C57.2751 120.376 57.2832 120.299 57.1984 120.255L55.0329 119.114C54.9816 119.091 54.9248 119.078 54.8673 119.078C54.8098 119.078 54.753 119.091 54.7017 119.114L52.4393 120.307C52.3423 120.354 52.3342 120.432 52.4191 120.479L54.5845 121.617ZM121.814 100.957C121.763 100.933 121.706 100.921 121.648 100.921C121.591 100.921 121.534 100.933 121.483 100.957L115.912 103.901C115.815 103.953 115.807 104.03 115.891 104.074L118.057 105.215C118.108 105.238 118.165 105.251 118.223 105.251C118.28 105.251 118.337 105.238 118.388 105.215L123.959 102.271C124.056 102.223 124.064 102.142 123.98 102.098L121.814 100.957ZM114.498 104.803C114.446 104.779 114.39 104.767 114.332 104.767C114.275 104.767 114.218 104.779 114.166 104.803L111.908 105.984C111.811 106.032 111.803 106.109 111.888 106.157L114.053 107.294C114.105 107.318 114.161 107.33 114.219 107.33C114.276 107.33 114.333 107.318 114.385 107.294L116.647 106.105C116.744 106.054 116.752 105.977 116.647 105.932L114.498 104.803ZM69.8274 127.472L72.0898 126.279C72.1868 126.231 72.1949 126.154 72.11 126.106L69.9446 124.969C69.8932 124.945 69.8365 124.933 69.7789 124.933C69.7214 124.933 69.6647 124.945 69.6133 124.969L67.3509 126.161C67.2539 126.213 67.2459 126.29 67.3307 126.334L69.4961 127.475C69.5478 127.498 69.6047 127.51 69.6623 127.509C69.7198 127.509 69.7764 127.496 69.8274 127.472ZM107.868 108.273C107.817 108.249 107.761 108.237 107.704 108.237C107.648 108.237 107.591 108.249 107.541 108.273L105.274 109.465C105.181 109.513 105.169 109.59 105.274 109.638L107.44 110.775C107.49 110.799 107.547 110.811 107.603 110.811C107.66 110.811 107.716 110.799 107.767 110.775L110.033 109.587C110.13 109.535 110.139 109.458 110.054 109.414L107.868 108.273ZM125.115 99.2054C125.064 99.1818 125.008 99.1695 124.951 99.1695C124.894 99.1695 124.838 99.1818 124.788 99.2054L122.521 100.398C122.424 100.449 122.416 100.527 122.501 100.571L124.67 101.712C124.721 101.735 124.777 101.747 124.834 101.747C124.891 101.747 124.947 101.735 124.998 101.712L127.26 100.519C127.357 100.471 127.365 100.394 127.28 100.346L125.115 99.2054ZM130.593 98.6019L125.341 95.8345C125.29 95.811 125.234 95.7987 125.177 95.7987C125.121 95.7987 125.064 95.811 125.014 95.8345L122.747 97.0269C122.65 97.0784 122.642 97.1557 122.727 97.1998L127.979 99.9672C128.03 99.9908 128.086 100.003 128.143 100.003C128.2 100.003 128.256 99.9908 128.306 99.9672L130.573 98.7749C130.678 98.727 130.686 98.6497 130.601 98.6019H130.593ZM95.5016 114.794C95.451 114.77 95.3949 114.758 95.338 114.758C95.2811 114.758 95.225 114.77 95.1744 114.794L92.3868 116.266C92.2898 116.314 92.2817 116.395 92.3868 116.439L94.5522 117.576C94.6036 117.6 94.6603 117.612 94.7179 117.612C94.7754 117.612 94.8321 117.6 94.8835 117.576L97.6671 116.104C97.764 116.056 97.7721 115.975 97.6873 115.931L95.5016 114.794ZM103.872 110.4C103.821 110.376 103.764 110.364 103.707 110.364C103.649 110.364 103.593 110.376 103.541 110.4L100.059 112.24C99.9618 112.291 99.9537 112.369 100.059 112.413L102.224 113.554C102.276 113.577 102.332 113.59 102.39 113.59C102.447 113.59 102.504 113.577 102.555 113.554L106.038 111.714C106.135 111.666 106.143 111.589 106.058 111.541L103.872 110.4ZM87.8458 118.827C87.7944 118.804 87.7377 118.791 87.6802 118.791C87.6226 118.791 87.5659 118.804 87.5145 118.827L68.878 128.627C68.7811 128.679 68.773 128.756 68.8578 128.8L71.0233 129.941C71.0746 129.964 71.1314 129.977 71.1889 129.977C71.2464 129.977 71.3032 129.964 71.3545 129.941L89.9911 120.141C90.088 120.089 90.0961 120.012 90.0113 119.968L87.8458 118.827ZM68.1629 129.168C68.1116 129.144 68.0548 129.132 67.9973 129.132C67.9398 129.132 67.883 129.144 67.8317 129.168L65.0441 130.64C64.9471 130.691 64.939 130.769 65.0239 130.813L67.1933 131.954C67.244 131.977 67.3001 131.99 67.357 131.99C67.4138 131.99 67.4699 131.977 67.5206 131.954L70.3082 130.482C70.4051 130.43 70.4132 130.353 70.3284 130.309L68.1629 129.168ZM91.6757 116.799C91.6251 116.776 91.569 116.764 91.5121 116.764C91.4552 116.764 91.3992 116.776 91.3485 116.799L88.5609 118.271C88.4639 118.323 88.4559 118.4 88.5407 118.444L90.7102 119.585C90.7608 119.609 90.8169 119.621 90.8738 119.621C90.9307 119.621 90.9868 119.609 91.0374 119.585L93.825 118.113C93.922 118.062 93.9301 117.984 93.825 117.94L91.6757 116.799ZM64.329 131.185C64.2783 131.161 64.2222 131.149 64.1654 131.149C64.1085 131.149 64.0524 131.161 64.0017 131.185L61.2141 132.657C61.1172 132.708 61.1091 132.785 61.1939 132.83L63.3594 133.967C63.41 133.99 63.4661 134.003 63.523 134.003C63.5799 134.003 63.636 133.99 63.6866 133.967L66.4742 132.495C66.5712 132.447 66.5793 132.37 66.4944 132.322L64.329 131.185ZM99.3437 112.785C99.2923 112.761 99.2356 112.749 99.178 112.749C99.1205 112.749 99.0637 112.761 99.0124 112.785L96.2248 114.257C96.1319 114.308 96.1197 114.385 96.2248 114.43L98.3902 115.57C98.4409 115.594 98.497 115.606 98.5538 115.606C98.6107 115.606 98.6668 115.594 98.7175 115.57L101.505 114.098C101.602 114.047 101.61 113.97 101.505 113.925L99.3437 112.785ZM111.189 106.554C111.138 106.531 111.081 106.518 111.023 106.518C110.966 106.518 110.909 106.531 110.858 106.554L108.595 107.747C108.498 107.795 108.49 107.872 108.575 107.92L110.74 109.057C110.792 109.08 110.849 109.093 110.906 109.093C110.964 109.093 111.02 109.08 111.072 109.057L113.334 107.868C113.431 107.817 113.439 107.739 113.354 107.695L111.189 106.554ZM118.602 101.844L120.865 100.652C120.962 100.6 120.97 100.523 120.885 100.479L118.719 99.3379C118.668 99.3143 118.611 99.302 118.554 99.302C118.496 99.302 118.44 99.3143 118.388 99.3379L116.126 100.53C116.029 100.578 116.021 100.659 116.106 100.703L118.271 101.84C118.324 101.861 118.382 101.87 118.439 101.867C118.497 101.864 118.553 101.848 118.602 101.822V101.844ZM105.097 102.436L107.359 101.244C107.456 101.193 107.464 101.115 107.379 101.071L105.214 99.9304C105.162 99.9068 105.106 99.8945 105.048 99.8945C104.991 99.8945 104.934 99.9068 104.882 99.9304L102.62 101.123C102.523 101.174 102.515 101.251 102.62 101.296L104.786 102.433C104.836 102.451 104.89 102.458 104.943 102.455C104.997 102.452 105.049 102.438 105.097 102.414V102.436ZM96.3056 113.568L102.923 110.087C103.02 110.036 103.028 109.958 102.943 109.914L100.778 108.773C100.726 108.75 100.67 108.737 100.612 108.737C100.555 108.737 100.498 108.75 100.447 108.773L93.8291 112.24C93.7321 112.291 93.724 112.369 93.8089 112.413L95.9743 113.554C96.0263 113.576 96.0834 113.587 96.1409 113.586C96.1984 113.585 96.2548 113.571 96.3056 113.546V113.568ZM114.962 103.592C115.013 103.616 115.069 103.628 115.126 103.628C115.183 103.628 115.239 103.616 115.29 103.592L117.556 102.4C117.653 102.348 117.661 102.271 117.556 102.227L115.386 101.086C115.336 101.062 115.28 101.05 115.223 101.05C115.166 101.05 115.11 101.062 115.059 101.086L112.797 102.278C112.7 102.326 112.692 102.407 112.777 102.451L114.962 103.592ZM112.195 101.936L114.461 100.747C114.558 100.696 114.566 100.619 114.482 100.574L112.312 99.4336C112.261 99.41 112.205 99.3977 112.148 99.3977C112.092 99.3977 112.035 99.41 111.985 99.4336L109.722 100.622C109.625 100.674 109.613 100.751 109.722 100.795L111.888 101.936C111.936 101.957 111.988 101.967 112.041 101.967C112.094 101.967 112.147 101.957 112.195 101.936ZM92.9928 115.291L95.2592 114.098C95.3562 114.051 95.3643 113.973 95.2794 113.925L93.1099 112.788C93.0593 112.765 93.0032 112.752 92.9463 112.752C92.8894 112.752 92.8334 112.765 92.7827 112.788L90.5163 113.977C90.4233 114.028 90.4112 114.106 90.5163 114.15L92.6817 115.291C92.7305 115.311 92.7839 115.322 92.8377 115.321C92.8915 115.32 92.9445 115.309 92.9928 115.287V115.291ZM107.646 107.423C107.697 107.446 107.753 107.459 107.809 107.459C107.866 107.459 107.922 107.446 107.973 107.423L110.24 106.234C110.336 106.183 110.345 106.105 110.26 106.061L108.094 104.92C108.043 104.897 107.986 104.885 107.929 104.885C107.871 104.885 107.814 104.897 107.763 104.92L105.501 106.109C105.404 106.161 105.396 106.238 105.48 106.282L107.646 107.423ZM76.4449 123.983L78.7114 122.791C78.8043 122.743 78.8164 122.665 78.7114 122.618L76.5419 121.48C76.491 121.458 76.435 121.446 76.3783 121.446C76.3215 121.446 76.2656 121.458 76.2147 121.48L73.9482 122.673C73.8512 122.724 73.8432 122.802 73.928 122.846L76.0975 123.987C76.1503 124.014 76.2099 124.028 76.2707 124.029C76.3315 124.03 76.3914 124.016 76.4449 123.99V123.983ZM79.7537 122.242L82.0121 121.072C82.109 121.024 82.1171 120.947 82.0121 120.899L79.8426 119.762C79.7919 119.738 79.7358 119.726 79.679 119.726C79.6221 119.726 79.566 119.738 79.5153 119.762L77.2529 120.951C77.156 121.002 77.1479 121.079 77.2529 121.124L79.4184 122.264C79.4714 122.287 79.5296 122.297 79.588 122.295C79.6465 122.292 79.7033 122.277 79.7537 122.25V122.242ZM73.1241 125.731L75.3865 124.539C75.4834 124.491 75.4915 124.413 75.4067 124.366L73.2412 123.228C73.1906 123.205 73.1345 123.193 73.0776 123.193C73.0207 123.193 72.9646 123.205 72.914 123.228L70.6475 124.417C70.5506 124.469 70.5425 124.546 70.6273 124.59L72.7928 125.731C72.8441 125.754 72.9009 125.767 72.9584 125.767C73.0159 125.767 73.0727 125.754 73.1241 125.731ZM86.3631 118.768L88.6255 117.576C88.7225 117.528 88.7306 117.451 88.6255 117.403L86.4601 116.266C86.4087 116.242 86.352 116.23 86.2945 116.23C86.2369 116.23 86.1802 116.242 86.1288 116.266L83.8664 117.455C83.7695 117.506 83.7614 117.583 83.8664 117.628L86.0319 118.768C86.0848 118.794 86.1437 118.807 86.2036 118.807C86.2634 118.807 86.3223 118.794 86.3753 118.768H86.3631ZM83.0544 120.509L85.3168 119.317C85.4137 119.269 85.4218 119.191 85.3168 119.144L83.1513 118.007C83.1 117.983 83.0432 117.971 82.9857 117.971C82.9282 117.971 82.8714 117.983 82.8201 118.007L80.5577 119.195C80.4607 119.247 80.4526 119.324 80.5577 119.368L82.7231 120.509C82.776 120.534 82.8349 120.548 82.8948 120.548C82.9546 120.548 83.0136 120.534 83.0665 120.509H83.0544ZM89.6881 117.024L91.9545 115.832C92.0474 115.784 92.0595 115.707 91.9545 115.659L89.7891 114.522C89.7384 114.498 89.6823 114.486 89.6254 114.486C89.5685 114.486 89.5125 114.498 89.4618 114.522L87.1954 115.71C87.0984 115.762 87.0903 115.839 87.1752 115.883L89.3447 117.024C89.3974 117.05 89.4564 117.064 89.5164 117.064C89.5763 117.064 89.6354 117.05 89.6881 117.024ZM107.751 92.8096C107.802 92.8332 107.858 92.8454 107.915 92.8454C107.971 92.8454 108.027 92.8332 108.078 92.8096L110.345 91.6209C110.438 91.5694 110.45 91.4921 110.345 91.448L109.771 91.1425C109.72 91.1189 109.663 91.1066 109.605 91.1066C109.548 91.1066 109.491 91.1189 109.44 91.1425L107.177 92.3349C107.08 92.3827 107.072 92.46 107.157 92.5078L107.751 92.8096ZM91.3041 102.304C91.3547 102.328 91.4108 102.34 91.4677 102.34C91.5246 102.34 91.5806 102.328 91.6313 102.304L93.8977 101.115C93.9947 101.064 94.0028 100.987 93.8977 100.942L91.7283 99.8016C91.6776 99.778 91.6215 99.7657 91.5646 99.7657C91.5077 99.7657 91.4517 99.778 91.401 99.8016L89.1346 100.994C89.0417 101.042 89.0295 101.119 89.1346 101.167L91.3041 102.304ZM97.9216 98.8227C97.9729 98.8463 98.0297 98.8586 98.0872 98.8586C98.1448 98.8586 98.2015 98.8463 98.2529 98.8227L100.515 97.6341C100.612 97.5825 100.62 97.5053 100.535 97.4611L98.37 96.3203C98.3187 96.2967 98.2619 96.2844 98.2044 96.2844C98.1468 96.2844 98.0901 96.2967 98.0387 96.3203L95.7763 97.5126C95.6794 97.5605 95.6713 97.6377 95.7561 97.6856L97.9216 98.8227ZM87.2641 104.427C87.3154 104.451 87.3722 104.463 87.4297 104.463C87.4872 104.463 87.544 104.451 87.5953 104.427L89.8577 103.235C89.9547 103.187 89.9628 103.11 89.8779 103.062L87.7125 101.925C87.6618 101.901 87.6058 101.889 87.5489 101.889C87.492 101.889 87.4359 101.901 87.3853 101.925L85.1188 103.114C85.0219 103.165 85.0138 103.242 85.1188 103.287L87.2641 104.427ZM94.6169 100.56C94.6682 100.583 94.725 100.596 94.7825 100.596C94.84 100.596 94.8968 100.583 94.9481 100.56L97.2105 99.371C97.3075 99.3195 97.3156 99.2422 97.2105 99.1981L95.0451 98.0573C94.9937 98.0336 94.937 98.0213 94.8795 98.0213C94.8219 98.0213 94.7652 98.0336 94.7138 98.0573L92.4514 99.2496C92.3545 99.2974 92.3464 99.3747 92.4312 99.4225L94.6169 100.56ZM80.6465 107.92C80.6972 107.943 80.7533 107.956 80.8102 107.956C80.867 107.956 80.9231 107.943 80.9738 107.92L83.2241 106.72C83.321 106.672 83.3291 106.595 83.2443 106.547L81.0748 105.41C81.0241 105.386 80.968 105.374 80.9112 105.374C80.8543 105.374 80.7982 105.386 80.7475 105.41L78.4811 106.599C78.3882 106.65 78.3801 106.727 78.4811 106.771L80.6465 107.92ZM83.9553 106.179C84.0067 106.203 84.0634 106.215 84.1209 106.215C84.1785 106.215 84.2352 106.203 84.2866 106.179L86.549 104.987C86.6459 104.939 86.654 104.862 86.5692 104.814L84.4037 103.677C84.3524 103.653 84.2956 103.641 84.2381 103.641C84.1806 103.641 84.1238 103.653 84.0725 103.677L81.8101 104.865C81.7131 104.917 81.705 104.994 81.7899 105.038L83.9553 106.179ZM101.137 96.3056C101.189 96.3292 101.246 96.3415 101.303 96.3415C101.361 96.3415 101.417 96.3292 101.469 96.3056L103.731 95.1169C103.828 95.0654 103.836 94.9881 103.731 94.944L103.153 94.6385C103.103 94.615 103.047 94.6027 102.99 94.6027C102.933 94.6027 102.877 94.615 102.826 94.6385L100.56 95.8309C100.463 95.8787 100.455 95.956 100.539 96.0038L101.137 96.3056ZM111.068 91.0837C111.118 91.1072 111.174 91.1195 111.231 91.1195C111.288 91.1195 111.344 91.1072 111.395 91.0837L113.661 89.895C113.758 89.8435 113.766 89.7662 113.682 89.7221L113.104 89.4166C113.053 89.393 112.997 89.3807 112.94 89.3807C112.883 89.3807 112.827 89.393 112.777 89.4166L110.51 90.6089C110.413 90.6568 110.405 90.7377 110.49 90.7819L111.068 91.0837ZM115.605 93.472C115.656 93.4956 115.713 93.5079 115.77 93.5079C115.828 93.5079 115.885 93.4956 115.936 93.472L118.198 92.2797C118.295 92.2281 118.303 92.1509 118.219 92.1067L116.053 90.9659C116.002 90.9434 115.946 90.9317 115.889 90.9317C115.833 90.9317 115.777 90.9434 115.726 90.9659L113.459 92.1582C113.362 92.2097 113.354 92.287 113.459 92.3312L115.605 93.472ZM121.911 100.096L124.173 98.9037C124.27 98.8521 124.279 98.7749 124.194 98.7307L122.028 97.5899C121.978 97.5663 121.922 97.554 121.865 97.554C121.808 97.554 121.752 97.5663 121.701 97.5899L119.435 98.7822C119.338 98.8337 119.33 98.911 119.414 98.9552L121.58 100.092C121.631 100.116 121.687 100.129 121.745 100.13C121.803 100.131 121.859 100.119 121.911 100.096ZM104.434 94.576C104.485 94.5996 104.542 94.6119 104.6 94.6119C104.657 94.6119 104.714 94.5996 104.765 94.576L107.028 93.3873C107.125 93.3358 107.133 93.2585 107.048 93.2144L106.47 92.9089C106.42 92.8854 106.363 92.8731 106.307 92.8731C106.25 92.8731 106.194 92.8854 106.143 92.9089L103.877 94.1013C103.784 94.1491 103.776 94.2264 103.877 94.2742L104.434 94.576ZM77.3257 109.664C77.3763 109.688 77.4324 109.7 77.4893 109.7C77.5462 109.7 77.6022 109.688 77.6529 109.664L79.9193 108.472C80.0163 108.424 80.0244 108.347 79.9193 108.299L77.7539 107.162C77.7032 107.138 77.6472 107.126 77.5903 107.126C77.5334 107.126 77.4773 107.138 77.4267 107.162L75.1602 108.354C75.0633 108.405 75.0552 108.483 75.14 108.527L77.3257 109.664Z" fill="#455A64"/>
<path d="M86.8037 126.805L87.2966 127.063L100.374 133.941L123.632 121.709L124.117 121.458L110.547 114.319L86.8037 126.805Z" fill="#263238"/>
<path d="M123.334 121.863L110.547 115.144L87.5957 127.221L100.374 133.941L123.334 121.863Z" fill="#37474F"/>
<path d="M22.2604 122.367C21.3191 121.97 21.0484 121.289 20.9716 120.082L16.7418 63.7229C16.7376 63.0622 16.9183 62.4114 17.2668 61.8319C17.6153 61.2525 18.12 60.7634 18.7335 60.4109L97.4367 19.0145C98.6285 18.3889 99.5012 18.0504 100.6 18.7349C101.699 19.4193 101.723 19.7984 101.812 21.0017L106.042 77.3646C106.045 78.0252 105.864 78.6757 105.516 79.2551C105.167 79.8344 104.663 80.3236 104.05 80.6766L25.3429 122.069C24.1552 122.695 23.4805 122.879 22.2604 122.367Z" fill="#37474F"/>
<path d="M101.808 21.0018C101.719 19.7984 100.681 19.3311 99.4889 19.953L20.7857 61.3456C20.1618 61.6971 19.6538 62.1955 19.3151 62.7882L17.2588 61.8461C17.6027 61.2544 18.113 60.7566 18.7374 60.4035L97.4366 19.0146C98.6284 18.389 99.5051 18.0431 100.6 18.7349C101.755 19.4635 101.723 19.7984 101.808 21.0018Z" fill="#455A64"/>
<path d="M25.1854 122.154C24.1027 122.735 23.4159 122.809 22.2605 122.367C21.3797 122.029 21.0485 121.289 20.9717 120.082L16.7418 63.7192C16.7182 63.0642 16.8974 62.4163 17.2589 61.8497L19.3113 62.7844C18.9532 63.3522 18.7755 63.9995 18.7982 64.6539L23.0281 121.02C23.1089 122.139 24.1673 122.699 25.1854 122.154Z" fill="#263238"/>
<path d="M22.1554 63.5021L97.8974 23.6808C98.6124 23.3128 99.2346 23.5851 99.2871 24.3064L103.234 76.8862C103.235 77.2846 103.123 77.6764 102.911 78.0247C102.699 78.373 102.393 78.6664 102.022 78.8771L26.2964 118.698C25.5814 119.066 24.9592 118.79 24.9067 118.069L20.9596 65.504C20.9551 65.1052 21.0627 64.7119 21.2719 64.3615C21.4812 64.0111 21.7854 63.7153 22.1554 63.5021Z" fill="black"/>
<path d="M22.1554 63.5021C21.7846 63.7122 21.4788 64.005 21.2667 64.3527C21.0546 64.7004 20.9434 65.0916 20.9434 65.4893L24.8258 117.193L99.6991 77.8173C100.071 77.6071 100.377 77.3139 100.589 76.9654C100.801 76.617 100.912 76.2249 100.911 75.8264L97.0327 24.1224L22.1554 63.5021Z" fill="white"/>
<path d="M118.691 18.6355C118.685 18.5912 118.673 18.5479 118.654 18.5067C118.657 18.5022 118.659 18.4972 118.659 18.492C118.659 18.4868 118.657 18.4818 118.654 18.4773C118.645 18.4337 118.629 18.3915 118.606 18.3522C118.581 18.287 118.544 18.226 118.497 18.1718C118.479 18.147 118.459 18.1236 118.436 18.1019C118.42 18.083 118.401 18.0657 118.38 18.0504C118.346 18.0142 118.307 17.9831 118.263 17.9584C118.216 17.9304 118.166 17.9082 118.113 17.8922C117.927 17.8354 117.73 17.8185 117.536 17.8428C117.341 17.867 117.156 17.9318 116.994 18.032L59.5371 48.208C58.6483 48.6754 57.9777 49.7904 58.0949 51.3691L61.3511 94.657C61.3026 93.9872 61.3026 93.9909 61.3026 93.9946L61.3269 94.3037C61.3438 94.4855 61.4149 94.6597 61.5323 94.8075C61.6497 94.9553 61.8092 95.0712 61.9935 95.1427L62.0662 95.1832L62.1591 95.2237C62.2057 95.2415 62.2545 95.2539 62.3045 95.2605C62.376 95.2756 62.4494 95.2818 62.5227 95.2789C62.7152 95.2759 62.9035 95.2264 63.0681 95.1354L63.1085 95.1133L64.6518 94.3L120.501 64.9226C120.959 64.6564 121.336 64.2893 121.598 63.8551C121.859 63.4209 121.996 62.9337 121.996 62.4386L118.715 18.8122C118.711 18.7528 118.703 18.6938 118.691 18.6355Z" fill="#FAFAFA"/>
<path d="M117.729 18.2418C117.799 18.2409 117.868 18.2534 117.931 18.2786H117.976L118 18.297C118.008 18.2953 118.016 18.2953 118.024 18.297L118.065 18.3412L118.105 18.3853L118.133 18.4258L118.194 18.5546C118.195 18.5668 118.195 18.5792 118.194 18.5914C118.194 18.6356 118.194 18.6834 118.194 18.7312L121.478 62.365C121.474 62.7815 121.356 63.1905 121.135 63.5553C120.915 63.9201 120.598 64.2293 120.214 64.4552L64.4215 93.9431L62.9227 94.7343L62.8823 94.7564L62.8419 94.7784C62.7472 94.8297 62.6406 94.8599 62.5308 94.8668H62.5106H62.3934H62.3449L62.2924 94.8447L62.2561 94.8263H62.2278C62.1184 94.7862 62.0231 94.7199 61.952 94.6343C61.8808 94.5488 61.8365 94.4472 61.8238 94.3405L61.7995 94.0314L61.7713 93.6376L58.5918 51.406C58.4787 49.8935 59.1453 48.9845 59.8038 48.6386L117.208 18.4C117.364 18.3094 117.544 18.2573 117.729 18.2492M117.729 17.8296C117.464 17.8376 117.205 17.9073 116.978 18.032L59.5371 48.208C58.6483 48.6754 57.9777 49.7904 58.0949 51.3692L61.3511 94.657C61.3026 94.0388 61.3026 93.9946 61.3026 93.9946L61.3269 94.3037C61.3438 94.4855 61.4149 94.6597 61.5323 94.8075C61.6497 94.9553 61.8092 95.0712 61.9935 95.1428L62.0662 95.1832L62.1591 95.2237C62.2057 95.2415 62.2545 95.2539 62.3045 95.2605C62.371 95.2733 62.4386 95.2807 62.5065 95.2826H62.5267C62.7177 95.2778 62.9041 95.2284 63.0681 95.1391L63.1085 95.117L64.6518 94.3037L120.501 64.9263C120.959 64.6601 121.336 64.293 121.598 63.8588C121.859 63.4246 121.996 62.9374 121.996 62.4423L118.715 18.8122C118.711 18.7529 118.703 18.6939 118.691 18.6356C118.685 18.5913 118.673 18.5479 118.654 18.5068C118.657 18.5023 118.659 18.4972 118.659 18.492C118.659 18.4869 118.657 18.4818 118.654 18.4773C118.645 18.4337 118.629 18.3916 118.606 18.3522C118.581 18.287 118.544 18.2261 118.497 18.1719C118.479 18.147 118.459 18.1236 118.436 18.102C118.42 18.083 118.401 18.0657 118.38 18.0504C118.346 18.0142 118.307 17.9832 118.263 17.9584C118.216 17.9305 118.166 17.9082 118.113 17.8922C117.997 17.8486 117.871 17.8273 117.745 17.8296H117.729Z" fill="#208667"/>
<path d="M118.097 17.8848C117.911 17.8281 117.714 17.8112 117.52 17.8355C117.326 17.8597 117.14 17.9245 116.978 18.0247L59.5374 48.208C59.079 48.4742 58.7017 48.8413 58.4404 49.2755C58.1792 49.7097 58.0423 50.1969 58.0426 50.692L58.2486 53.4373L56.0307 52.418L55.8287 49.7058C55.8256 49.2115 55.9604 48.7246 56.2204 48.2908C56.4805 47.8569 56.8572 47.4904 57.3154 47.2255L114.76 17.0495C114.934 16.9359 115.137 16.8662 115.35 16.8474C115.563 16.8287 115.778 16.8616 115.972 16.9428C116.283 17.0863 117.726 17.734 118.097 17.8848Z" fill="#208667"/>
<path d="M118.711 18.8012C118.638 17.907 117.867 17.561 116.978 18.0284L59.5372 48.2081C59.078 48.4731 58.7003 48.8401 58.4395 49.2746C58.1787 49.7091 58.0435 50.1969 58.0464 50.6921L58.2525 53.441L118.921 21.5649L118.711 18.8012Z" fill="#208667"/>
<g opacity="0.2">
<path d="M116.978 18.032L59.5373 48.208C59.0726 48.4708 58.6932 48.8417 58.4384 49.2826L56.2285 48.2816C56.4821 47.8472 56.8588 47.4825 57.3193 47.2255L114.76 17.0495C114.936 16.9399 115.139 16.8726 115.351 16.854C115.563 16.8353 115.777 16.8658 115.972 16.9428C116.283 17.0936 117.725 17.734 118.089 17.8885C117.904 17.8335 117.708 17.8178 117.515 17.8427C117.323 17.8676 117.139 17.9324 116.978 18.032Z" fill="white"/>
</g>
<path opacity="0.15" d="M56.0266 52.4326L55.8246 49.7131C55.8116 49.2134 55.9515 48.7203 56.2286 48.2889L58.4425 49.2825C58.1636 49.7106 58.0235 50.2018 58.0385 50.6993L58.2445 53.4483L56.0266 52.4326Z" fill="black"/>
<path d="M111.682 22.2641C111.478 22.3933 111.314 22.5674 111.204 22.7701C111.095 22.9729 111.044 23.1976 111.055 23.4233C111.088 23.8649 111.423 24.0636 111.803 23.8649C112.006 23.7346 112.17 23.5598 112.279 23.3565C112.389 23.1533 112.44 22.9282 112.429 22.702C112.393 22.2604 112.061 22.0801 111.682 22.2641Z" fill="#FAFAFA"/>
<path d="M114.15 20.9761C113.949 21.1047 113.786 21.2772 113.677 21.4777C113.568 21.6782 113.515 21.9005 113.524 22.1242C113.556 22.5658 113.892 22.7645 114.271 22.5658C114.474 22.4356 114.638 22.2607 114.747 22.0573C114.856 21.854 114.906 21.6289 114.893 21.4029C114.861 20.9761 114.53 20.7626 114.15 20.9761Z" fill="#FAFAFA"/>
<path d="M116.618 19.6623C116.414 19.7918 116.25 19.9665 116.14 20.17C116.031 20.3734 115.98 20.5989 115.992 20.8252C116.024 21.2668 116.36 21.4655 116.739 21.2631C116.942 21.1337 117.106 20.9594 117.215 20.7567C117.324 20.5539 117.374 20.3293 117.362 20.1039C117.329 19.6586 116.998 19.4636 116.618 19.6623Z" fill="#FAFAFA"/>
<path d="M61.9934 95.1574L61.9005 95.117L60.0704 94.289C59.8318 94.1857 59.6218 94.0349 59.4561 93.8476C59.2903 93.6603 59.173 93.4413 59.1129 93.207C59.0962 93.1392 59.0854 93.0703 59.0806 93.001L56.0264 52.429L58.2484 53.4483L61.3228 94.2963C61.3374 94.4625 61.3986 94.6225 61.5005 94.761C61.6023 94.8995 61.7414 95.0119 61.9046 95.0875L61.9611 95.1206L61.9934 95.1574Z" fill="#208667"/>
<path opacity="0.5" d="M61.9934 95.1574L61.9005 95.117L60.0704 94.289C59.8318 94.1857 59.6218 94.0349 59.4561 93.8476C59.2903 93.6603 59.173 93.4413 59.1129 93.207C59.0962 93.1392 59.0854 93.0703 59.0806 93.001L56.0264 52.429L58.2484 53.4483L61.3228 94.2963C61.3374 94.4625 61.3986 94.6225 61.5005 94.761C61.6023 94.8995 61.7414 95.0119 61.9046 95.0875L61.9611 95.1206L61.9934 95.1574Z" fill="white"/>
<path d="M84.6177 50.118L85.6479 42.9236C86.2095 42.7922 86.799 42.796 87.3585 42.9347C87.9181 43.0734 88.4284 43.3422 88.8395 43.7148C89.6798 44.4765 90.1929 45.6762 90.302 47.1298L84.6177 50.118Z" fill="#208667"/>
<g opacity="0.4">
<path d="M84.6177 50.118L85.6479 42.9236C86.2095 42.7922 86.799 42.796 87.3585 42.9347C87.9181 43.0734 88.4284 43.3422 88.8395 43.7148C89.6798 44.4765 90.1929 45.6762 90.302 47.1298L84.6177 50.118Z" fill="white"/>
</g>
<path d="M84.1812 49.7315L80.9492 45.4149C81.6735 44.4775 82.6017 43.6858 83.6762 43.0891C84.1458 42.8365 84.6555 42.6515 85.1872 42.5408L84.1812 49.7315Z" fill="#208667"/>
<g opacity="0.2">
<path d="M84.1812 49.7315L80.9492 45.4149C81.6735 44.4775 82.6017 43.6858 83.6762 43.0891C84.1458 42.8365 84.6555 42.6515 85.1872 42.5408L84.1812 49.7315Z" fill="white"/>
</g>
<path d="M84.1811 50.6442L82.86 57.8643C80.4845 58.1771 78.7311 56.4623 78.517 53.6213C78.4144 51.0153 79.2751 48.4533 80.9612 46.3459L84.1811 50.6442Z" fill="#208667"/>
<g opacity="0.7">
<path d="M84.1811 50.6442L82.86 57.8643C80.4845 58.1771 78.7311 56.4623 78.517 53.6213C78.4144 51.0153 79.2751 48.4533 80.9612 46.3459L84.1811 50.6442Z" fill="white"/>
</g>
<path d="M84.6054 50.5632L90.2614 47.5824C90.5321 51.2146 88.201 55.5459 85.0902 57.1835C84.542 57.481 83.9379 57.6832 83.3086 57.7797L84.6054 50.5632Z" fill="#208667"/>
<path d="M90.2213 57.776L80.085 63.1046C79.8102 63.2481 79.5679 63.1046 79.5436 62.7845C79.5322 62.6197 79.5674 62.4549 79.6459 62.3061C79.7245 62.1572 79.8436 62.0292 79.9921 61.9344L90.1284 56.6021C90.4031 56.4585 90.6455 56.6021 90.6698 56.9222C90.68 57.0874 90.6442 57.2523 90.5658 57.4015C90.4874 57.5508 90.3689 57.6796 90.2213 57.776Z" fill="#455A64"/>
<path d="M77.4023 83.8856L64.6036 90.6385L61.9897 55.7557L74.7885 49.0029L77.4023 83.8856Z" fill="#208667"/>
<g opacity="0.2">
<path d="M77.4023 83.8856L64.6036 90.6385L61.9897 55.7557L74.7885 49.0029L77.4023 83.8856Z" fill="white"/>
</g>
<path d="M115.184 29.5541L94.2248 40.5941C93.9501 40.7376 93.7077 40.5941 93.6834 40.274C93.6745 40.1106 93.7114 39.9479 93.7906 39.8011C93.8697 39.6544 93.9886 39.5283 94.1359 39.4349L115.099 28.3949C115.374 28.2514 115.617 28.3949 115.641 28.7151C115.648 28.8786 115.61 29.0411 115.53 29.1878C115.451 29.3344 115.332 29.4604 115.184 29.5541Z" fill="#455A64"/>
<path d="M115.358 31.8321L94.3946 42.8721C94.1198 43.0193 93.8774 42.8721 93.8532 42.5556C93.8448 42.3914 93.8823 42.228 93.9622 42.0806C94.042 41.9332 94.1616 41.8067 94.3097 41.7129L115.269 30.6729C115.544 30.5294 115.786 30.6729 115.811 30.993C115.818 31.1562 115.78 31.3184 115.701 31.4649C115.622 31.6115 115.504 31.7377 115.358 31.8321Z" fill="#455A64"/>
<path d="M95.2994 46.1803L94.1723 46.7728L94.0713 45.4591L95.2025 44.8666L95.2994 46.1803Z" fill="#208667"/>
<g opacity="0.2">
<path d="M95.2994 46.1803L94.1723 46.7728L94.0713 45.4591L95.2025 44.8666L95.2994 46.1803Z" fill="white"/>
</g>
<path d="M95.5137 49.0655L94.3865 49.658L94.2896 48.3405L95.4167 47.748L95.5137 49.0655Z" fill="#208667"/>
<g opacity="0.4">
<path d="M95.5137 49.0655L94.3865 49.658L94.2896 48.3405L95.4167 47.748L95.5137 49.0655Z" fill="white"/>
</g>
<path d="M95.7316 51.9506L94.6044 52.5431L94.5034 51.2257L95.6306 50.6332L95.7316 51.9506Z" fill="#208667"/>
<path d="M95.9458 54.8321L94.8186 55.4246L94.7217 54.1071L95.8488 53.5183L95.9458 54.8321Z" fill="#208667"/>
<g opacity="0.7">
<path d="M95.9458 54.8321L94.8186 55.4246L94.7217 54.1071L95.8488 53.5183L95.9458 54.8321Z" fill="white"/>
</g>
<path d="M96.8468 45.0506C96.7573 45.0511 96.6702 45.0246 96.599 44.9752C96.5279 44.9259 96.4768 44.8563 96.4537 44.7776C96.4305 44.6989 96.4368 44.6154 96.4714 44.5403C96.5059 44.4651 96.5669 44.4026 96.6448 44.3624L115.673 34.3565C115.766 34.3077 115.877 34.2946 115.981 34.3201C116.085 34.3457 116.173 34.4077 116.227 34.4926C116.28 34.5776 116.295 34.6784 116.267 34.7729C116.238 34.8675 116.17 34.948 116.077 34.9968L97.0488 45.0027C96.9872 45.0345 96.9175 45.051 96.8468 45.0506Z" fill="#E0E0E0"/>
<path d="M97.065 47.9357C96.9756 47.9362 96.8884 47.9098 96.8173 47.8604C96.7462 47.811 96.695 47.7415 96.6719 47.6627C96.6488 47.584 96.655 47.5005 96.6896 47.4254C96.7242 47.3502 96.7852 47.2877 96.863 47.2475L115.887 37.2416C115.934 37.2173 115.984 37.2015 116.037 37.1952C116.09 37.1888 116.144 37.1921 116.195 37.2047C116.247 37.2174 116.295 37.2392 116.337 37.2689C116.379 37.2986 116.414 37.3356 116.441 37.3777C116.494 37.4622 116.507 37.5623 116.479 37.6561C116.451 37.7498 116.384 37.8297 116.291 37.8782L97.267 47.8841C97.2058 47.9172 97.1362 47.935 97.065 47.9357Z" fill="#E0E0E0"/>
<path d="M97.2788 50.8171C97.1906 50.8163 97.1052 50.7892 97.0355 50.74C96.9658 50.6909 96.9156 50.6222 96.8928 50.5447C96.8699 50.4671 96.8755 50.3849 96.9087 50.3105C96.9419 50.2361 97.0009 50.1736 97.0768 50.1326L116.105 40.112C116.151 40.0854 116.203 40.0675 116.256 40.0594C116.31 40.0514 116.365 40.0533 116.418 40.0651C116.471 40.0769 116.521 40.0984 116.564 40.1282C116.608 40.1579 116.644 40.1954 116.672 40.2384C116.699 40.2814 116.716 40.3289 116.723 40.3782C116.73 40.4275 116.725 40.4774 116.71 40.5251C116.695 40.5728 116.669 40.6171 116.635 40.6556C116.6 40.694 116.557 40.7256 116.509 40.7486L97.4808 50.784C97.4177 50.8107 97.3481 50.8221 97.2788 50.8171Z" fill="#E0E0E0"/>
<path d="M97.4972 53.7023C97.4077 53.7028 97.3206 53.6764 97.2494 53.627C97.1783 53.5776 97.1271 53.5081 97.104 53.4293C97.0809 53.3506 97.0872 53.2671 97.1218 53.192C97.1563 53.1169 97.2173 53.0543 97.2952 53.0141L116.32 43.0082C116.366 42.9839 116.417 42.9681 116.469 42.9618C116.522 42.9554 116.576 42.9587 116.627 42.9713C116.679 42.984 116.727 43.0058 116.769 43.0355C116.811 43.0652 116.847 43.1022 116.873 43.1444C116.926 43.2288 116.94 43.3289 116.912 43.4227C116.883 43.5164 116.816 43.5963 116.724 43.6448L97.6992 53.6544C97.6376 53.6862 97.5679 53.7027 97.4972 53.7023Z" fill="#E0E0E0"/>
<path d="M80.3031 69.8207C80.2319 69.8209 80.1619 69.804 80.1002 69.7717C80.0385 69.7394 79.9872 69.6928 79.9516 69.6367C79.8989 69.5522 79.8851 69.4521 79.9131 69.3584C79.9411 69.2646 80.0087 69.1847 80.1011 69.1362L92.92 62.3981C93.0132 62.3493 93.1239 62.3362 93.2277 62.3618C93.3315 62.3873 93.4199 62.4494 93.4735 62.5343C93.5271 62.6192 93.5414 62.72 93.5134 62.8146C93.4853 62.9091 93.4172 62.9896 93.324 63.0384L80.5172 69.7728C80.4521 69.8066 80.378 69.8231 80.3031 69.8207Z" fill="#E0E0E0"/>
<path d="M80.5172 72.7058C80.4277 72.7064 80.3406 72.6799 80.2694 72.6305C80.1983 72.5811 80.1472 72.5116 80.1241 72.4329C80.101 72.3542 80.1072 72.2707 80.1418 72.1956C80.1764 72.1204 80.2373 72.0578 80.3152 72.0177L93.122 65.2833C93.168 65.2566 93.2194 65.2388 93.2731 65.2307C93.3269 65.2227 93.3819 65.2246 93.4348 65.2364C93.4877 65.2482 93.5375 65.2696 93.5811 65.2994C93.6247 65.3292 93.6612 65.3667 93.6885 65.4097C93.7157 65.4526 93.7332 65.5002 93.7398 65.5495C93.7463 65.5987 93.7419 65.6487 93.7267 65.6964C93.7115 65.744 93.6859 65.7884 93.6514 65.8268C93.6169 65.8652 93.5743 65.8969 93.526 65.9199L80.7192 72.6543C80.658 72.6874 80.5883 72.7052 80.5172 72.7058Z" fill="#E0E0E0"/>
<path d="M80.7353 75.5873C80.6472 75.5865 80.5617 75.5594 80.492 75.5102C80.4223 75.461 80.3722 75.3924 80.3493 75.3148C80.3264 75.2373 80.332 75.155 80.3652 75.0806C80.3985 75.0062 80.4575 74.9438 80.5333 74.9028L93.3401 68.1684C93.4324 68.1201 93.5419 68.107 93.6447 68.1318C93.7476 68.1566 93.8356 68.2173 93.8896 68.3009C93.9178 68.344 93.936 68.3919 93.9431 68.4417C93.9502 68.4915 93.946 68.542 93.9309 68.5903C93.9158 68.6385 93.89 68.6835 93.8551 68.7223C93.8202 68.7611 93.7769 68.793 93.728 68.8161L80.9212 75.5505C80.8633 75.5761 80.7996 75.5887 80.7353 75.5873Z" fill="#E0E0E0"/>
<path d="M80.9493 78.4724C80.8599 78.473 80.7727 78.4465 80.7016 78.3971C80.6304 78.3477 80.5793 78.2782 80.5562 78.1995C80.5331 78.1207 80.5393 78.0373 80.5739 77.9621C80.6085 77.887 80.6695 77.8244 80.7473 77.7842L93.5541 71.0498C93.6473 71.001 93.758 70.988 93.8618 71.0135C93.9656 71.039 94.054 71.1011 94.1076 71.186C94.1612 71.2709 94.1755 71.3717 94.1475 71.4663C94.1194 71.5608 94.0513 71.6414 93.9581 71.6902L81.1513 78.4246C81.0897 78.4563 81.0201 78.4728 80.9493 78.4724Z" fill="#E0E0E0"/>
<path d="M81.1676 81.3575C81.0781 81.3581 80.991 81.3316 80.9198 81.2822C80.8487 81.2328 80.7976 81.1633 80.7745 81.0846C80.7513 81.0059 80.7576 80.9224 80.7922 80.8472C80.8267 80.7721 80.8877 80.7095 80.9656 80.6694L93.7683 73.935C93.8144 73.9106 93.8654 73.8948 93.9182 73.8885C93.971 73.8822 94.0247 73.8854 94.0762 73.8981C94.1276 73.9108 94.1758 73.9326 94.218 73.9623C94.2601 73.9919 94.2954 74.0289 94.3218 74.0711C94.3745 74.1556 94.3883 74.2557 94.3603 74.3494C94.3323 74.4432 94.2647 74.523 94.1723 74.5716L81.3696 81.306C81.3084 81.3391 81.2387 81.3568 81.1676 81.3575Z" fill="#E0E0E0"/>
<path d="M101.149 67.9991L98.2284 69.5336L97.3921 58.3538L100.313 56.8192L101.149 67.9991Z" fill="#208667"/>
<g opacity="0.4">
<path d="M101.149 67.9991L98.2284 69.5336L97.3921 58.3538L100.313 56.8192L101.149 67.9991Z" fill="white"/>
</g>
<path d="M101.077 70.7959L98.6971 72.0471C98.5476 72.1243 98.4183 72.0471 98.4022 71.8741C98.3969 71.7843 98.4172 71.6947 98.4611 71.6141C98.505 71.5336 98.571 71.4646 98.6527 71.4141L101.028 70.1629C101.178 70.0819 101.311 70.1629 101.323 70.3359C101.328 70.4253 101.308 70.5143 101.265 70.5948C101.222 70.6752 101.157 70.7444 101.077 70.7959Z" fill="#455A64"/>
<path d="M105.29 65.8205L102.369 67.355L101.533 56.1789L104.454 54.6406L105.29 65.8205Z" fill="#208667"/>
<g opacity="0.2">
<path d="M105.29 65.8205L102.369 67.355L101.533 56.1789L104.454 54.6406L105.29 65.8205Z" fill="white"/>
</g>
<path d="M105.217 68.6173L102.842 69.8685C102.692 69.9457 102.559 69.8685 102.547 69.6955C102.541 69.606 102.56 69.5165 102.604 69.4359C102.647 69.3553 102.712 69.2862 102.793 69.2355L105.169 67.9843C105.318 67.9034 105.452 67.9843 105.464 68.1573C105.47 68.2468 105.45 68.3363 105.407 68.4169C105.364 68.4975 105.299 68.5665 105.217 68.6173Z" fill="#455A64"/>
<path d="M109.432 63.642L106.515 65.1766L105.674 54.0004L108.595 52.4622L109.432 63.642Z" fill="#208667"/>
<path d="M109.359 66.4388L106.983 67.69C106.834 67.7673 106.7 67.69 106.688 67.5171C106.683 67.4277 106.703 67.3386 106.746 67.2581C106.79 67.1777 106.854 67.1085 106.935 67.0571L109.314 65.8059C109.464 65.7286 109.593 65.8058 109.609 65.9788C109.614 66.0686 109.594 66.1582 109.55 66.2388C109.506 66.3194 109.44 66.3883 109.359 66.4388Z" fill="#455A64"/>
<path d="M113.577 61.4634L110.656 62.998L109.819 51.8218L112.74 50.2836L113.577 61.4634Z" fill="#208667"/>
<g opacity="0.7">
<path d="M113.577 61.4634L110.656 62.998L109.819 51.8218L112.74 50.2836L113.577 61.4634Z" fill="white"/>
</g>
<path d="M113.524 64.2602L111.144 65.5114C110.995 65.5887 110.866 65.5114 110.849 65.3385C110.844 65.2486 110.864 65.1591 110.908 65.0785C110.952 64.9979 111.018 64.929 111.1 64.8785L113.475 63.6273C113.625 63.55 113.758 63.6273 113.77 63.8002C113.775 63.8896 113.755 63.9787 113.712 64.0591C113.669 64.1396 113.604 64.2087 113.524 64.2602Z" fill="#455A64"/>
<path d="M117.717 59.2848L114.796 60.8194L113.96 49.6432L116.881 48.105L117.717 59.2848Z" fill="#208667"/>
<g opacity="0.2">
<path d="M117.717 59.2848L114.796 60.8194L113.96 49.6432L116.881 48.105L117.717 59.2848Z" fill="white"/>
</g>
<path d="M117.645 62.0816L115.269 63.3328C115.12 63.4101 114.986 63.3328 114.974 63.1599C114.968 63.0703 114.988 62.9809 115.031 62.9003C115.074 62.8196 115.139 62.7506 115.221 62.6999L117.596 61.4487C117.746 61.3714 117.879 61.4487 117.891 61.6216C117.897 61.7112 117.878 61.8006 117.834 61.8812C117.791 61.9619 117.726 62.0309 117.645 62.0816Z" fill="#455A64"/>
<path d="M44.0601 149.912L44.6539 150.221L45.365 150.589L82.4522 170.148C82.234 169.696 82.4077 168.794 82.9127 167.94C83.5026 166.932 84.4075 166.134 85.058 166.1L48.1607 146.641L46.7951 145.927C47.6718 146.431 44.9246 150.409 44.0601 149.912Z" fill="#455A64"/>
<path d="M48.0961 146.6L46.775 145.912C46.3993 145.702 45.6883 146.317 45.0661 147.13C44.2339 148.208 43.5592 149.636 44.0561 149.916L45.0297 150.424L45.3812 150.6C44.8843 150.321 45.5549 148.893 46.3872 147.814C46.9851 147.034 47.6719 146.438 48.0557 146.582C48.071 146.584 48.0851 146.59 48.0961 146.6Z" fill="#EBEBEB"/>
<path d="M47.7649 146.431C46.8963 145.941 44.1774 149.942 45.046 150.431L46.367 151.123C45.4944 150.633 48.2133 146.633 49.086 147.123L47.7649 146.431Z" fill="#208667"/>
<path d="M50.3426 147.785L49.0417 147.101C48.1893 146.611 45.5229 150.449 46.246 151.06L46.2905 151.093L47.6075 151.771C46.755 151.266 49.478 147.288 50.3426 147.785Z" fill="#EBEBEB"/>
<path d="M46.7955 145.916C46.4238 145.699 45.7128 146.317 45.0866 147.134C44.2786 148.19 43.5918 149.588 44.0564 149.901L38.5539 147.02C38.3458 146.87 38.1919 146.667 38.112 146.436C38.032 146.206 38.0297 145.959 38.1054 145.728C38.4125 144.256 40.287 142.416 41.4748 143.152L46.7955 145.916Z" fill="#F28F8F"/>
<path d="M88.5729 170.34C88.1164 170.903 88.1689 171.179 88.1689 171.179L82.4644 170.156C81.8948 169.365 82.2665 168.088 83.0502 167.175L83.3007 167.304L88.5729 170.34Z" fill="#F28F8F"/>
<path d="M89.7161 171.455L88.1607 171.179C88.1607 171.179 88.092 170.903 88.5647 170.34L89.9181 171.12C89.9588 171.158 89.9816 171.209 89.9816 171.262C89.9816 171.315 89.9588 171.365 89.9181 171.403C89.8921 171.427 89.8599 171.444 89.8245 171.453C89.7891 171.462 89.7518 171.463 89.7161 171.455Z" fill="#37474F"/>
<path d="M85.0542 166.093L88.9689 170.141C88.813 170.162 88.6702 170.233 88.5649 170.34L83.2847 167.304L83.0342 167.175C83.2635 166.871 83.5632 166.617 83.9123 166.43C84.2613 166.243 84.6511 166.128 85.0542 166.093Z" fill="#FFA8A7"/>
<path d="M88.5732 170.34C88.6199 170.281 88.6804 170.233 88.7503 170.198C88.8203 170.164 88.8978 170.144 88.9772 170.141L89.9266 171.12L88.5732 170.34Z" fill="#455A64"/>
<path opacity="0.2" d="M83.0422 167.175L38.6588 144.491C38.3917 144.869 38.204 145.288 38.1053 145.728C38.0233 145.96 38.0203 146.208 38.0967 146.442C38.1732 146.675 38.3255 146.882 38.5336 147.034L44.0603 149.93L44.6542 150.24L45.3652 150.608L82.4524 170.167C81.7575 169.177 82.5211 167.731 83.0422 167.175Z" fill="black"/>
<path d="M15.4085 144.227C12.1765 141.172 10.2534 133.459 13.4208 131.037H29.5404C32.7077 133.459 30.8009 141.169 27.5527 144.223L27.4679 144.308L27.3547 144.407C27.2618 144.488 27.1649 144.569 27.0598 144.646L26.9831 144.705C26.9023 144.76 26.8255 144.819 26.7366 144.874C26.6071 144.963 26.4722 145.046 26.3326 145.121C23.6622 146.541 19.3313 146.541 16.6609 145.121C16.5212 145.044 16.3863 144.961 16.2569 144.871C16.1761 144.819 16.1033 144.768 16.0266 144.712C15.9938 144.691 15.9628 144.668 15.9337 144.642C15.8334 144.57 15.7377 144.493 15.6468 144.411L15.5216 144.297L15.4085 144.227Z" fill="#37474F"/>
<path d="M28.1384 130.062C31.8188 132.016 31.8188 135.189 28.1384 137.146C24.4579 139.104 18.4989 139.1 14.8064 137.146C11.1138 135.192 11.1259 132.016 14.8064 130.062C18.4868 128.108 24.462 128.105 28.1384 130.062Z" fill="#455A64"/>
<path d="M26.3689 131.008C29.0717 132.447 29.0717 134.776 26.3689 136.212C23.6661 137.647 19.2908 137.647 16.5881 136.212C13.8853 134.776 13.8893 132.447 16.5881 131.008C19.2868 129.569 23.6702 129.565 26.3689 131.008Z" fill="#263238"/>
<path d="M16.5921 133.47C19.2908 132.035 23.6702 132.035 26.3689 133.47C27.0233 133.798 27.5785 134.268 27.9849 134.839C27.5771 135.408 27.0222 135.877 26.3689 136.204C23.6702 137.639 19.2908 137.639 16.5921 136.204C15.9388 135.877 15.3839 135.408 14.9761 134.839C15.3824 134.268 15.9376 133.798 16.5921 133.47Z" fill="white"/>
<path d="M19.2751 119.357C18.1884 120.608 14.916 121.16 13.2879 118.091C11.7607 115.217 10.1447 112.501 9.65186 111.438C9.58389 111.3 9.54726 111.151 9.54416 110.999C9.54106 110.848 9.57156 110.698 9.63382 110.558C9.69609 110.417 9.78883 110.29 9.90648 110.183C10.0241 110.076 10.1643 109.992 10.3185 109.936C10.3185 109.936 10.274 108.302 13.401 109.2C16.5279 110.098 18.8025 111.622 20.3498 114.242C21.8971 116.862 21.2749 118.864 19.2751 119.357Z" fill="#208667"/>
<g opacity="0.5">
<path d="M19.2751 119.357C18.1884 120.608 14.916 121.16 13.2879 118.091C11.7607 115.217 10.1447 112.501 9.65186 111.438C9.58389 111.3 9.54726 111.151 9.54416 110.999C9.54106 110.848 9.57156 110.698 9.63382 110.558C9.69609 110.417 9.78883 110.29 9.90648 110.183C10.0241 110.076 10.1643 109.992 10.3185 109.936C10.3185 109.936 10.274 108.302 13.401 109.2C16.5279 110.098 18.8025 111.622 20.3498 114.242C21.8971 116.862 21.2749 118.864 19.2751 119.357Z" fill="white"/>
</g>
<path d="M20.9355 123.446C20.8354 122.896 20.7005 122.351 20.5315 121.815C20.1898 120.751 19.7645 119.711 19.2589 118.702C18.2299 116.649 16.88 114.743 15.2512 113.042C14.346 112.07 13.3423 111.178 12.2535 110.378C12.2172 110.356 12.201 110.422 12.2212 110.44C14.063 111.954 15.672 113.687 17.0046 115.592C18.2905 117.465 19.3049 119.481 20.0224 121.591C20.2204 122.18 20.4264 122.776 20.584 123.372C20.7416 123.968 20.883 124.597 21.0486 125.212C21.0486 125.275 21.1698 125.304 21.1698 125.212C21.1409 124.619 21.0626 124.028 20.9355 123.446Z" fill="#208667"/>
<path opacity="0.3" d="M20.9355 123.446C20.8354 122.896 20.7005 122.351 20.5315 121.815C20.1898 120.751 19.7645 119.711 19.2589 118.702C18.2299 116.649 16.88 114.743 15.2512 113.042C14.346 112.07 13.3423 111.178 12.2535 110.378C12.2172 110.356 12.201 110.422 12.2212 110.44C14.063 111.954 15.672 113.687 17.0046 115.592C18.2905 117.465 19.3049 119.481 20.0224 121.591C20.2204 122.18 20.4264 122.776 20.584 123.372C20.7416 123.968 20.883 124.597 21.0486 125.212C21.0486 125.275 21.1698 125.304 21.1698 125.212C21.1409 124.619 21.0626 124.028 20.9355 123.446Z" fill="black"/>
<path d="M22.8179 117.16C19.9899 117.959 17.8729 115.942 18.6042 112.777C19.3354 109.612 22.9795 106.105 24.3571 107.047C25.2177 106.264 27.1124 106.547 27.9931 109.116C28.8739 111.684 28.0861 118.279 22.8179 117.16Z" fill="#208667"/>
<g opacity="0.3">
<path d="M22.8179 117.16C19.9899 117.959 17.8729 115.942 18.6042 112.777C19.3354 109.612 22.9795 106.105 24.3571 107.047C25.2177 106.264 27.1124 106.547 27.9931 109.116C28.8739 111.684 28.0861 118.279 22.8179 117.16Z" fill="white"/>
</g>
<path d="M24.4826 108.972C23.6763 110.813 23.0451 112.714 22.5959 114.654C22.112 116.618 21.7465 118.604 21.5011 120.605C20.992 124.469 20.9072 124.255 20.9314 128.141C20.9314 129.219 20.9597 130.294 20.9799 131.369C21.0001 132.443 20.9799 133.599 21.089 134.681C21.1294 135.104 21.7879 134.99 21.796 134.603C21.8404 132.668 21.7233 130.721 21.699 128.785C21.6761 128.244 21.6895 127.702 21.7394 127.162C21.814 123.272 22.1975 119.392 22.8868 115.552C23.0888 114.481 23.315 113.41 23.5897 112.35C23.8645 111.291 24.2321 110.142 24.5513 109.038C24.5674 108.972 24.5109 108.928 24.4826 108.972Z" fill="#208667"/>
<path opacity="0.3" d="M24.4826 108.972C23.6763 110.813 23.0451 112.714 22.5959 114.654C22.112 116.618 21.7465 118.604 21.5011 120.605C20.992 124.469 20.9072 124.255 20.9314 128.141C20.9314 129.219 20.9597 130.294 20.9799 131.369C21.0001 132.443 20.9799 133.599 21.089 134.681C21.1294 135.104 21.7879 134.99 21.796 134.603C21.8404 132.668 21.7233 130.721 21.699 128.785C21.6761 128.244 21.6895 127.702 21.7394 127.162C21.814 123.272 22.1975 119.392 22.8868 115.552C23.0888 114.481 23.315 113.41 23.5897 112.35C23.8645 111.291 24.2321 110.142 24.5513 109.038C24.5674 108.972 24.5109 108.928 24.4826 108.972Z" fill="black"/>
<path d="M16.253 125.705C15.8894 127.38 13.3765 128.587 10.4677 127.49C7.55895 126.393 1.83023 119.515 4.44411 118.754C4.30271 117.506 12.2171 116.479 16.1359 120.877C18.9881 124.075 16.253 125.705 16.253 125.705Z" fill="#208667"/>
<g opacity="0.7">
<path d="M16.253 125.705C15.8894 127.38 13.3765 128.587 10.4677 127.49C7.55895 126.393 1.83023 119.515 4.44411 118.754C4.30271 117.506 12.2171 116.479 16.1359 120.877C18.9881 124.075 16.253 125.705 16.253 125.705Z" fill="white"/>
</g>
<path d="M20.4102 128.189C20.0446 127.772 19.6492 127.377 19.2265 127.008C18.3784 126.243 17.4884 125.517 16.5601 124.833C14.6545 123.45 12.5997 122.246 10.4274 121.241C9.231 120.659 7.99492 120.148 6.72677 119.71C6.69445 119.71 6.72677 119.758 6.72677 119.769C7.78525 120.226 8.84373 120.667 9.86585 121.186C10.9193 121.728 11.9414 122.319 12.9282 122.956C14.846 124.175 16.656 125.528 18.3418 127.004C18.8185 127.424 19.275 127.862 19.7558 128.277C20.2365 128.693 20.7981 129.102 21.2748 129.551C21.3475 129.617 21.4728 129.587 21.396 129.492C21.0728 129.054 20.7658 128.609 20.4102 128.189Z" fill="#208667"/>
<path opacity="0.3" d="M20.4102 128.189C20.0446 127.772 19.6492 127.377 19.2265 127.008C18.3784 126.243 17.4884 125.517 16.5601 124.833C14.6545 123.45 12.5997 122.246 10.4274 121.241C9.231 120.659 7.99492 120.148 6.72677 119.71C6.69445 119.71 6.72677 119.758 6.72677 119.769C7.78525 120.226 8.84373 120.667 9.86585 121.186C10.9193 121.728 11.9414 122.319 12.9282 122.956C14.846 124.175 16.656 125.528 18.3418 127.004C18.8185 127.424 19.275 127.862 19.7558 128.277C20.2365 128.693 20.7981 129.102 21.2748 129.551C21.3475 129.617 21.4728 129.587 21.396 129.492C21.0728 129.054 20.7658 128.609 20.4102 128.189Z" fill="black"/>
<path d="M32.3402 123.688C32.2918 122.746 27.0882 122.798 24.64 124.586C22.1918 126.375 21.909 128.13 23.428 128.741C23.1614 130.728 26.6075 132.053 29.694 129.551C32.7806 127.048 33.4553 123.887 32.3402 123.688Z" fill="#208667"/>
<path opacity="0.3" d="M32.3402 123.688C32.2918 122.746 27.0882 122.798 24.64 124.586C22.1918 126.375 21.909 128.13 23.428 128.741C23.1614 130.728 26.6075 132.053 29.694 129.551C32.7806 127.048 33.4553 123.887 32.3402 123.688Z" fill="white"/>
<path d="M27.2094 126.18C24.8197 127.145 22.8109 128.753 21.4524 130.787C21.3756 130.901 21.5736 131.126 21.6584 131.001C23.0214 128.994 24.9345 127.345 27.2094 126.217C27.2094 126.217 27.2296 126.169 27.2094 126.18Z" fill="#208667"/>
<path opacity="0.3" d="M27.2094 126.18C24.8197 127.145 22.8109 128.753 21.4524 130.787C21.3756 130.901 21.5736 131.126 21.6584 131.001C23.0214 128.994 24.9345 127.345 27.2094 126.217C27.2094 126.217 27.2296 126.169 27.2094 126.18Z" fill="black"/>
<path d="M23.7431 131.799C21.9776 133.378 23.9289 135.332 26.7893 136.3C29.2154 137.041 31.8582 136.93 34.1986 135.987C35.5763 135.361 35.8631 135.045 35.8631 135.045C35.5044 133.936 35.014 132.866 34.4006 131.854C33.6434 130.773 32.5603 129.913 31.2808 129.377C30.0012 128.841 28.5794 128.652 27.1852 128.833C23.5209 129.26 23.2219 130.64 23.7431 131.799Z" fill="#208667"/>
<g opacity="0.5">
<path d="M23.7431 131.799C21.9776 133.378 23.9289 135.332 26.7893 136.3C29.2154 137.041 31.8582 136.93 34.1986 135.987C35.5763 135.361 35.8631 135.045 35.8631 135.045C35.5044 133.936 35.014 132.866 34.4006 131.854C33.6434 130.773 32.5603 129.913 31.2808 129.377C30.0012 128.841 28.5794 128.652 27.1852 128.833C23.5209 129.26 23.2219 130.64 23.7431 131.799Z" fill="white"/>
</g>
<path d="M31.1486 132.984C29.7314 132.306 28.2242 131.798 26.6642 131.472C25.129 131.203 23.2423 131.188 21.998 132.186C21.5172 132.572 20.8749 133.407 21.2667 134C21.3071 134.059 21.5011 134.169 21.5455 134.051C21.6379 133.672 21.7732 133.302 21.9495 132.947C22.1817 132.598 22.5142 132.313 22.911 132.123C23.9112 131.671 25.0351 131.497 26.143 131.623C27.8923 131.773 29.5326 132.414 31.1405 133.014C31.1647 133.028 31.1647 132.988 31.1486 132.984Z" fill="#208667"/>
<path opacity="0.3" d="M31.1486 132.984C29.7314 132.306 28.2242 131.798 26.6642 131.472C25.129 131.203 23.2423 131.188 21.998 132.186C21.5172 132.572 20.8749 133.407 21.2667 134C21.3071 134.059 21.5011 134.169 21.5455 134.051C21.6379 133.672 21.7732 133.302 21.9495 132.947C22.1817 132.598 22.5142 132.313 22.911 132.123C23.9112 131.671 25.0351 131.497 26.143 131.623C27.8923 131.773 29.5326 132.414 31.1405 133.014C31.1647 133.028 31.1647 132.988 31.1486 132.984Z" fill="black"/>
<path d="M24.2402 121.848C23.7999 123.262 25.7754 124.579 28.2398 123.825C30.7042 123.07 33.2575 122.353 35.3543 122.353C37.451 122.353 38.7842 121.072 38.3398 120.215C37.8954 119.357 37.3985 117.355 32.0536 116.781C26.7087 116.207 24.2928 117.926 23.1656 119.269C22.0384 120.612 23.3353 122.088 24.2402 121.848Z" fill="#208667"/>
<g opacity="0.7">
<path d="M24.2402 121.848C23.7999 123.262 25.7754 124.579 28.2398 123.825C30.7042 123.07 33.2575 122.353 35.3543 122.353C37.451 122.353 38.7842 121.072 38.3398 120.215C37.8954 119.357 37.3985 117.355 32.0536 116.781C26.7087 116.207 24.2928 117.926 23.1656 119.269C22.0384 120.612 23.3353 122.088 24.2402 121.848Z" fill="white"/>
</g>
<path d="M34.1622 118.882C33.5964 118.767 33.0165 118.719 32.4371 118.739C31.8782 118.74 31.3202 118.782 30.7686 118.864C29.6833 119.037 28.6269 119.336 27.6255 119.755C25.7469 120.513 23.8844 121.503 22.6643 123.045C22.0047 123.868 21.4744 124.771 21.0887 125.727C21.0201 125.908 21.4039 126.011 21.4927 125.849C21.8811 125.045 22.3279 124.265 22.83 123.516C23.3727 122.756 24.0676 122.097 24.8783 121.573C26.5792 120.46 28.4995 119.657 30.5343 119.206C31.1295 119.081 31.7347 119 32.3442 118.963C32.951 118.955 33.5578 118.976 34.1622 119.026C34.2551 119.03 34.2187 118.897 34.1622 118.882Z" fill="#208667"/>
<path opacity="0.3" d="M34.1622 118.882C33.5964 118.767 33.0165 118.719 32.4371 118.739C31.8782 118.74 31.3202 118.782 30.7686 118.864C29.6833 119.037 28.6269 119.336 27.6255 119.755C25.7469 120.513 23.8844 121.503 22.6643 123.045C22.0047 123.868 21.4744 124.771 21.0887 125.727C21.0201 125.908 21.4039 126.011 21.4927 125.849C21.8811 125.045 22.3279 124.265 22.83 123.516C23.3727 122.756 24.0676 122.097 24.8783 121.573C26.5792 120.46 28.4995 119.657 30.5343 119.206C31.1295 119.081 31.7347 119 32.3442 118.963C32.951 118.955 33.5578 118.976 34.1622 119.026C34.2551 119.03 34.2187 118.897 34.1622 118.882Z" fill="black"/>
<path d="M19.8446 129.808C19.4406 128.358 17.4206 127.541 14.7663 127.365C13.4642 127.257 12.1552 127.489 10.9917 128.032C9.82814 128.575 8.85774 129.408 8.19326 130.434C6.81158 132.587 6.2379 134.298 7.07822 134.581C7.91854 134.865 11.4657 135.317 13.7563 135.494C16.047 135.671 18.9114 135.306 20.7779 133.72C22.6443 132.134 22.0303 130.143 19.8446 129.808Z" fill="#208667"/>
<path opacity="0.3" d="M19.8446 129.808C19.4406 128.358 17.4206 127.541 14.7663 127.365C13.4642 127.257 12.1552 127.489 10.9917 128.032C9.82814 128.575 8.85774 129.408 8.19326 130.434C6.81158 132.587 6.2379 134.298 7.07822 134.581C7.91854 134.865 11.4657 135.317 13.7563 135.494C16.047 135.671 18.9114 135.306 20.7779 133.72C22.6443 132.134 22.0303 130.143 19.8446 129.808Z" fill="white"/>
<path d="M19.9415 129.617C19.01 129.398 18.039 129.357 17.0892 129.496C16.1726 129.596 15.2705 129.786 14.3986 130.062C13.4769 130.36 12.5849 130.73 11.7322 131.166C11.2838 131.387 10.8434 131.626 10.4152 131.876C10.001 132.095 9.60536 132.341 9.23145 132.612C9.23145 132.612 9.23145 132.671 9.23145 132.66C9.69605 132.48 10.1 132.233 10.504 132.02C10.908 131.807 11.4009 131.567 11.8574 131.354C12.709 130.955 13.5922 130.614 14.4996 130.335C15.4082 130.055 16.3489 129.871 17.3034 129.786C18.1953 129.744 19.0894 129.765 19.9778 129.849C20.1556 129.86 20.0546 129.65 19.9415 129.617Z" fill="#208667"/>
<path opacity="0.3" d="M19.9415 129.617C19.01 129.398 18.039 129.357 17.0892 129.496C16.1726 129.596 15.2705 129.786 14.3986 130.062C13.4769 130.36 12.5849 130.73 11.7322 131.166C11.2838 131.387 10.8434 131.626 10.4152 131.876C10.001 132.095 9.60536 132.341 9.23145 132.612C9.23145 132.612 9.23145 132.671 9.23145 132.66C9.69605 132.48 10.1 132.233 10.504 132.02C10.908 131.807 11.4009 131.567 11.8574 131.354C12.709 130.955 13.5922 130.614 14.4996 130.335C15.4082 130.055 16.3489 129.871 17.3034 129.786C18.1953 129.744 19.0894 129.765 19.9778 129.849C20.1556 129.86 20.0546 129.65 19.9415 129.617Z" fill="black"/>
<path d="M135.308 80.2498L138.471 63.6198L140.491 63.5278L136.33 80.2498C136.321 80.2835 136.304 80.3153 136.281 80.3431C136.258 80.371 136.229 80.3943 136.196 80.4117C136.089 80.4685 135.968 80.5012 135.843 80.507C135.719 80.5127 135.595 80.4914 135.481 80.4448C135.437 80.4294 135.399 80.4028 135.371 80.3683C135.343 80.3337 135.327 80.2926 135.324 80.2498H135.308Z" fill="#263238"/>
<path d="M165.083 60.8856H167.103L171.817 78.1816C171.817 78.2241 171.803 78.2655 171.777 78.3008C171.751 78.3362 171.715 78.3638 171.672 78.3803C171.561 78.4329 171.439 78.4604 171.314 78.4604C171.19 78.4604 171.067 78.4329 170.957 78.3803C170.923 78.3649 170.893 78.3432 170.868 78.3166C170.844 78.29 170.826 78.2591 170.815 78.2258L165.083 60.8856Z" fill="#37474F"/>
<path d="M151.213 88.1765L151.302 69.5483L153.322 69.4563L152.239 88.1728C152.231 88.2076 152.216 88.2404 152.193 88.269C152.17 88.2977 152.14 88.3213 152.106 88.3384C151.998 88.393 151.878 88.4244 151.754 88.4301C151.631 88.4359 151.508 88.4158 151.395 88.3715C151.35 88.3569 151.311 88.3306 151.283 88.2958C151.255 88.2611 151.239 88.2195 151.237 88.1765H151.213Z" fill="#37474F"/>
<path d="M154.138 55.0896H156.158L159.366 73.4454C159.365 73.4881 159.35 73.5296 159.325 73.5653C159.299 73.601 159.263 73.6296 159.22 73.6478C159.109 73.6978 158.987 73.7238 158.863 73.7238C158.739 73.7238 158.617 73.6978 158.505 73.6478C158.47 73.6322 158.439 73.61 158.414 73.5828C158.389 73.5555 158.371 73.5238 158.36 73.4896L154.138 55.0896Z" fill="#263238"/>
<path d="M170.856 40.7118C171.311 41.7353 171.584 42.8187 171.664 43.9208C171.894 46.379 170.981 54.3389 170.431 57.9048C169.623 63.8517 168.666 63.8627 167.252 64.86C164.828 66.5712 157.819 69.9274 155.508 70.748C151.318 72.2494 147.896 69.9347 145.343 68.7866C142.999 67.7087 140.737 66.4891 138.572 65.136C137.934 64.7128 137.602 64.2822 137.61 63.8333C137.61 63.6566 137.61 62.9243 137.61 62.7293C137.61 62.1552 138.168 61.5406 139.34 60.8488C141.501 59.5682 149.322 55.4134 152.352 53.8862C152.352 53.8804 152.355 53.8748 152.36 53.8706C152.364 53.8665 152.37 53.8642 152.377 53.8642C154.708 52.5725 156.11 43.8104 157.726 39.1442C157.762 39.0448 157.794 38.9491 157.831 38.8571C157.867 38.7651 157.887 38.7099 157.916 38.64C158.017 38.3861 158.122 38.1542 158.231 37.9408" fill="#208667"/>
<path d="M137.606 62.7366C137.606 62.1625 138.164 61.548 139.336 60.8561C141.497 59.5755 149.318 55.4208 152.348 53.8936C152.348 53.8877 152.351 53.8821 152.356 53.878C152.36 53.8738 152.366 53.8715 152.373 53.8715C154.704 52.5798 156.106 43.8177 157.722 39.1515C157.819 38.8607 157.932 38.5745 158.061 38.294C158.061 38.272 158.081 38.2536 158.089 38.2315C158.097 38.2094 158.15 38.1064 158.182 38.0438C158.214 37.9812 158.21 37.9776 158.227 37.9481C158.48 37.4159 158.847 36.9344 159.305 36.5313C159.461 36.395 159.638 36.2809 159.83 36.1928L160.792 35.696C162.376 34.8348 164.452 35.8689 167.038 37.168C168.654 37.9739 170.023 38.927 170.86 40.7081C171.316 41.7316 171.588 42.815 171.668 43.9171C171.898 46.3753 170.985 54.3352 170.435 57.9011C169.627 63.848 168.67 63.859 167.256 64.8563C164.832 66.5675 157.823 69.9236 155.512 70.7443C151.322 72.2457 147.9 69.931 145.347 68.7828C143.002 67.7063 140.738 66.488 138.572 65.136C137.934 64.7128 137.602 64.2822 137.61 63.8333C137.61 63.664 137.606 62.928 137.606 62.7366Z" fill="#208667"/>
<path opacity="0.3" d="M137.606 62.7366C137.606 62.1625 138.164 61.548 139.336 60.8561C141.497 59.5755 149.318 55.4208 152.348 53.8936C152.348 53.8877 152.351 53.8821 152.356 53.878C152.36 53.8738 152.366 53.8715 152.373 53.8715C154.704 52.5798 156.106 43.8177 157.722 39.1515C157.819 38.8607 157.932 38.5745 158.061 38.294C158.061 38.272 158.081 38.2536 158.089 38.2315C158.097 38.2094 158.15 38.1064 158.182 38.0438C158.214 37.9812 158.21 37.9776 158.227 37.9481C158.48 37.4159 158.847 36.9344 159.305 36.5313C159.461 36.395 159.638 36.2809 159.83 36.1928L160.792 35.696C162.376 34.8348 164.452 35.8689 167.038 37.168C168.654 37.9739 170.023 38.927 170.86 40.7081C171.316 41.7316 171.588 42.815 171.668 43.9171C171.898 46.3753 170.985 54.3352 170.435 57.9011C169.627 63.848 168.67 63.859 167.256 64.8563C164.832 66.5675 157.823 69.9236 155.512 70.7443C151.322 72.2457 147.9 69.931 145.347 68.7828C143.002 67.7063 140.738 66.488 138.572 65.136C137.934 64.7128 137.602 64.2822 137.61 63.8333C137.61 63.664 137.606 62.928 137.606 62.7366Z" fill="black"/>
<path d="M145.335 67.6789C142.995 66.6007 140.736 65.3824 138.572 64.032C137.122 63.0715 137.255 62.089 139.336 60.8598C142.224 59.1523 154.013 53.0582 154.013 53.0582C154.013 53.0582 168.913 61.0659 168.27 62.56C167.628 64.0541 158.405 68.6136 155.5 69.655C151.31 71.1418 147.888 68.816 145.335 67.6789Z" fill="#208667"/>
<g opacity="0.2">
<path d="M145.335 67.6789C142.995 66.6007 140.736 65.3824 138.572 64.032C137.122 63.0715 137.255 62.089 139.336 60.8598C142.224 59.1523 154.013 53.0582 154.013 53.0582C154.013 53.0582 168.913 61.0659 168.27 62.56C167.628 64.0541 158.405 68.6136 155.5 69.655C151.31 71.1418 147.888 68.816 145.335 67.6789Z" fill="white"/>
</g>
<path d="M159.834 36.1964C161.402 35.4604 163.442 36.465 165.963 37.7236C167.579 38.5295 168.953 39.4863 169.789 41.2748L170.856 40.7117C170.019 38.9306 168.646 37.9775 167.034 37.1716C164.448 35.8799 162.372 34.8458 160.788 35.6996L159.834 36.1964Z" fill="#208667"/>
<path opacity="0.5" d="M159.834 36.1964C161.402 35.4604 163.442 36.465 165.963 37.7236C167.579 38.5295 168.953 39.4863 169.789 41.2748L170.856 40.7117C170.019 38.9306 168.646 37.9775 167.034 37.1716C164.448 35.8799 162.372 34.8458 160.788 35.6996L159.834 36.1964Z" fill="white"/>
<path d="M152.373 53.8715C152.373 53.8715 153.892 54.3241 159.313 56.7493C161.535 57.7429 163.002 58.7475 165.082 59.9435C168.149 61.6989 167.91 63.0053 167.91 63.0053C169.433 61.8534 170.953 48.5097 170.577 44.4691C170.499 43.3119 170.204 42.1755 169.704 41.1093L169.579 40.8737L169.49 40.7155L169.442 40.6419C169.326 40.4472 169.198 40.2592 169.058 40.0789L168.957 39.9501L168.848 39.8213L168.739 39.6961L168.646 39.5968C168.474 39.4141 168.291 39.2408 168.096 39.0779C168.048 39.0337 167.999 38.9933 167.951 38.9565C167.645 38.7123 167.321 38.4873 166.981 38.283L166.824 38.191L166.61 38.0696L166.432 37.9739C166.274 37.8893 166.117 37.8046 165.955 37.7237C164.024 36.7632 162.408 35.9389 161.022 35.9389C160.39 35.9365 159.779 36.149 159.309 36.535C158.295 37.3446 157.758 39.0558 157.722 39.1552C156.106 43.8177 154.704 52.5798 152.373 53.8715Z" fill="#208667"/>
<path d="M189.165 141.835L186.608 122.386L184.515 122.29L188.111 141.831C188.118 141.867 188.134 141.9 188.158 141.93C188.182 141.959 188.213 141.983 188.248 142C188.361 142.058 188.487 142.092 188.617 142.099C188.747 142.105 188.876 142.084 188.995 142.037C189.041 142.021 189.081 141.994 189.109 141.958C189.138 141.922 189.155 141.879 189.157 141.835H189.165Z" fill="#263238"/>
<path d="M160.513 120.623H158.421L155.375 138.986C155.374 139.031 155.389 139.075 155.416 139.113C155.443 139.15 155.482 139.179 155.528 139.196C155.643 139.25 155.77 139.278 155.9 139.278C156.029 139.278 156.157 139.25 156.271 139.196C156.308 139.181 156.34 139.158 156.366 139.13C156.392 139.102 156.411 139.069 156.421 139.034L160.513 120.623Z" fill="#37474F"/>
<path d="M158.421 120.623L157.56 125.749C158.06 126.102 158.602 126.402 159.176 126.644L160.513 120.623H158.421Z" fill="#263238"/>
<path d="M175.178 148.352L173.211 128.579L171.118 128.484L174.124 148.356C174.131 148.392 174.148 148.426 174.171 148.456C174.195 148.486 174.226 148.511 174.261 148.528C174.374 148.588 174.5 148.623 174.631 148.629C174.761 148.634 174.89 148.611 175.009 148.562C175.055 148.546 175.095 148.519 175.124 148.483C175.154 148.447 175.171 148.404 175.174 148.359L175.178 148.352Z" fill="#37474F"/>
<path d="M173.498 131.468L173.211 128.579L171.118 128.484L171.591 131.608C172.229 131.711 172.886 131.663 173.498 131.468Z" fill="#263238"/>
<path d="M171.939 114.573H169.846L166.8 132.936C166.8 132.981 166.814 133.024 166.84 133.062C166.867 133.099 166.905 133.128 166.949 133.146C167.065 133.199 167.193 133.226 167.323 133.226C167.453 133.226 167.581 133.199 167.697 133.146C167.734 133.13 167.766 133.107 167.792 133.079C167.818 133.05 167.836 133.016 167.846 132.98L171.939 114.573Z" fill="#263238"/>
<path d="M157.132 120.244C156.837 118.743 158.182 117.569 160.715 116.012C163.064 114.604 165.52 113.35 168.064 112.258C170.181 111.375 172.347 111.456 175.057 112.726C178.823 114.488 190.151 120.744 190.151 120.744C190.151 120.744 173.211 129.459 169.951 129.069C166.691 128.679 158.546 123.85 157.9 122.154C157.253 120.457 157.132 120.244 157.132 120.244Z" fill="#208667"/>
<g opacity="0.6">
<path d="M157.132 120.244C156.837 118.743 158.182 117.569 160.715 116.012C163.064 114.604 165.52 113.35 168.064 112.258C170.181 111.375 172.347 111.456 175.057 112.726C178.823 114.488 190.151 120.744 190.151 120.744C190.151 120.744 173.211 129.459 169.951 129.069C166.691 128.679 158.546 123.85 157.9 122.154C157.253 120.457 157.132 120.244 157.132 120.244Z" fill="white"/>
</g>
<path d="M171.571 127.236C169.147 129.242 166.598 127.516 162.578 125.138C158.025 122.448 157.132 120.244 157.132 120.244C157.132 120.244 157.132 121.896 157.471 122.669C157.811 123.442 158.546 124.318 161.83 126.379C165.115 128.439 167.486 129.473 169.696 129.856L171.437 129.635" fill="#208667"/>
<path opacity="0.25" d="M162.578 125.138C158.025 122.448 157.132 120.244 157.132 120.244C157.132 120.244 157.132 121.896 157.471 122.669C157.811 123.442 158.546 124.318 161.83 126.379C165.115 128.439 167.486 129.473 169.696 129.856L171.437 129.635L171.571 127.236C169.139 129.242 166.598 127.516 162.578 125.138Z" fill="white"/>
<path d="M171.438 129.635C172.823 129.573 173.906 128.645 177.199 127.398C183.279 125.091 187.86 123.243 189.577 120.336C191.294 117.429 192.542 104.424 192.11 100.799C192.068 100.388 191.967 99.9832 191.811 99.5955L192.239 99.5403L191.133 98.6829C189.993 97.8402 188.147 98.5909 186.753 99.2827C182.774 101.255 179.659 103.173 177.199 110.095C175.348 115.302 174.128 124.689 171.571 127.229" fill="#208667"/>
<path opacity="0.25" d="M191.811 99.6029L192.239 99.5477L191.133 98.6902C189.993 97.8475 188.147 98.5982 186.753 99.2901C182.774 101.263 179.659 103.18 177.199 110.102C175.348 115.309 174.128 124.697 171.571 127.236L171.438 129.635C172.823 129.573 173.906 128.645 177.199 127.398C183.279 125.091 187.86 123.243 189.577 120.336C191.294 117.429 192.542 104.424 192.11 100.799C192.067 100.39 191.967 99.9882 191.811 99.6029Z" fill="white"/>
<path d="M187.808 99.7574C183.828 101.73 180.087 103.886 177.978 110.981C175.89 118.007 174.544 128.668 169.696 129.856C169.696 129.856 171.89 130.647 178.609 128.06C180.746 127.236 183.339 125.735 185.044 124.862C188.385 123.155 190.409 121.756 190.729 121.234C192.494 118.345 193.698 105.325 193.262 101.697C192.825 98.0683 189.799 98.7675 187.808 99.7574Z" fill="#208667"/>
<g opacity="0.4">
<path d="M187.808 99.7574C183.828 101.73 180.087 103.886 177.978 110.981C175.89 118.007 174.544 128.668 169.696 129.856C169.696 129.856 171.89 130.647 178.609 128.06C180.746 127.236 183.339 125.735 185.044 124.862C188.385 123.155 190.409 121.756 190.729 121.234C192.494 118.345 193.698 105.325 193.262 101.697C192.825 98.0683 189.799 98.7675 187.808 99.7574Z" fill="white"/>
</g>
<path d="M158.207 158.284L155.649 138.839L153.561 138.736L157.156 158.277C157.166 158.312 157.184 158.345 157.208 158.375C157.232 158.404 157.263 158.428 157.298 158.446C157.409 158.505 157.535 158.539 157.665 158.545C157.794 158.551 157.923 158.528 158.041 158.479C158.087 158.464 158.127 158.436 158.157 158.4C158.186 158.364 158.203 158.321 158.207 158.277V158.284Z" fill="#263238"/>
<path d="M129.559 137.076H127.466L124.432 155.44C124.434 155.484 124.449 155.527 124.476 155.564C124.503 155.601 124.541 155.631 124.586 155.649C124.702 155.702 124.83 155.729 124.959 155.729C125.089 155.729 125.217 155.702 125.333 155.649C125.405 155.614 125.458 155.555 125.483 155.484L129.559 137.076Z" fill="#37474F"/>
<path d="M127.466 137.076L126.614 142.199C127.113 142.554 127.655 142.855 128.23 143.097L129.567 137.076H127.466Z" fill="#263238"/>
<path d="M144.228 164.805L142.261 145.029L140.172 144.933L143.178 164.805C143.186 164.841 143.202 164.875 143.227 164.905C143.251 164.934 143.283 164.958 143.319 164.974C143.431 165.034 143.556 165.069 143.686 165.075C143.815 165.082 143.944 165.06 144.062 165.011C144.109 164.996 144.149 164.968 144.178 164.932C144.208 164.896 144.225 164.853 144.228 164.809V164.805Z" fill="#37474F"/>
<path d="M142.544 147.936L142.253 145.044L140.164 144.948L140.637 148.076C141.275 148.177 141.931 148.129 142.544 147.936Z" fill="#263238"/>
<path d="M140.996 131.026H138.903L135.845 149.408C135.847 149.452 135.862 149.496 135.889 149.533C135.916 149.57 135.954 149.599 135.999 149.618C136.115 149.67 136.243 149.698 136.372 149.698C136.502 149.698 136.63 149.67 136.746 149.618C136.818 149.582 136.872 149.523 136.896 149.452L140.996 131.026Z" fill="#263238"/>
<path d="M126.177 136.697C125.882 135.192 127.228 134.018 129.757 132.465C132.102 131.059 134.552 129.805 137.089 128.712C139.206 127.825 141.372 127.909 144.083 129.175C147.848 130.938 159.18 137.198 159.18 137.198C159.18 137.198 142.24 145.912 138.98 145.518C135.72 145.124 127.571 140.304 126.929 138.603C126.286 136.903 126.177 136.697 126.177 136.697Z" fill="#208667"/>
<g opacity="0.6">
<path d="M126.177 136.697C125.882 135.192 127.228 134.018 129.757 132.465C132.102 131.059 134.552 129.805 137.089 128.712C139.206 127.825 141.372 127.909 144.083 129.175C147.848 130.938 159.18 137.198 159.18 137.198C159.18 137.198 142.24 145.912 138.98 145.518C135.72 145.124 127.571 140.304 126.929 138.603C126.286 136.903 126.177 136.697 126.177 136.697Z" fill="white"/>
</g>
<path d="M140.616 143.686C138.192 145.691 135.643 143.965 131.619 141.588C127.07 138.898 126.177 136.697 126.177 136.697C126.177 136.697 126.177 138.346 126.517 139.119C126.856 139.892 127.591 140.771 130.872 142.832C134.152 144.893 136.528 145.923 138.742 146.306L140.483 146.089" fill="#208667"/>
<path opacity="0.25" d="M131.619 141.588C127.07 138.898 126.177 136.697 126.177 136.697C126.177 136.697 126.177 138.346 126.517 139.119C126.856 139.892 127.591 140.771 130.872 142.832C134.152 144.893 136.528 145.923 138.742 146.306L140.483 146.089L140.616 143.686C138.168 145.691 135.643 143.965 131.619 141.588Z" fill="white"/>
<path d="M140.483 146.096C141.865 146.033 142.951 145.106 146.244 143.855C152.324 141.547 156.881 139.704 158.618 136.8C160.356 133.897 161.588 120.892 161.152 117.267C161.111 116.856 161.012 116.451 160.857 116.064L161.285 116.008L160.174 115.147C159.039 114.301 157.188 115.055 155.799 115.747C151.815 117.719 148.704 119.637 146.244 126.559C144.394 131.766 143.17 141.15 140.616 143.689" fill="#208667"/>
<path opacity="0.25" d="M160.857 116.056L161.285 116.001L160.174 115.14C159.039 114.293 157.188 115.048 155.799 115.74C151.815 117.712 148.704 119.629 146.244 126.552C144.394 131.759 143.17 141.143 140.616 143.682L140.483 146.085C141.865 146.022 142.951 145.095 146.244 143.844C152.324 141.536 156.881 139.693 158.618 136.789C160.356 133.886 161.588 120.881 161.152 117.256C161.11 116.846 161.011 116.443 160.857 116.056Z" fill="white"/>
<path d="M156.853 116.207C152.87 118.183 149.133 120.34 147.024 127.435C144.935 134.46 143.59 145.121 138.742 146.306C138.742 146.306 140.931 147.101 147.654 144.514C149.791 143.689 152.385 142.188 154.09 141.316C157.431 139.608 159.455 138.21 159.774 137.687C161.539 134.798 162.739 121.775 162.307 118.15C161.875 114.525 158.845 115.221 156.853 116.207Z" fill="#208667"/>
<g opacity="0.4">
<path d="M156.853 116.207C152.87 118.183 149.133 120.34 147.024 127.435C144.935 134.46 143.59 145.121 138.742 146.306C138.742 146.306 140.931 147.101 147.654 144.514C149.791 143.689 152.385 142.188 154.09 141.316C157.431 139.608 159.455 138.21 159.774 137.687C161.539 134.798 162.739 121.775 162.307 118.15C161.875 114.525 158.845 115.221 156.853 116.207Z" fill="white"/>
</g>
</svg>
